<svg width="20" height="20" viewBox="0 0 20 20" fill="none" xmlns="http://www.w3.org/2000/svg">
<rect width="20" height="20" rx="2" fill="#1D1C1C"/>
<circle cx="6.05719" cy="4.74945" r="1.30719" fill="#BC2CFF"/>
<circle cx="6.05719" cy="7.36383" r="1.30719" fill="#BC2CFF"/>
<circle cx="6.05719" cy="9.97821" r="1.30719" fill="#BC2CFF"/>
<circle cx="6.05719" cy="12.5926" r="1.30719" fill="#BC2CFF"/>
<circle cx="8.67047" cy="4.74945" r="1.30719" fill="#BC2CFF"/>
<circle cx="8.67047" cy="7.36383" r="1.30719" fill="#BC2CFF"/>
<circle cx="8.67047" cy="9.97821" r="1.30719" fill="#BC2CFF"/>
<circle cx="8.67047" cy="12.5926" r="1.30719" fill="#BC2CFF"/>
<circle cx="11.2857" cy="4.74945" r="1.30719" fill="#BC2CFF"/>
<circle cx="11.2857" cy="7.36383" r="1.30719" fill="#BC2CFF"/>
<circle cx="11.2857" cy="9.97821" r="1.30719" fill="#BC2CFF"/>
<circle cx="11.2857" cy="12.5926" r="1.30719" fill="#BC2CFF"/>
<circle cx="8.67047" cy="7.36383" r="1.30719" fill="#F6E4FF"/>
<circle cx="8.67047" cy="9.97821" r="1.30719" fill="#F6E4FF"/>
<circle cx="8.67047" cy="12.5926" r="1.30719" fill="#F6E4FF"/>
<circle cx="8.67047" cy="15.207" r="1.30719" fill="#F6E4FF"/>
<circle cx="11.2857" cy="7.36383" r="1.30719" fill="#F6E4FF"/>
<circle cx="11.2857" cy="9.97821" r="1.30719" fill="#F6E4FF"/>
<circle cx="11.2857" cy="12.5926" r="1.30719" fill="#F6E4FF"/>
<circle cx="11.2857" cy="15.207" r="1.30719" fill="#F6E4FF"/>
<circle cx="13.899" cy="7.36383" r="1.30719" fill="#F6E4FF"/>
<circle cx="13.899" cy="9.97821" r="1.30719" fill="#F6E4FF"/>
<circle cx="13.899" cy="12.5926" r="1.30719" fill="#F6E4FF"/>
<circle cx="13.899" cy="15.207" r="1.30719" fill="#F6E4FF"/>
</svg>
