<svg width="3767" height="691" viewBox="0 0 3767 691" fill="none" xmlns="http://www.w3.org/2000/svg">
<path d="M118.75 59.375C118.75 92.1669 92.1669 118.75 59.375 118.75C26.5831 118.75 0 92.1669 0 59.375C0 26.5831 26.5831 0 59.375 0C92.1669 0 118.75 26.5831 118.75 59.375Z" fill="#BC2CFF"/>
<path d="M118.75 178.125C118.75 210.917 92.1669 237.5 59.375 237.5C26.5831 237.5 0 210.917 0 178.125C0 145.333 26.5831 118.75 59.375 118.75C92.1669 118.75 118.75 145.333 118.75 178.125Z" fill="#BC2CFF"/>
<path d="M118.75 296.875C118.75 329.667 92.1669 356.25 59.375 356.25C26.5831 356.25 0 329.667 0 296.875C0 264.083 26.5831 237.5 59.375 237.5C92.1669 237.5 118.75 264.083 118.75 296.875Z" fill="#BC2CFF"/>
<path d="M118.75 415.625C118.75 448.417 92.1669 475 59.375 475C26.5831 475 0 448.417 0 415.625C0 382.833 26.5831 356.25 59.375 356.25C92.1669 356.25 118.75 382.833 118.75 415.625Z" fill="#BC2CFF"/>
<path d="M237.5 59.375C237.5 92.1669 210.917 118.75 178.125 118.75C145.333 118.75 118.75 92.1669 118.75 59.375C118.75 26.5831 145.333 0 178.125 0C210.917 0 237.5 26.5831 237.5 59.375Z" fill="#BC2CFF"/>
<path d="M237.5 178.125C237.5 210.917 210.917 237.5 178.125 237.5C145.333 237.5 118.75 210.917 118.75 178.125C118.75 145.333 145.333 118.75 178.125 118.75C210.917 118.75 237.5 145.333 237.5 178.125Z" fill="#BC2CFF"/>
<path d="M237.5 296.875C237.5 329.667 210.917 356.25 178.125 356.25C145.333 356.25 118.75 329.667 118.75 296.875C118.75 264.083 145.333 237.5 178.125 237.5C210.917 237.5 237.5 264.083 237.5 296.875Z" fill="#BC2CFF"/>
<path d="M237.5 415.625C237.5 448.417 210.917 475 178.125 475C145.333 475 118.75 448.417 118.75 415.625C118.75 382.833 145.333 356.25 178.125 356.25C210.917 356.25 237.5 382.833 237.5 415.625Z" fill="#BC2CFF"/>
<path d="M356.25 59.375C356.25 92.1669 329.667 118.75 296.875 118.75C264.083 118.75 237.5 92.1669 237.5 59.375C237.5 26.5831 264.083 0 296.875 0C329.667 0 356.25 26.5831 356.25 59.375Z" fill="#BC2CFF"/>
<path d="M356.25 178.125C356.25 210.917 329.667 237.5 296.875 237.5C264.083 237.5 237.5 210.917 237.5 178.125C237.5 145.333 264.083 118.75 296.875 118.75C329.667 118.75 356.25 145.333 356.25 178.125Z" fill="#BC2CFF"/>
<path d="M356.25 296.875C356.25 329.667 329.667 356.25 296.875 356.25C264.083 356.25 237.5 329.667 237.5 296.875C237.5 264.083 264.083 237.5 296.875 237.5C329.667 237.5 356.25 264.083 356.25 296.875Z" fill="#BC2CFF"/>
<path d="M356.25 415.625C356.25 448.417 329.667 475 296.875 475C264.083 475 237.5 448.417 237.5 415.625C237.5 382.833 264.083 356.25 296.875 356.25C329.667 356.25 356.25 382.833 356.25 415.625Z" fill="#BC2CFF"/>
<path d="M237.5 178.125C237.5 210.917 210.917 237.5 178.125 237.5C145.333 237.5 118.75 210.917 118.75 178.125C118.75 145.333 145.333 118.75 178.125 118.75C210.917 118.75 237.5 145.333 237.5 178.125Z" fill="#F6E4FF"/>
<path d="M237.5 296.875C237.5 329.667 210.917 356.25 178.125 356.25C145.333 356.25 118.75 329.667 118.75 296.875C118.75 264.083 145.333 237.5 178.125 237.5C210.917 237.5 237.5 264.083 237.5 296.875Z" fill="#F6E4FF"/>
<path d="M237.5 415.625C237.5 448.417 210.917 475 178.125 475C145.333 475 118.75 448.417 118.75 415.625C118.75 382.833 145.333 356.25 178.125 356.25C210.917 356.25 237.5 382.833 237.5 415.625Z" fill="#F6E4FF"/>
<path d="M237.5 534.375C237.5 567.167 210.917 593.75 178.125 593.75C145.333 593.75 118.75 567.167 118.75 534.375C118.75 501.583 145.333 475 178.125 475C210.917 475 237.5 501.583 237.5 534.375Z" fill="#F6E4FF"/>
<path d="M356.25 178.125C356.25 210.917 329.667 237.5 296.875 237.5C264.083 237.5 237.5 210.917 237.5 178.125C237.5 145.333 264.083 118.75 296.875 118.75C329.667 118.75 356.25 145.333 356.25 178.125Z" fill="#F6E4FF"/>
<path d="M356.25 296.875C356.25 329.667 329.667 356.25 296.875 356.25C264.083 356.25 237.5 329.667 237.5 296.875C237.5 264.083 264.083 237.5 296.875 237.5C329.667 237.5 356.25 264.083 356.25 296.875Z" fill="#F6E4FF"/>
<path d="M356.25 415.625C356.25 448.417 329.667 475 296.875 475C264.083 475 237.5 448.417 237.5 415.625C237.5 382.833 264.083 356.25 296.875 356.25C329.667 356.25 356.25 382.833 356.25 415.625Z" fill="#F6E4FF"/>
<path d="M356.25 534.375C356.25 567.167 329.667 593.75 296.875 593.75C264.083 593.75 237.5 567.167 237.5 534.375C237.5 501.583 264.083 475 296.875 475C329.667 475 356.25 501.583 356.25 534.375Z" fill="#F6E4FF"/>
<path d="M475 178.125C475 210.917 448.417 237.5 415.625 237.5C382.833 237.5 356.25 210.917 356.25 178.125C356.25 145.333 382.833 118.75 415.625 118.75C448.417 118.75 475 145.333 475 178.125Z" fill="#F6E4FF"/>
<path d="M475 296.875C475 329.667 448.417 356.25 415.625 356.25C382.833 356.25 356.25 329.667 356.25 296.875C356.25 264.083 382.833 237.5 415.625 237.5C448.417 237.5 475 264.083 475 296.875Z" fill="#F6E4FF"/>
<path d="M475 415.625C475 448.417 448.417 475 415.625 475C382.833 475 356.25 448.417 356.25 415.625C356.25 382.833 382.833 356.25 415.625 356.25C448.417 356.25 475 382.833 475 415.625Z" fill="#F6E4FF"/>
<path d="M475 534.375C475 567.167 448.417 593.75 415.625 593.75C382.833 593.75 356.25 567.167 356.25 534.375C356.25 501.583 382.833 475 415.625 475C448.417 475 475 501.583 475 534.375Z" fill="#F6E4FF"/>
<path d="M1088.38 159.5C1074.87 159.5 1064.25 148.885 1064.25 135.375C1064.25 121.865 1074.87 111.25 1088.38 111.25C1101.88 111.25 1112.5 121.865 1112.5 135.375C1112.5 148.885 1101.88 159.5 1088.38 159.5ZM1040.12 159.5C1026.62 159.5 1016 148.885 1016 135.375C1016 121.865 1026.62 111.25 1040.12 111.25C1053.63 111.25 1064.25 121.865 1064.25 135.375C1064.25 148.885 1053.63 159.5 1040.12 159.5ZM702.375 159.5C688.865 159.5 678.25 148.885 678.25 135.375C678.25 121.865 688.865 111.25 702.375 111.25C715.885 111.25 726.5 121.865 726.5 135.375C726.5 148.885 715.885 159.5 702.375 159.5ZM654.125 159.5C640.615 159.5 630 148.885 630 135.375C630 121.865 640.615 111.25 654.125 111.25C667.635 111.25 678.25 121.865 678.25 135.375C678.25 148.885 667.635 159.5 654.125 159.5ZM750.625 159.5C737.115 159.5 726.5 148.885 726.5 135.375C726.5 121.865 737.115 111.25 750.625 111.25C764.135 111.25 774.75 121.865 774.75 135.375C774.75 148.885 764.135 159.5 750.625 159.5ZM798.875 159.5C785.365 159.5 774.75 148.885 774.75 135.375C774.75 121.865 785.365 111.25 798.875 111.25C812.385 111.25 823 121.865 823 135.375C823 148.885 812.385 159.5 798.875 159.5ZM847.125 159.5C833.615 159.5 823 148.885 823 135.375C823 121.865 833.615 111.25 847.125 111.25C860.635 111.25 871.25 121.865 871.25 135.375C871.25 148.885 860.635 159.5 847.125 159.5ZM943.625 159.5C930.115 159.5 919.5 148.885 919.5 135.375C919.5 121.865 930.115 111.25 943.625 111.25C957.135 111.25 967.75 121.865 967.75 135.375C967.75 148.885 957.135 159.5 943.625 159.5ZM991.875 159.5C978.365 159.5 967.75 148.885 967.75 135.375C967.75 121.865 978.365 111.25 991.875 111.25C1005.38 111.25 1016 121.865 1016 135.375C1016 148.885 1005.38 159.5 991.875 159.5ZM895.375 159.5C881.865 159.5 871.25 148.885 871.25 135.375C871.25 121.865 881.865 111.25 895.375 111.25C908.885 111.25 919.5 121.865 919.5 135.375C919.5 148.885 908.885 159.5 895.375 159.5ZM654.125 207.75C640.615 207.75 630 197.135 630 183.625C630 170.115 640.615 159.5 654.125 159.5C667.635 159.5 678.25 170.115 678.25 183.625C678.25 197.135 667.635 207.75 654.125 207.75ZM1088.38 207.75C1074.87 207.75 1064.25 197.135 1064.25 183.625C1064.25 170.115 1074.87 159.5 1088.38 159.5C1101.88 159.5 1112.5 170.115 1112.5 183.625C1112.5 197.135 1101.88 207.75 1088.38 207.75ZM1040.12 207.75C1026.62 207.75 1016 197.135 1016 183.625C1016 170.115 1026.62 159.5 1040.12 159.5C1053.63 159.5 1064.25 170.115 1064.25 183.625C1064.25 197.135 1053.63 207.75 1040.12 207.75ZM702.375 207.75C688.865 207.75 678.25 197.135 678.25 183.625C678.25 170.115 688.865 159.5 702.375 159.5C715.885 159.5 726.5 170.115 726.5 183.625C726.5 197.135 715.885 207.75 702.375 207.75ZM750.625 207.75C737.115 207.75 726.5 197.135 726.5 183.625C726.5 170.115 737.115 159.5 750.625 159.5C764.135 159.5 774.75 170.115 774.75 183.625C774.75 197.135 764.135 207.75 750.625 207.75ZM847.125 207.75C833.615 207.75 823 197.135 823 183.625C823 170.115 833.615 159.5 847.125 159.5C860.635 159.5 871.25 170.115 871.25 183.625C871.25 197.135 860.635 207.75 847.125 207.75ZM798.875 207.75C785.365 207.75 774.75 197.135 774.75 183.625C774.75 170.115 785.365 159.5 798.875 159.5C812.385 159.5 823 170.115 823 183.625C823 197.135 812.385 207.75 798.875 207.75ZM991.875 207.75C978.365 207.75 967.75 197.135 967.75 183.625C967.75 170.115 978.365 159.5 991.875 159.5C1005.38 159.5 1016 170.115 1016 183.625C1016 197.135 1005.38 207.75 991.875 207.75ZM943.625 207.75C930.115 207.75 919.5 197.135 919.5 183.625C919.5 170.115 930.115 159.5 943.625 159.5C957.135 159.5 967.75 170.115 967.75 183.625C967.75 197.135 957.135 207.75 943.625 207.75ZM895.375 207.75C881.865 207.75 871.25 197.135 871.25 183.625C871.25 170.115 881.865 159.5 895.375 159.5C908.885 159.5 919.5 170.115 919.5 183.625C919.5 197.135 908.885 207.75 895.375 207.75ZM798.875 256C785.365 256 774.75 245.385 774.75 231.875C774.75 218.365 785.365 207.75 798.875 207.75C812.385 207.75 823 218.365 823 231.875C823 245.385 812.385 256 798.875 256ZM847.125 256C833.615 256 823 245.385 823 231.875C823 218.365 833.615 207.75 847.125 207.75C860.635 207.75 871.25 218.365 871.25 231.875C871.25 245.385 860.635 256 847.125 256ZM654.125 256C640.615 256 630 245.385 630 231.875C630 218.365 640.615 207.75 654.125 207.75C667.635 207.75 678.25 218.365 678.25 231.875C678.25 245.385 667.635 256 654.125 256ZM702.375 256C688.865 256 678.25 245.385 678.25 231.875C678.25 218.365 688.865 207.75 702.375 207.75C715.885 207.75 726.5 218.365 726.5 231.875C726.5 245.385 715.885 256 702.375 256ZM750.625 256C737.115 256 726.5 245.385 726.5 231.875C726.5 218.365 737.115 207.75 750.625 207.75C764.135 207.75 774.75 218.365 774.75 231.875C774.75 245.385 764.135 256 750.625 256ZM991.875 256C978.365 256 967.75 245.385 967.75 231.875C967.75 218.365 978.365 207.75 991.875 207.75C1005.38 207.75 1016 218.365 1016 231.875C1016 245.385 1005.38 256 991.875 256ZM1040.12 256C1026.62 256 1016 245.385 1016 231.875C1016 218.365 1026.62 207.75 1040.12 207.75C1053.63 207.75 1064.25 218.365 1064.25 231.875C1064.25 245.385 1053.63 256 1040.12 256ZM1088.38 256C1074.87 256 1064.25 245.385 1064.25 231.875C1064.25 218.365 1074.87 207.75 1088.38 207.75C1101.88 207.75 1112.5 218.365 1112.5 231.875C1112.5 245.385 1101.88 256 1088.38 256ZM943.625 256C930.115 256 919.5 245.385 919.5 231.875C919.5 218.365 930.115 207.75 943.625 207.75C957.135 207.75 967.75 218.365 967.75 231.875C967.75 245.385 957.135 256 943.625 256ZM895.375 256C881.865 256 871.25 245.385 871.25 231.875C871.25 218.365 881.865 207.75 895.375 207.75C908.885 207.75 919.5 218.365 919.5 231.875C919.5 245.385 908.885 256 895.375 256ZM895.375 304.25C881.865 304.25 871.25 293.635 871.25 280.125C871.25 266.615 881.865 256 895.375 256C908.885 256 919.5 266.615 919.5 280.125C919.5 293.635 908.885 304.25 895.375 304.25ZM943.625 304.25C930.115 304.25 919.5 293.635 919.5 280.125C919.5 266.615 930.115 256 943.625 256C957.135 256 967.75 266.615 967.75 280.125C967.75 293.635 957.135 304.25 943.625 304.25ZM798.875 304.25C785.365 304.25 774.75 293.635 774.75 280.125C774.75 266.615 785.365 256 798.875 256C812.385 256 823 266.615 823 280.125C823 293.635 812.385 304.25 798.875 304.25ZM847.125 304.25C833.615 304.25 823 293.635 823 280.125C823 266.615 833.615 256 847.125 256C860.635 256 871.25 266.615 871.25 280.125C871.25 293.635 860.635 304.25 847.125 304.25ZM895.375 352.5C881.865 352.5 871.25 341.885 871.25 328.375C871.25 314.865 881.865 304.25 895.375 304.25C908.885 304.25 919.5 314.865 919.5 328.375C919.5 341.885 908.885 352.5 895.375 352.5ZM943.625 352.5C930.115 352.5 919.5 341.885 919.5 328.375C919.5 314.865 930.115 304.25 943.625 304.25C957.135 304.25 967.75 314.865 967.75 328.375C967.75 341.885 957.135 352.5 943.625 352.5ZM798.875 352.5C785.365 352.5 774.75 341.885 774.75 328.375C774.75 314.865 785.365 304.25 798.875 304.25C812.385 304.25 823 314.865 823 328.375C823 341.885 812.385 352.5 798.875 352.5ZM847.125 352.5C833.615 352.5 823 341.885 823 328.375C823 314.865 833.615 304.25 847.125 304.25C860.635 304.25 871.25 314.865 871.25 328.375C871.25 341.885 860.635 352.5 847.125 352.5ZM895.375 400.75C881.865 400.75 871.25 390.135 871.25 376.625C871.25 363.115 881.865 352.5 895.375 352.5C908.885 352.5 919.5 363.115 919.5 376.625C919.5 390.135 908.885 400.75 895.375 400.75ZM798.875 400.75C785.365 400.75 774.75 390.135 774.75 376.625C774.75 363.115 785.365 352.5 798.875 352.5C812.385 352.5 823 363.115 823 376.625C823 390.135 812.385 400.75 798.875 400.75ZM943.625 400.75C930.115 400.75 919.5 390.135 919.5 376.625C919.5 363.115 930.115 352.5 943.625 352.5C957.135 352.5 967.75 363.115 967.75 376.625C967.75 390.135 957.135 400.75 943.625 400.75ZM847.125 400.75C833.615 400.75 823 390.135 823 376.625C823 363.115 833.615 352.5 847.125 352.5C860.635 352.5 871.25 363.115 871.25 376.625C871.25 390.135 860.635 400.75 847.125 400.75ZM895.375 449C881.865 449 871.25 438.385 871.25 424.875C871.25 411.365 881.865 400.75 895.375 400.75C908.885 400.75 919.5 411.365 919.5 424.875C919.5 438.385 908.885 449 895.375 449ZM798.875 449C785.365 449 774.75 438.385 774.75 424.875C774.75 411.365 785.365 400.75 798.875 400.75C812.385 400.75 823 411.365 823 424.875C823 438.385 812.385 449 798.875 449ZM943.625 449C930.115 449 919.5 438.385 919.5 424.875C919.5 411.365 930.115 400.75 943.625 400.75C957.135 400.75 967.75 411.365 967.75 424.875C967.75 438.385 957.135 449 943.625 449ZM847.125 449C833.615 449 823 438.385 823 424.875C823 411.365 833.615 400.75 847.125 400.75C860.635 400.75 871.25 411.365 871.25 424.875C871.25 438.385 860.635 449 847.125 449ZM798.875 497.25C785.365 497.25 774.75 486.635 774.75 473.125C774.75 459.615 785.365 449 798.875 449C812.385 449 823 459.615 823 473.125C823 486.635 812.385 497.25 798.875 497.25ZM895.375 497.25C881.865 497.25 871.25 486.635 871.25 473.125C871.25 459.615 881.865 449 895.375 449C908.885 449 919.5 459.615 919.5 473.125C919.5 486.635 908.885 497.25 895.375 497.25ZM943.625 497.25C930.115 497.25 919.5 486.635 919.5 473.125C919.5 459.615 930.115 449 943.625 449C957.135 449 967.75 459.615 967.75 473.125C967.75 486.635 957.135 497.25 943.625 497.25ZM847.125 497.25C833.615 497.25 823 486.635 823 473.125C823 459.615 833.615 449 847.125 449C860.635 449 871.25 459.615 871.25 473.125C871.25 486.635 860.635 497.25 847.125 497.25ZM798.875 545.5C785.365 545.5 774.75 534.885 774.75 521.375C774.75 507.865 785.365 497.25 798.875 497.25C812.385 497.25 823 507.865 823 521.375C823 534.885 812.385 545.5 798.875 545.5ZM895.375 545.5C881.865 545.5 871.25 534.885 871.25 521.375C871.25 507.865 881.865 497.25 895.375 497.25C908.885 497.25 919.5 507.865 919.5 521.375C919.5 534.885 908.885 545.5 895.375 545.5ZM943.625 545.5C930.115 545.5 919.5 534.885 919.5 521.375C919.5 507.865 930.115 497.25 943.625 497.25C957.135 497.25 967.75 507.865 967.75 521.375C967.75 534.885 957.135 545.5 943.625 545.5ZM847.125 545.5C833.615 545.5 823 534.885 823 521.375C823 507.865 833.615 497.25 847.125 497.25C860.635 497.25 871.25 507.865 871.25 521.375C871.25 534.885 860.635 545.5 847.125 545.5ZM895.375 593.75C881.865 593.75 871.25 583.135 871.25 569.625C871.25 556.115 881.865 545.5 895.375 545.5C908.885 545.5 919.5 556.115 919.5 569.625C919.5 583.135 908.885 593.75 895.375 593.75ZM798.875 593.75C785.365 593.75 774.75 583.135 774.75 569.625C774.75 556.115 785.365 545.5 798.875 545.5C812.385 545.5 823 556.115 823 569.625C823 583.135 812.385 593.75 798.875 593.75ZM943.625 593.75C930.115 593.75 919.5 583.135 919.5 569.625C919.5 556.115 930.115 545.5 943.625 545.5C957.135 545.5 967.75 556.115 967.75 569.625C967.75 583.135 957.135 593.75 943.625 593.75ZM847.125 593.75C833.615 593.75 823 583.135 823 569.625C823 556.115 833.615 545.5 847.125 545.5C860.635 545.5 871.25 556.115 871.25 569.625C871.25 583.135 860.635 593.75 847.125 593.75Z" fill="#BC2CFF"/>
<path d="M1184.88 256C1171.36 256 1160.75 245.385 1160.75 231.875C1160.75 218.365 1171.36 207.75 1184.88 207.75C1198.38 207.75 1209 218.365 1209 231.875C1209 245.385 1198.38 256 1184.88 256ZM1233.12 256C1219.62 256 1209 245.385 1209 231.875C1209 218.365 1219.62 207.75 1233.12 207.75C1246.63 207.75 1257.25 218.365 1257.25 231.875C1257.25 245.385 1246.63 256 1233.12 256ZM1281.38 256C1267.87 256 1257.25 245.385 1257.25 231.875C1257.25 218.365 1267.87 207.75 1281.38 207.75C1294.88 207.75 1305.5 218.365 1305.5 231.875C1305.5 245.385 1294.88 256 1281.38 256ZM1329.62 256C1316.12 256 1305.5 245.385 1305.5 231.875C1305.5 218.365 1316.12 207.75 1329.62 207.75C1343.13 207.75 1353.75 218.365 1353.75 231.875C1353.75 245.385 1343.13 256 1329.62 256ZM1860.38 256C1846.86 256 1836.25 245.385 1836.25 231.875C1836.25 218.365 1846.86 207.75 1860.38 207.75C1873.88 207.75 1884.5 218.365 1884.5 231.875C1884.5 245.385 1873.88 256 1860.38 256ZM1812.12 256C1798.61 256 1788 245.385 1788 231.875C1788 218.365 1798.61 207.75 1812.12 207.75C1825.63 207.75 1836.25 218.365 1836.25 231.875C1836.25 245.385 1825.63 256 1812.12 256ZM1763.88 256C1750.36 256 1739.75 245.385 1739.75 231.875C1739.75 218.365 1750.36 207.75 1763.88 207.75C1777.38 207.75 1788 218.365 1788 231.875C1788 245.385 1777.38 256 1763.88 256ZM1715.62 256C1702.11 256 1691.5 245.385 1691.5 231.875C1691.5 218.365 1702.11 207.75 1715.62 207.75C1729.13 207.75 1739.75 218.365 1739.75 231.875C1739.75 245.385 1729.13 256 1715.62 256ZM1619.12 256C1605.62 256 1595 245.385 1595 231.875C1595 218.365 1605.62 207.75 1619.12 207.75C1632.63 207.75 1643.25 218.365 1643.25 231.875C1643.25 245.385 1632.63 256 1619.12 256ZM1570.88 256C1557.37 256 1546.75 245.385 1546.75 231.875C1546.75 218.365 1557.37 207.75 1570.88 207.75C1584.38 207.75 1595 218.365 1595 231.875C1595 245.385 1584.38 256 1570.88 256ZM1522.62 256C1509.11 256 1498.5 245.385 1498.5 231.875C1498.5 218.365 1509.11 207.75 1522.62 207.75C1536.13 207.75 1546.75 218.365 1546.75 231.875C1546.75 245.385 1536.13 256 1522.62 256ZM1474.38 256C1460.86 256 1450.25 245.385 1450.25 231.875C1450.25 218.365 1460.86 207.75 1474.38 207.75C1487.88 207.75 1498.5 218.365 1498.5 231.875C1498.5 245.385 1487.88 256 1474.38 256ZM1426.12 256C1412.61 256 1402 245.385 1402 231.875C1402 218.365 1412.61 207.75 1426.12 207.75C1439.63 207.75 1450.25 218.365 1450.25 231.875C1450.25 245.385 1439.63 256 1426.12 256ZM1184.88 304.25C1171.36 304.25 1160.75 293.635 1160.75 280.125C1160.75 266.615 1171.36 256 1184.88 256C1198.38 256 1209 266.615 1209 280.125C1209 293.635 1198.38 304.25 1184.88 304.25ZM1812.12 304.25C1798.61 304.25 1788 293.635 1788 280.125C1788 266.615 1798.61 256 1812.12 256C1825.63 256 1836.25 266.615 1836.25 280.125C1836.25 293.635 1825.63 304.25 1812.12 304.25ZM1667.38 304.25C1653.86 304.25 1643.25 293.635 1643.25 280.125C1643.25 266.615 1653.86 256 1667.38 256C1680.88 256 1691.5 266.615 1691.5 280.125C1691.5 293.635 1680.88 304.25 1667.38 304.25ZM1715.62 304.25C1702.11 304.25 1691.5 293.635 1691.5 280.125C1691.5 266.615 1702.11 256 1715.62 256C1729.13 256 1739.75 266.615 1739.75 280.125C1739.75 293.635 1729.13 304.25 1715.62 304.25ZM1281.38 304.25C1267.87 304.25 1257.25 293.635 1257.25 280.125C1257.25 266.615 1267.87 256 1281.38 256C1294.88 256 1305.5 266.615 1305.5 280.125C1305.5 293.635 1294.88 304.25 1281.38 304.25ZM1860.38 304.25C1846.86 304.25 1836.25 293.635 1836.25 280.125C1836.25 266.615 1846.86 256 1860.38 256C1873.88 256 1884.5 266.615 1884.5 280.125C1884.5 293.635 1873.88 304.25 1860.38 304.25ZM1763.88 304.25C1750.36 304.25 1739.75 293.635 1739.75 280.125C1739.75 266.615 1750.36 256 1763.88 256C1777.38 256 1788 266.615 1788 280.125C1788 293.635 1777.38 304.25 1763.88 304.25ZM1329.62 304.25C1316.12 304.25 1305.5 293.635 1305.5 280.125C1305.5 266.615 1316.12 256 1329.62 256C1343.13 256 1353.75 266.615 1353.75 280.125C1353.75 293.635 1343.13 304.25 1329.62 304.25ZM1233.12 304.25C1219.62 304.25 1209 293.635 1209 280.125C1209 266.615 1219.62 256 1233.12 256C1246.63 256 1257.25 266.615 1257.25 280.125C1257.25 293.635 1246.63 304.25 1233.12 304.25ZM1377.88 304.25C1364.36 304.25 1353.75 293.635 1353.75 280.125C1353.75 266.615 1364.36 256 1377.88 256C1391.38 256 1402 266.615 1402 280.125C1402 293.635 1391.38 304.25 1377.88 304.25ZM1908.62 304.25C1895.11 304.25 1884.5 293.635 1884.5 280.125C1884.5 266.615 1895.11 256 1908.62 256C1922.13 256 1932.75 266.615 1932.75 280.125C1932.75 293.635 1922.13 304.25 1908.62 304.25ZM1426.12 304.25C1412.61 304.25 1402 293.635 1402 280.125C1402 266.615 1412.61 256 1426.12 256C1439.63 256 1450.25 266.615 1450.25 280.125C1450.25 293.635 1439.63 304.25 1426.12 304.25ZM1619.12 304.25C1605.62 304.25 1595 293.635 1595 280.125C1595 266.615 1605.62 256 1619.12 256C1632.63 256 1643.25 266.615 1643.25 280.125C1643.25 293.635 1632.63 304.25 1619.12 304.25ZM1570.88 304.25C1557.37 304.25 1546.75 293.635 1546.75 280.125C1546.75 266.615 1557.37 256 1570.88 256C1584.38 256 1595 266.615 1595 280.125C1595 293.635 1584.38 304.25 1570.88 304.25ZM1522.62 304.25C1509.11 304.25 1498.5 293.635 1498.5 280.125C1498.5 266.615 1509.11 256 1522.62 256C1536.13 256 1546.75 266.615 1546.75 280.125C1546.75 293.635 1536.13 304.25 1522.62 304.25ZM1474.38 304.25C1460.86 304.25 1450.25 293.635 1450.25 280.125C1450.25 266.615 1460.86 256 1474.38 256C1487.88 256 1498.5 266.615 1498.5 280.125C1498.5 293.635 1487.88 304.25 1474.38 304.25ZM1812.12 352.5C1798.61 352.5 1788 341.885 1788 328.375C1788 314.865 1798.61 304.25 1812.12 304.25C1825.63 304.25 1836.25 314.865 1836.25 328.375C1836.25 341.885 1825.63 352.5 1812.12 352.5ZM1908.62 352.5C1895.11 352.5 1884.5 341.885 1884.5 328.375C1884.5 314.865 1895.11 304.25 1908.62 304.25C1922.13 304.25 1932.75 314.865 1932.75 328.375C1932.75 341.885 1922.13 352.5 1908.62 352.5ZM1281.38 352.5C1267.87 352.5 1257.25 341.885 1257.25 328.375C1257.25 314.865 1267.87 304.25 1281.38 304.25C1294.88 304.25 1305.5 314.865 1305.5 328.375C1305.5 341.885 1294.88 352.5 1281.38 352.5ZM1184.88 352.5C1171.36 352.5 1160.75 341.885 1160.75 328.375C1160.75 314.865 1171.36 304.25 1184.88 304.25C1198.38 304.25 1209 314.865 1209 328.375C1209 341.885 1198.38 352.5 1184.88 352.5ZM1860.38 352.5C1846.86 352.5 1836.25 341.885 1836.25 328.375C1836.25 314.865 1846.86 304.25 1860.38 304.25C1873.88 304.25 1884.5 314.865 1884.5 328.375C1884.5 341.885 1873.88 352.5 1860.38 352.5ZM1763.88 352.5C1750.36 352.5 1739.75 341.885 1739.75 328.375C1739.75 314.865 1750.36 304.25 1763.88 304.25C1777.38 304.25 1788 314.865 1788 328.375C1788 341.885 1777.38 352.5 1763.88 352.5ZM1329.62 352.5C1316.12 352.5 1305.5 341.885 1305.5 328.375C1305.5 314.865 1316.12 304.25 1329.62 304.25C1343.13 304.25 1353.75 314.865 1353.75 328.375C1353.75 341.885 1343.13 352.5 1329.62 352.5ZM1570.88 352.5C1557.37 352.5 1546.75 341.885 1546.75 328.375C1546.75 314.865 1557.37 304.25 1570.88 304.25C1584.38 304.25 1595 314.865 1595 328.375C1595 341.885 1584.38 352.5 1570.88 352.5ZM1233.12 352.5C1219.62 352.5 1209 341.885 1209 328.375C1209 314.865 1219.62 304.25 1233.12 304.25C1246.63 304.25 1257.25 314.865 1257.25 328.375C1257.25 341.885 1246.63 352.5 1233.12 352.5ZM1474.38 352.5C1460.86 352.5 1450.25 341.885 1450.25 328.375C1450.25 314.865 1460.86 304.25 1474.38 304.25C1487.88 304.25 1498.5 314.865 1498.5 328.375C1498.5 341.885 1487.88 352.5 1474.38 352.5ZM1619.12 352.5C1605.62 352.5 1595 341.885 1595 328.375C1595 314.865 1605.62 304.25 1619.12 304.25C1632.63 304.25 1643.25 314.865 1643.25 328.375C1643.25 341.885 1632.63 352.5 1619.12 352.5ZM1522.62 352.5C1509.11 352.5 1498.5 341.885 1498.5 328.375C1498.5 314.865 1509.11 304.25 1522.62 304.25C1536.13 304.25 1546.75 314.865 1546.75 328.375C1546.75 341.885 1536.13 352.5 1522.62 352.5ZM1522.62 400.75C1509.11 400.75 1498.5 390.135 1498.5 376.625C1498.5 363.115 1509.11 352.5 1522.62 352.5C1536.13 352.5 1546.75 363.115 1546.75 376.625C1546.75 390.135 1536.13 400.75 1522.62 400.75ZM1619.12 400.75C1605.62 400.75 1595 390.135 1595 376.625C1595 363.115 1605.62 352.5 1619.12 352.5C1632.63 352.5 1643.25 363.115 1643.25 376.625C1643.25 390.135 1632.63 400.75 1619.12 400.75ZM1812.12 400.75C1798.61 400.75 1788 390.135 1788 376.625C1788 363.115 1798.61 352.5 1812.12 352.5C1825.63 352.5 1836.25 363.115 1836.25 376.625C1836.25 390.135 1825.63 400.75 1812.12 400.75ZM1281.38 400.75C1267.87 400.75 1257.25 390.135 1257.25 376.625C1257.25 363.115 1267.87 352.5 1281.38 352.5C1294.88 352.5 1305.5 363.115 1305.5 376.625C1305.5 390.135 1294.88 400.75 1281.38 400.75ZM1233.12 400.75C1219.62 400.75 1209 390.135 1209 376.625C1209 363.115 1219.62 352.5 1233.12 352.5C1246.63 352.5 1257.25 363.115 1257.25 376.625C1257.25 390.135 1246.63 400.75 1233.12 400.75ZM1908.62 400.75C1895.11 400.75 1884.5 390.135 1884.5 376.625C1884.5 363.115 1895.11 352.5 1908.62 352.5C1922.13 352.5 1932.75 363.115 1932.75 376.625C1932.75 390.135 1922.13 400.75 1908.62 400.75ZM1860.38 400.75C1846.86 400.75 1836.25 390.135 1836.25 376.625C1836.25 363.115 1846.86 352.5 1860.38 352.5C1873.88 352.5 1884.5 363.115 1884.5 376.625C1884.5 390.135 1873.88 400.75 1860.38 400.75ZM1329.62 400.75C1316.12 400.75 1305.5 390.135 1305.5 376.625C1305.5 363.115 1316.12 352.5 1329.62 352.5C1343.13 352.5 1353.75 363.115 1353.75 376.625C1353.75 390.135 1343.13 400.75 1329.62 400.75ZM1474.38 400.75C1460.86 400.75 1450.25 390.135 1450.25 376.625C1450.25 363.115 1460.86 352.5 1474.38 352.5C1487.88 352.5 1498.5 363.115 1498.5 376.625C1498.5 390.135 1487.88 400.75 1474.38 400.75ZM1763.88 400.75C1750.36 400.75 1739.75 390.135 1739.75 376.625C1739.75 363.115 1750.36 352.5 1763.88 352.5C1777.38 352.5 1788 363.115 1788 376.625C1788 390.135 1777.38 400.75 1763.88 400.75ZM1184.88 400.75C1171.36 400.75 1160.75 390.135 1160.75 376.625C1160.75 363.115 1171.36 352.5 1184.88 352.5C1198.38 352.5 1209 363.115 1209 376.625C1209 390.135 1198.38 400.75 1184.88 400.75ZM1570.88 400.75C1557.37 400.75 1546.75 390.135 1546.75 376.625C1546.75 363.115 1557.37 352.5 1570.88 352.5C1584.38 352.5 1595 363.115 1595 376.625C1595 390.135 1584.38 400.75 1570.88 400.75ZM1570.88 449C1557.37 449 1546.75 438.385 1546.75 424.875C1546.75 411.365 1557.37 400.75 1570.88 400.75C1584.38 400.75 1595 411.365 1595 424.875C1595 438.385 1584.38 449 1570.88 449ZM1908.62 449C1895.11 449 1884.5 438.385 1884.5 424.875C1884.5 411.365 1895.11 400.75 1908.62 400.75C1922.13 400.75 1932.75 411.365 1932.75 424.875C1932.75 438.385 1922.13 449 1908.62 449ZM1474.38 449C1460.86 449 1450.25 438.385 1450.25 424.875C1450.25 411.365 1460.86 400.75 1474.38 400.75C1487.88 400.75 1498.5 411.365 1498.5 424.875C1498.5 438.385 1487.88 449 1474.38 449ZM1522.62 449C1509.11 449 1498.5 438.385 1498.5 424.875C1498.5 411.365 1509.11 400.75 1522.62 400.75C1536.13 400.75 1546.75 411.365 1546.75 424.875C1546.75 438.385 1536.13 449 1522.62 449ZM1329.62 449C1316.12 449 1305.5 438.385 1305.5 424.875C1305.5 411.365 1316.12 400.75 1329.62 400.75C1343.13 400.75 1353.75 411.365 1353.75 424.875C1353.75 438.385 1343.13 449 1329.62 449ZM1860.38 449C1846.86 449 1836.25 438.385 1836.25 424.875C1836.25 411.365 1846.86 400.75 1860.38 400.75C1873.88 400.75 1884.5 411.365 1884.5 424.875C1884.5 438.385 1873.88 449 1860.38 449ZM1619.12 449C1605.62 449 1595 438.385 1595 424.875C1595 411.365 1605.62 400.75 1619.12 400.75C1632.63 400.75 1643.25 411.365 1643.25 424.875C1643.25 438.385 1632.63 449 1619.12 449ZM1184.88 449C1171.36 449 1160.75 438.385 1160.75 424.875C1160.75 411.365 1171.36 400.75 1184.88 400.75C1198.38 400.75 1209 411.365 1209 424.875C1209 438.385 1198.38 449 1184.88 449ZM1281.38 449C1267.87 449 1257.25 438.385 1257.25 424.875C1257.25 411.365 1267.87 400.75 1281.38 400.75C1294.88 400.75 1305.5 411.365 1305.5 424.875C1305.5 438.385 1294.88 449 1281.38 449ZM1812.12 449C1798.61 449 1788 438.385 1788 424.875C1788 411.365 1798.61 400.75 1812.12 400.75C1825.63 400.75 1836.25 411.365 1836.25 424.875C1836.25 438.385 1825.63 449 1812.12 449ZM1233.12 449C1219.62 449 1209 438.385 1209 424.875C1209 411.365 1219.62 400.75 1233.12 400.75C1246.63 400.75 1257.25 411.365 1257.25 424.875C1257.25 438.385 1246.63 449 1233.12 449ZM1763.88 449C1750.36 449 1739.75 438.385 1739.75 424.875C1739.75 411.365 1750.36 400.75 1763.88 400.75C1777.38 400.75 1788 411.365 1788 424.875C1788 438.385 1777.38 449 1763.88 449ZM1570.88 497.25C1557.37 497.25 1546.75 486.635 1546.75 473.125C1546.75 459.615 1557.37 449 1570.88 449C1584.38 449 1595 459.615 1595 473.125C1595 486.635 1584.38 497.25 1570.88 497.25ZM1474.38 497.25C1460.86 497.25 1450.25 486.635 1450.25 473.125C1450.25 459.615 1460.86 449 1474.38 449C1487.88 449 1498.5 459.615 1498.5 473.125C1498.5 486.635 1487.88 497.25 1474.38 497.25ZM1763.88 497.25C1750.36 497.25 1739.75 486.635 1739.75 473.125C1739.75 459.615 1750.36 449 1763.88 449C1777.38 449 1788 459.615 1788 473.125C1788 486.635 1777.38 497.25 1763.88 497.25ZM1184.88 497.25C1171.36 497.25 1160.75 486.635 1160.75 473.125C1160.75 459.615 1171.36 449 1184.88 449C1198.38 449 1209 459.615 1209 473.125C1209 486.635 1198.38 497.25 1184.88 497.25ZM1908.62 497.25C1895.11 497.25 1884.5 486.635 1884.5 473.125C1884.5 459.615 1895.11 449 1908.62 449C1922.13 449 1932.75 459.615 1932.75 473.125C1932.75 486.635 1922.13 497.25 1908.62 497.25ZM1329.62 497.25C1316.12 497.25 1305.5 486.635 1305.5 473.125C1305.5 459.615 1316.12 449 1329.62 449C1343.13 449 1353.75 459.615 1353.75 473.125C1353.75 486.635 1343.13 497.25 1329.62 497.25ZM1233.12 497.25C1219.62 497.25 1209 486.635 1209 473.125C1209 459.615 1219.62 449 1233.12 449C1246.63 449 1257.25 459.615 1257.25 473.125C1257.25 486.635 1246.63 497.25 1233.12 497.25ZM1619.12 497.25C1605.62 497.25 1595 486.635 1595 473.125C1595 459.615 1605.62 449 1619.12 449C1632.63 449 1643.25 459.615 1643.25 473.125C1643.25 486.635 1632.63 497.25 1619.12 497.25ZM1860.38 497.25C1846.86 497.25 1836.25 486.635 1836.25 473.125C1836.25 459.615 1846.86 449 1860.38 449C1873.88 449 1884.5 459.615 1884.5 473.125C1884.5 486.635 1873.88 497.25 1860.38 497.25ZM1281.38 497.25C1267.87 497.25 1257.25 486.635 1257.25 473.125C1257.25 459.615 1267.87 449 1281.38 449C1294.88 449 1305.5 459.615 1305.5 473.125C1305.5 486.635 1294.88 497.25 1281.38 497.25ZM1812.12 497.25C1798.61 497.25 1788 486.635 1788 473.125C1788 459.615 1798.61 449 1812.12 449C1825.63 449 1836.25 459.615 1836.25 473.125C1836.25 486.635 1825.63 497.25 1812.12 497.25ZM1522.62 497.25C1509.11 497.25 1498.5 486.635 1498.5 473.125C1498.5 459.615 1509.11 449 1522.62 449C1536.13 449 1546.75 459.615 1546.75 473.125C1546.75 486.635 1536.13 497.25 1522.62 497.25ZM1812.12 545.5C1798.61 545.5 1788 534.885 1788 521.375C1788 507.865 1798.61 497.25 1812.12 497.25C1825.63 497.25 1836.25 507.865 1836.25 521.375C1836.25 534.885 1825.63 545.5 1812.12 545.5ZM1860.38 545.5C1846.86 545.5 1836.25 534.885 1836.25 521.375C1836.25 507.865 1846.86 497.25 1860.38 497.25C1873.88 497.25 1884.5 507.865 1884.5 521.375C1884.5 534.885 1873.88 545.5 1860.38 545.5ZM1184.88 545.5C1171.36 545.5 1160.75 534.885 1160.75 521.375C1160.75 507.865 1171.36 497.25 1184.88 497.25C1198.38 497.25 1209 507.865 1209 521.375C1209 534.885 1198.38 545.5 1184.88 545.5ZM1908.62 545.5C1895.11 545.5 1884.5 534.885 1884.5 521.375C1884.5 507.865 1895.11 497.25 1908.62 497.25C1922.13 497.25 1932.75 507.865 1932.75 521.375C1932.75 534.885 1922.13 545.5 1908.62 545.5ZM1763.88 545.5C1750.36 545.5 1739.75 534.885 1739.75 521.375C1739.75 507.865 1750.36 497.25 1763.88 497.25C1777.38 497.25 1788 507.865 1788 521.375C1788 534.885 1777.38 545.5 1763.88 545.5ZM1619.12 545.5C1605.62 545.5 1595 534.885 1595 521.375C1595 507.865 1605.62 497.25 1619.12 497.25C1632.63 497.25 1643.25 507.865 1643.25 521.375C1643.25 534.885 1632.63 545.5 1619.12 545.5ZM1522.62 545.5C1509.11 545.5 1498.5 534.885 1498.5 521.375C1498.5 507.865 1509.11 497.25 1522.62 497.25C1536.13 497.25 1546.75 507.865 1546.75 521.375C1546.75 534.885 1536.13 545.5 1522.62 545.5ZM1474.38 545.5C1460.86 545.5 1450.25 534.885 1450.25 521.375C1450.25 507.865 1460.86 497.25 1474.38 497.25C1487.88 497.25 1498.5 507.865 1498.5 521.375C1498.5 534.885 1487.88 545.5 1474.38 545.5ZM1233.12 545.5C1219.62 545.5 1209 534.885 1209 521.375C1209 507.865 1219.62 497.25 1233.12 497.25C1246.63 497.25 1257.25 507.865 1257.25 521.375C1257.25 534.885 1246.63 545.5 1233.12 545.5ZM1329.62 545.5C1316.12 545.5 1305.5 534.885 1305.5 521.375C1305.5 507.865 1316.12 497.25 1329.62 497.25C1343.13 497.25 1353.75 507.865 1353.75 521.375C1353.75 534.885 1343.13 545.5 1329.62 545.5ZM1281.38 545.5C1267.87 545.5 1257.25 534.885 1257.25 521.375C1257.25 507.865 1267.87 497.25 1281.38 497.25C1294.88 497.25 1305.5 507.865 1305.5 521.375C1305.5 534.885 1294.88 545.5 1281.38 545.5ZM1570.88 545.5C1557.37 545.5 1546.75 534.885 1546.75 521.375C1546.75 507.865 1557.37 497.25 1570.88 497.25C1584.38 497.25 1595 507.865 1595 521.375C1595 534.885 1584.38 545.5 1570.88 545.5ZM1908.62 593.75C1895.11 593.75 1884.5 583.135 1884.5 569.625C1884.5 556.115 1895.11 545.5 1908.62 545.5C1922.13 545.5 1932.75 556.115 1932.75 569.625C1932.75 583.135 1922.13 593.75 1908.62 593.75ZM1812.12 593.75C1798.61 593.75 1788 583.135 1788 569.625C1788 556.115 1798.61 545.5 1812.12 545.5C1825.63 545.5 1836.25 556.115 1836.25 569.625C1836.25 583.135 1825.63 593.75 1812.12 593.75ZM1860.38 593.75C1846.86 593.75 1836.25 583.135 1836.25 569.625C1836.25 556.115 1846.86 545.5 1860.38 545.5C1873.88 545.5 1884.5 556.115 1884.5 569.625C1884.5 583.135 1873.88 593.75 1860.38 593.75ZM1281.38 593.75C1267.87 593.75 1257.25 583.135 1257.25 569.625C1257.25 556.115 1267.87 545.5 1281.38 545.5C1294.88 545.5 1305.5 556.115 1305.5 569.625C1305.5 583.135 1294.88 593.75 1281.38 593.75ZM1184.88 593.75C1171.36 593.75 1160.75 583.135 1160.75 569.625C1160.75 556.115 1171.36 545.5 1184.88 545.5C1198.38 545.5 1209 556.115 1209 569.625C1209 583.135 1198.38 593.75 1184.88 593.75ZM1763.88 593.75C1750.36 593.75 1739.75 583.135 1739.75 569.625C1739.75 556.115 1750.36 545.5 1763.88 545.5C1777.38 545.5 1788 556.115 1788 569.625C1788 583.135 1777.38 593.75 1763.88 593.75ZM1233.12 593.75C1219.62 593.75 1209 583.135 1209 569.625C1209 556.115 1219.62 545.5 1233.12 545.5C1246.63 545.5 1257.25 556.115 1257.25 569.625C1257.25 583.135 1246.63 593.75 1233.12 593.75ZM1619.12 593.75C1605.62 593.75 1595 583.135 1595 569.625C1595 556.115 1605.62 545.5 1619.12 545.5C1632.63 545.5 1643.25 556.115 1643.25 569.625C1643.25 583.135 1632.63 593.75 1619.12 593.75ZM1522.62 593.75C1509.11 593.75 1498.5 583.135 1498.5 569.625C1498.5 556.115 1509.11 545.5 1522.62 545.5C1536.13 545.5 1546.75 556.115 1546.75 569.625C1546.75 583.135 1536.13 593.75 1522.62 593.75ZM1474.38 593.75C1460.86 593.75 1450.25 583.135 1450.25 569.625C1450.25 556.115 1460.86 545.5 1474.38 545.5C1487.88 545.5 1498.5 556.115 1498.5 569.625C1498.5 583.135 1487.88 593.75 1474.38 593.75ZM1329.62 593.75C1316.12 593.75 1305.5 583.135 1305.5 569.625C1305.5 556.115 1316.12 545.5 1329.62 545.5C1343.13 545.5 1353.75 556.115 1353.75 569.625C1353.75 583.135 1343.13 593.75 1329.62 593.75ZM1570.88 593.75C1557.37 593.75 1546.75 583.135 1546.75 569.625C1546.75 556.115 1557.37 545.5 1570.88 545.5C1584.38 545.5 1595 556.115 1595 569.625C1595 583.135 1584.38 593.75 1570.88 593.75Z" fill="#F6E4FF"/>
<path d="M2005.12 256C1991.61 256 1981 245.385 1981 231.875C1981 218.365 1991.61 207.75 2005.12 207.75C2018.63 207.75 2029.25 218.365 2029.25 231.875C2029.25 245.385 2018.63 256 2005.12 256ZM2439.38 256C2425.87 256 2415.25 245.385 2415.25 231.875C2415.25 218.365 2425.87 207.75 2439.38 207.75C2452.88 207.75 2463.5 218.365 2463.5 231.875C2463.5 245.385 2452.88 256 2439.38 256ZM2391.12 256C2377.62 256 2367 245.385 2367 231.875C2367 218.365 2377.62 207.75 2391.12 207.75C2404.63 207.75 2415.25 218.365 2415.25 231.875C2415.25 245.385 2404.63 256 2391.12 256ZM2342.88 256C2329.36 256 2318.75 245.385 2318.75 231.875C2318.75 218.365 2329.36 207.75 2342.88 207.75C2356.38 207.75 2367 218.365 2367 231.875C2367 245.385 2356.38 256 2342.88 256ZM2294.62 256C2281.11 256 2270.5 245.385 2270.5 231.875C2270.5 218.365 2281.11 207.75 2294.62 207.75C2308.13 207.75 2318.75 218.365 2318.75 231.875C2318.75 245.385 2308.13 256 2294.62 256ZM2246.38 256C2232.86 256 2222.25 245.385 2222.25 231.875C2222.25 218.365 2232.86 207.75 2246.38 207.75C2259.88 207.75 2270.5 218.365 2270.5 231.875C2270.5 245.385 2259.88 256 2246.38 256ZM2149.88 256C2136.37 256 2125.75 245.385 2125.75 231.875C2125.75 218.365 2136.37 207.75 2149.88 207.75C2163.38 207.75 2174 218.365 2174 231.875C2174 245.385 2163.38 256 2149.88 256ZM2101.62 256C2088.12 256 2077.5 245.385 2077.5 231.875C2077.5 218.365 2088.12 207.75 2101.62 207.75C2115.13 207.75 2125.75 218.365 2125.75 231.875C2125.75 245.385 2115.13 256 2101.62 256ZM2053.38 256C2039.87 256 2029.25 245.385 2029.25 231.875C2029.25 218.365 2039.87 207.75 2053.38 207.75C2066.88 207.75 2077.5 218.365 2077.5 231.875C2077.5 245.385 2066.88 256 2053.38 256ZM2005.12 304.25C1991.61 304.25 1981 293.635 1981 280.125C1981 266.615 1991.61 256 2005.12 256C2018.63 256 2029.25 266.615 2029.25 280.125C2029.25 293.635 2018.63 304.25 2005.12 304.25ZM2487.62 304.25C2474.11 304.25 2463.5 293.635 2463.5 280.125C2463.5 266.615 2474.11 256 2487.62 256C2501.13 256 2511.75 266.615 2511.75 280.125C2511.75 293.635 2501.13 304.25 2487.62 304.25ZM2439.38 304.25C2425.87 304.25 2415.25 293.635 2415.25 280.125C2415.25 266.615 2425.87 256 2439.38 256C2452.88 256 2463.5 266.615 2463.5 280.125C2463.5 293.635 2452.88 304.25 2439.38 304.25ZM2391.12 304.25C2377.62 304.25 2367 293.635 2367 280.125C2367 266.615 2377.62 256 2391.12 256C2404.63 256 2415.25 266.615 2415.25 280.125C2415.25 293.635 2404.63 304.25 2391.12 304.25ZM2342.88 304.25C2329.36 304.25 2318.75 293.635 2318.75 280.125C2318.75 266.615 2329.36 256 2342.88 256C2356.38 256 2367 266.615 2367 280.125C2367 293.635 2356.38 304.25 2342.88 304.25ZM2053.38 304.25C2039.87 304.25 2029.25 293.635 2029.25 280.125C2029.25 266.615 2039.87 256 2053.38 256C2066.88 256 2077.5 266.615 2077.5 280.125C2077.5 293.635 2066.88 304.25 2053.38 304.25ZM2294.62 304.25C2281.11 304.25 2270.5 293.635 2270.5 280.125C2270.5 266.615 2281.11 256 2294.62 256C2308.13 256 2318.75 266.615 2318.75 280.125C2318.75 293.635 2308.13 304.25 2294.62 304.25ZM2246.38 304.25C2232.86 304.25 2222.25 293.635 2222.25 280.125C2222.25 266.615 2232.86 256 2246.38 256C2259.88 256 2270.5 266.615 2270.5 280.125C2270.5 293.635 2259.88 304.25 2246.38 304.25ZM2198.12 304.25C2184.61 304.25 2174 293.635 2174 280.125C2174 266.615 2184.61 256 2198.12 256C2211.63 256 2222.25 266.615 2222.25 280.125C2222.25 293.635 2211.63 304.25 2198.12 304.25ZM2149.88 304.25C2136.37 304.25 2125.75 293.635 2125.75 280.125C2125.75 266.615 2136.37 256 2149.88 256C2163.38 256 2174 266.615 2174 280.125C2174 293.635 2163.38 304.25 2149.88 304.25ZM2101.62 304.25C2088.12 304.25 2077.5 293.635 2077.5 280.125C2077.5 266.615 2088.12 256 2101.62 256C2115.13 256 2125.75 266.615 2125.75 280.125C2125.75 293.635 2115.13 304.25 2101.62 304.25ZM2101.62 352.5C2088.12 352.5 2077.5 341.885 2077.5 328.375C2077.5 314.865 2088.12 304.25 2101.62 304.25C2115.13 304.25 2125.75 314.865 2125.75 328.375C2125.75 341.885 2115.13 352.5 2101.62 352.5ZM2487.62 352.5C2474.11 352.5 2463.5 341.885 2463.5 328.375C2463.5 314.865 2474.11 304.25 2487.62 304.25C2501.13 304.25 2511.75 314.865 2511.75 328.375C2511.75 341.885 2501.13 352.5 2487.62 352.5ZM2535.88 352.5C2522.36 352.5 2511.75 341.885 2511.75 328.375C2511.75 314.865 2522.36 304.25 2535.88 304.25C2549.38 304.25 2560 314.865 2560 328.375C2560 341.885 2549.38 352.5 2535.88 352.5ZM2149.88 352.5C2136.37 352.5 2125.75 341.885 2125.75 328.375C2125.75 314.865 2136.37 304.25 2149.88 304.25C2163.38 304.25 2174 314.865 2174 328.375C2174 341.885 2163.38 352.5 2149.88 352.5ZM2439.38 352.5C2425.87 352.5 2415.25 341.885 2415.25 328.375C2415.25 314.865 2425.87 304.25 2439.38 304.25C2452.88 304.25 2463.5 314.865 2463.5 328.375C2463.5 341.885 2452.88 352.5 2439.38 352.5ZM2391.12 352.5C2377.62 352.5 2367 341.885 2367 328.375C2367 314.865 2377.62 304.25 2391.12 304.25C2404.63 304.25 2415.25 314.865 2415.25 328.375C2415.25 341.885 2404.63 352.5 2391.12 352.5ZM2198.12 352.5C2184.61 352.5 2174 341.885 2174 328.375C2174 314.865 2184.61 304.25 2198.12 304.25C2211.63 304.25 2222.25 314.865 2222.25 328.375C2222.25 341.885 2211.63 352.5 2198.12 352.5ZM2053.38 352.5C2039.87 352.5 2029.25 341.885 2029.25 328.375C2029.25 314.865 2039.87 304.25 2053.38 304.25C2066.88 304.25 2077.5 314.865 2077.5 328.375C2077.5 341.885 2066.88 352.5 2053.38 352.5ZM2342.88 352.5C2329.36 352.5 2318.75 341.885 2318.75 328.375C2318.75 314.865 2329.36 304.25 2342.88 304.25C2356.38 304.25 2367 314.865 2367 328.375C2367 341.885 2356.38 352.5 2342.88 352.5ZM2005.12 352.5C1991.61 352.5 1981 341.885 1981 328.375C1981 314.865 1991.61 304.25 2005.12 304.25C2018.63 304.25 2029.25 314.865 2029.25 328.375C2029.25 341.885 2018.63 352.5 2005.12 352.5ZM2053.38 400.75C2039.87 400.75 2029.25 390.135 2029.25 376.625C2029.25 363.115 2039.87 352.5 2053.38 352.5C2066.88 352.5 2077.5 363.115 2077.5 376.625C2077.5 390.135 2066.88 400.75 2053.38 400.75ZM2005.12 400.75C1991.61 400.75 1981 390.135 1981 376.625C1981 363.115 1991.61 352.5 2005.12 352.5C2018.63 352.5 2029.25 363.115 2029.25 376.625C2029.25 390.135 2018.63 400.75 2005.12 400.75ZM2535.88 400.75C2522.36 400.75 2511.75 390.135 2511.75 376.625C2511.75 363.115 2522.36 352.5 2535.88 352.5C2549.38 352.5 2560 363.115 2560 376.625C2560 390.135 2549.38 400.75 2535.88 400.75ZM2101.62 400.75C2088.12 400.75 2077.5 390.135 2077.5 376.625C2077.5 363.115 2088.12 352.5 2101.62 352.5C2115.13 352.5 2125.75 363.115 2125.75 376.625C2125.75 390.135 2115.13 400.75 2101.62 400.75ZM2149.88 400.75C2136.37 400.75 2125.75 390.135 2125.75 376.625C2125.75 363.115 2136.37 352.5 2149.88 352.5C2163.38 352.5 2174 363.115 2174 376.625C2174 390.135 2163.38 400.75 2149.88 400.75ZM2391.12 400.75C2377.62 400.75 2367 390.135 2367 376.625C2367 363.115 2377.62 352.5 2391.12 352.5C2404.63 352.5 2415.25 363.115 2415.25 376.625C2415.25 390.135 2404.63 400.75 2391.12 400.75ZM2487.62 400.75C2474.11 400.75 2463.5 390.135 2463.5 376.625C2463.5 363.115 2474.11 352.5 2487.62 352.5C2501.13 352.5 2511.75 363.115 2511.75 376.625C2511.75 390.135 2501.13 400.75 2487.62 400.75ZM2439.38 400.75C2425.87 400.75 2415.25 390.135 2415.25 376.625C2415.25 363.115 2425.87 352.5 2439.38 352.5C2452.88 352.5 2463.5 363.115 2463.5 376.625C2463.5 390.135 2452.88 400.75 2439.38 400.75ZM2439.38 449C2425.87 449 2415.25 438.385 2415.25 424.875C2415.25 411.365 2425.87 400.75 2439.38 400.75C2452.88 400.75 2463.5 411.365 2463.5 424.875C2463.5 438.385 2452.88 449 2439.38 449ZM2101.62 449C2088.12 449 2077.5 438.385 2077.5 424.875C2077.5 411.365 2088.12 400.75 2101.62 400.75C2115.13 400.75 2125.75 411.365 2125.75 424.875C2125.75 438.385 2115.13 449 2101.62 449ZM2535.88 449C2522.36 449 2511.75 438.385 2511.75 424.875C2511.75 411.365 2522.36 400.75 2535.88 400.75C2549.38 400.75 2560 411.365 2560 424.875C2560 438.385 2549.38 449 2535.88 449ZM2149.88 449C2136.37 449 2125.75 438.385 2125.75 424.875C2125.75 411.365 2136.37 400.75 2149.88 400.75C2163.38 400.75 2174 411.365 2174 424.875C2174 438.385 2163.38 449 2149.88 449ZM2391.12 449C2377.62 449 2367 438.385 2367 424.875C2367 411.365 2377.62 400.75 2391.12 400.75C2404.63 400.75 2415.25 411.365 2415.25 424.875C2415.25 438.385 2404.63 449 2391.12 449ZM2053.38 449C2039.87 449 2029.25 438.385 2029.25 424.875C2029.25 411.365 2039.87 400.75 2053.38 400.75C2066.88 400.75 2077.5 411.365 2077.5 424.875C2077.5 438.385 2066.88 449 2053.38 449ZM2487.62 449C2474.11 449 2463.5 438.385 2463.5 424.875C2463.5 411.365 2474.11 400.75 2487.62 400.75C2501.13 400.75 2511.75 411.365 2511.75 424.875C2511.75 438.385 2501.13 449 2487.62 449ZM2005.12 449C1991.61 449 1981 438.385 1981 424.875C1981 411.365 1991.61 400.75 2005.12 400.75C2018.63 400.75 2029.25 411.365 2029.25 424.875C2029.25 438.385 2018.63 449 2005.12 449ZM2101.62 497.25C2088.12 497.25 2077.5 486.635 2077.5 473.125C2077.5 459.615 2088.12 449 2101.62 449C2115.13 449 2125.75 459.615 2125.75 473.125C2125.75 486.635 2115.13 497.25 2101.62 497.25ZM2005.12 497.25C1991.61 497.25 1981 486.635 1981 473.125C1981 459.615 1991.61 449 2005.12 449C2018.63 449 2029.25 459.615 2029.25 473.125C2029.25 486.635 2018.63 497.25 2005.12 497.25ZM2487.62 497.25C2474.11 497.25 2463.5 486.635 2463.5 473.125C2463.5 459.615 2474.11 449 2487.62 449C2501.13 449 2511.75 459.615 2511.75 473.125C2511.75 486.635 2501.13 497.25 2487.62 497.25ZM2053.38 497.25C2039.87 497.25 2029.25 486.635 2029.25 473.125C2029.25 459.615 2039.87 449 2053.38 449C2066.88 449 2077.5 459.615 2077.5 473.125C2077.5 486.635 2066.88 497.25 2053.38 497.25ZM2535.88 497.25C2522.36 497.25 2511.75 486.635 2511.75 473.125C2511.75 459.615 2522.36 449 2535.88 449C2549.38 449 2560 459.615 2560 473.125C2560 486.635 2549.38 497.25 2535.88 497.25ZM2391.12 497.25C2377.62 497.25 2367 486.635 2367 473.125C2367 459.615 2377.62 449 2391.12 449C2404.63 449 2415.25 459.615 2415.25 473.125C2415.25 486.635 2404.63 497.25 2391.12 497.25ZM2149.88 497.25C2136.37 497.25 2125.75 486.635 2125.75 473.125C2125.75 459.615 2136.37 449 2149.88 449C2163.38 449 2174 459.615 2174 473.125C2174 486.635 2163.38 497.25 2149.88 497.25ZM2342.88 497.25C2329.36 497.25 2318.75 486.635 2318.75 473.125C2318.75 459.615 2329.36 449 2342.88 449C2356.38 449 2367 459.615 2367 473.125C2367 486.635 2356.38 497.25 2342.88 497.25ZM2439.38 497.25C2425.87 497.25 2415.25 486.635 2415.25 473.125C2415.25 459.615 2425.87 449 2439.38 449C2452.88 449 2463.5 459.615 2463.5 473.125C2463.5 486.635 2452.88 497.25 2439.38 497.25ZM2439.38 545.5C2425.87 545.5 2415.25 534.885 2415.25 521.375C2415.25 507.865 2425.87 497.25 2439.38 497.25C2452.88 497.25 2463.5 507.865 2463.5 521.375C2463.5 534.885 2452.88 545.5 2439.38 545.5ZM2005.12 545.5C1991.61 545.5 1981 534.885 1981 521.375C1981 507.865 1991.61 497.25 2005.12 497.25C2018.63 497.25 2029.25 507.865 2029.25 521.375C2029.25 534.885 2018.63 545.5 2005.12 545.5ZM2487.62 545.5C2474.11 545.5 2463.5 534.885 2463.5 521.375C2463.5 507.865 2474.11 497.25 2487.62 497.25C2501.13 497.25 2511.75 507.865 2511.75 521.375C2511.75 534.885 2501.13 545.5 2487.62 545.5ZM2198.12 545.5C2184.61 545.5 2174 534.885 2174 521.375C2174 507.865 2184.61 497.25 2198.12 497.25C2211.63 497.25 2222.25 507.865 2222.25 521.375C2222.25 534.885 2211.63 545.5 2198.12 545.5ZM2246.38 545.5C2232.86 545.5 2222.25 534.885 2222.25 521.375C2222.25 507.865 2232.86 497.25 2246.38 497.25C2259.88 497.25 2270.5 507.865 2270.5 521.375C2270.5 534.885 2259.88 545.5 2246.38 545.5ZM2294.62 545.5C2281.11 545.5 2270.5 534.885 2270.5 521.375C2270.5 507.865 2281.11 497.25 2294.62 497.25C2308.13 497.25 2318.75 507.865 2318.75 521.375C2318.75 534.885 2308.13 545.5 2294.62 545.5ZM2342.88 545.5C2329.36 545.5 2318.75 534.885 2318.75 521.375C2318.75 507.865 2329.36 497.25 2342.88 497.25C2356.38 497.25 2367 507.865 2367 521.375C2367 534.885 2356.38 545.5 2342.88 545.5ZM2391.12 545.5C2377.62 545.5 2367 534.885 2367 521.375C2367 507.865 2377.62 497.25 2391.12 497.25C2404.63 497.25 2415.25 507.865 2415.25 521.375C2415.25 534.885 2404.63 545.5 2391.12 545.5ZM2149.88 545.5C2136.37 545.5 2125.75 534.885 2125.75 521.375C2125.75 507.865 2136.37 497.25 2149.88 497.25C2163.38 497.25 2174 507.865 2174 521.375C2174 534.885 2163.38 545.5 2149.88 545.5ZM2101.62 545.5C2088.12 545.5 2077.5 534.885 2077.5 521.375C2077.5 507.865 2088.12 497.25 2101.62 497.25C2115.13 497.25 2125.75 507.865 2125.75 521.375C2125.75 534.885 2115.13 545.5 2101.62 545.5ZM2053.38 545.5C2039.87 545.5 2029.25 534.885 2029.25 521.375C2029.25 507.865 2039.87 497.25 2053.38 497.25C2066.88 497.25 2077.5 507.865 2077.5 521.375C2077.5 534.885 2066.88 545.5 2053.38 545.5ZM2246.38 593.75C2232.86 593.75 2222.25 583.135 2222.25 569.625C2222.25 556.115 2232.86 545.5 2246.38 545.5C2259.88 545.5 2270.5 556.115 2270.5 569.625C2270.5 583.135 2259.88 593.75 2246.38 593.75ZM2294.62 593.75C2281.11 593.75 2270.5 583.135 2270.5 569.625C2270.5 556.115 2281.11 545.5 2294.62 545.5C2308.13 545.5 2318.75 556.115 2318.75 569.625C2318.75 583.135 2308.13 593.75 2294.62 593.75ZM2342.88 593.75C2329.36 593.75 2318.75 583.135 2318.75 569.625C2318.75 556.115 2329.36 545.5 2342.88 545.5C2356.38 545.5 2367 556.115 2367 569.625C2367 583.135 2356.38 593.75 2342.88 593.75ZM2053.38 593.75C2039.87 593.75 2029.25 583.135 2029.25 569.625C2029.25 556.115 2039.87 545.5 2053.38 545.5C2066.88 545.5 2077.5 556.115 2077.5 569.625C2077.5 583.135 2066.88 593.75 2053.38 593.75ZM2198.12 593.75C2184.61 593.75 2174 583.135 2174 569.625C2174 556.115 2184.61 545.5 2198.12 545.5C2211.63 545.5 2222.25 556.115 2222.25 569.625C2222.25 583.135 2211.63 593.75 2198.12 593.75ZM2391.12 593.75C2377.62 593.75 2367 583.135 2367 569.625C2367 556.115 2377.62 545.5 2391.12 545.5C2404.63 545.5 2415.25 556.115 2415.25 569.625C2415.25 583.135 2404.63 593.75 2391.12 593.75ZM2149.88 593.75C2136.37 593.75 2125.75 583.135 2125.75 569.625C2125.75 556.115 2136.37 545.5 2149.88 545.5C2163.38 545.5 2174 556.115 2174 569.625C2174 583.135 2163.38 593.75 2149.88 593.75ZM2005.12 593.75C1991.61 593.75 1981 583.135 1981 569.625C1981 556.115 1991.61 545.5 2005.12 545.5C2018.63 545.5 2029.25 556.115 2029.25 569.625C2029.25 583.135 2018.63 593.75 2005.12 593.75ZM2101.62 593.75C2088.12 593.75 2077.5 583.135 2077.5 569.625C2077.5 556.115 2088.12 545.5 2101.62 545.5C2115.13 545.5 2125.75 556.115 2125.75 569.625C2125.75 583.135 2115.13 593.75 2101.62 593.75ZM2149.88 642C2136.37 642 2125.75 631.385 2125.75 617.875C2125.75 604.365 2136.37 593.75 2149.88 593.75C2163.38 593.75 2174 604.365 2174 617.875C2174 631.385 2163.38 642 2149.88 642ZM2005.12 642C1991.61 642 1981 631.385 1981 617.875C1981 604.365 1991.61 593.75 2005.12 593.75C2018.63 593.75 2029.25 604.365 2029.25 617.875C2029.25 631.385 2018.63 642 2005.12 642ZM2053.38 642C2039.87 642 2029.25 631.385 2029.25 617.875C2029.25 604.365 2039.87 593.75 2053.38 593.75C2066.88 593.75 2077.5 604.365 2077.5 617.875C2077.5 631.385 2066.88 642 2053.38 642ZM2101.62 642C2088.12 642 2077.5 631.385 2077.5 617.875C2077.5 604.365 2088.12 593.75 2101.62 593.75C2115.13 593.75 2125.75 604.365 2125.75 617.875C2125.75 631.385 2115.13 642 2101.62 642ZM2005.12 690.25C1991.61 690.25 1981 679.635 1981 666.125C1981 652.615 1991.61 642 2005.12 642C2018.63 642 2029.25 652.615 2029.25 666.125C2029.25 679.635 2018.63 690.25 2005.12 690.25ZM2149.88 690.25C2136.37 690.25 2125.75 679.635 2125.75 666.125C2125.75 652.615 2136.37 642 2149.88 642C2163.38 642 2174 652.615 2174 666.125C2174 679.635 2163.38 690.25 2149.88 690.25ZM2101.62 690.25C2088.12 690.25 2077.5 679.635 2077.5 666.125C2077.5 652.615 2088.12 642 2101.62 642C2115.13 642 2125.75 652.615 2125.75 666.125C2125.75 679.635 2115.13 690.25 2101.62 690.25ZM2053.38 690.25C2039.87 690.25 2029.25 679.635 2029.25 666.125C2029.25 652.615 2039.87 642 2053.38 642C2066.88 642 2077.5 652.615 2077.5 666.125C2077.5 679.635 2066.88 690.25 2053.38 690.25Z" fill="#F6E4FF"/>
<path d="M2777.12 111.25C2763.62 111.25 2753 100.635 2753 87.125C2753 73.615 2763.62 63 2777.12 63C2790.63 63 2801.25 73.615 2801.25 87.125C2801.25 100.635 2790.63 111.25 2777.12 111.25ZM2728.88 111.25C2715.37 111.25 2704.75 100.635 2704.75 87.125C2704.75 73.615 2715.37 63 2728.88 63C2742.38 63 2753 73.615 2753 87.125C2753 100.635 2742.38 111.25 2728.88 111.25ZM2680.62 111.25C2667.12 111.25 2656.5 100.635 2656.5 87.125C2656.5 73.615 2667.12 63 2680.62 63C2694.13 63 2704.75 73.615 2704.75 87.125C2704.75 100.635 2694.13 111.25 2680.62 111.25ZM2632.38 111.25C2618.86 111.25 2608.25 100.635 2608.25 87.125C2608.25 73.615 2618.86 63 2632.38 63C2645.88 63 2656.5 73.615 2656.5 87.125C2656.5 100.635 2645.88 111.25 2632.38 111.25ZM2632.38 159.5C2618.86 159.5 2608.25 148.885 2608.25 135.375C2608.25 121.865 2618.86 111.25 2632.38 111.25C2645.88 111.25 2656.5 121.865 2656.5 135.375C2656.5 148.885 2645.88 159.5 2632.38 159.5ZM2680.62 159.5C2667.12 159.5 2656.5 148.885 2656.5 135.375C2656.5 121.865 2667.12 111.25 2680.62 111.25C2694.13 111.25 2704.75 121.865 2704.75 135.375C2704.75 148.885 2694.13 159.5 2680.62 159.5ZM2728.88 159.5C2715.37 159.5 2704.75 148.885 2704.75 135.375C2704.75 121.865 2715.37 111.25 2728.88 111.25C2742.38 111.25 2753 121.865 2753 135.375C2753 148.885 2742.38 159.5 2728.88 159.5ZM2777.12 159.5C2763.62 159.5 2753 148.885 2753 135.375C2753 121.865 2763.62 111.25 2777.12 111.25C2790.63 111.25 2801.25 121.865 2801.25 135.375C2801.25 148.885 2790.63 159.5 2777.12 159.5ZM2680.62 207.75C2667.12 207.75 2656.5 197.135 2656.5 183.625C2656.5 170.115 2667.12 159.5 2680.62 159.5C2694.13 159.5 2704.75 170.115 2704.75 183.625C2704.75 197.135 2694.13 207.75 2680.62 207.75ZM2728.88 207.75C2715.37 207.75 2704.75 197.135 2704.75 183.625C2704.75 170.115 2715.37 159.5 2728.88 159.5C2742.38 159.5 2753 170.115 2753 183.625C2753 197.135 2742.38 207.75 2728.88 207.75ZM2777.12 207.75C2763.62 207.75 2753 197.135 2753 183.625C2753 170.115 2763.62 159.5 2777.12 159.5C2790.63 159.5 2801.25 170.115 2801.25 183.625C2801.25 197.135 2790.63 207.75 2777.12 207.75ZM2632.38 207.75C2618.86 207.75 2608.25 197.135 2608.25 183.625C2608.25 170.115 2618.86 159.5 2632.38 159.5C2645.88 159.5 2656.5 170.115 2656.5 183.625C2656.5 197.135 2645.88 207.75 2632.38 207.75ZM2777.12 256C2763.62 256 2753 245.385 2753 231.875C2753 218.365 2763.62 207.75 2777.12 207.75C2790.63 207.75 2801.25 218.365 2801.25 231.875C2801.25 245.385 2790.63 256 2777.12 256ZM2632.38 256C2618.86 256 2608.25 245.385 2608.25 231.875C2608.25 218.365 2618.86 207.75 2632.38 207.75C2645.88 207.75 2656.5 218.365 2656.5 231.875C2656.5 245.385 2645.88 256 2632.38 256ZM2680.62 256C2667.12 256 2656.5 245.385 2656.5 231.875C2656.5 218.365 2667.12 207.75 2680.62 207.75C2694.13 207.75 2704.75 218.365 2704.75 231.875C2704.75 245.385 2694.13 256 2680.62 256ZM2728.88 256C2715.37 256 2704.75 245.385 2704.75 231.875C2704.75 218.365 2715.37 207.75 2728.88 207.75C2742.38 207.75 2753 218.365 2753 231.875C2753 245.385 2742.38 256 2728.88 256ZM2680.62 304.25C2667.12 304.25 2656.5 293.635 2656.5 280.125C2656.5 266.615 2667.12 256 2680.62 256C2694.13 256 2704.75 266.615 2704.75 280.125C2704.75 293.635 2694.13 304.25 2680.62 304.25ZM2777.12 304.25C2763.62 304.25 2753 293.635 2753 280.125C2753 266.615 2763.62 256 2777.12 256C2790.63 256 2801.25 266.615 2801.25 280.125C2801.25 293.635 2790.63 304.25 2777.12 304.25ZM2632.38 304.25C2618.86 304.25 2608.25 293.635 2608.25 280.125C2608.25 266.615 2618.86 256 2632.38 256C2645.88 256 2656.5 266.615 2656.5 280.125C2656.5 293.635 2645.88 304.25 2632.38 304.25ZM2728.88 304.25C2715.37 304.25 2704.75 293.635 2704.75 280.125C2704.75 266.615 2715.37 256 2728.88 256C2742.38 256 2753 266.615 2753 280.125C2753 293.635 2742.38 304.25 2728.88 304.25ZM2777.12 352.5C2763.62 352.5 2753 341.885 2753 328.375C2753 314.865 2763.62 304.25 2777.12 304.25C2790.63 304.25 2801.25 314.865 2801.25 328.375C2801.25 341.885 2790.63 352.5 2777.12 352.5ZM2632.38 352.5C2618.86 352.5 2608.25 341.885 2608.25 328.375C2608.25 314.865 2618.86 304.25 2632.38 304.25C2645.88 304.25 2656.5 314.865 2656.5 328.375C2656.5 341.885 2645.88 352.5 2632.38 352.5ZM2680.62 352.5C2667.12 352.5 2656.5 341.885 2656.5 328.375C2656.5 314.865 2667.12 304.25 2680.62 304.25C2694.13 304.25 2704.75 314.865 2704.75 328.375C2704.75 341.885 2694.13 352.5 2680.62 352.5ZM2728.88 352.5C2715.37 352.5 2704.75 341.885 2704.75 328.375C2704.75 314.865 2715.37 304.25 2728.88 304.25C2742.38 304.25 2753 314.865 2753 328.375C2753 341.885 2742.38 352.5 2728.88 352.5ZM2632.38 400.75C2618.86 400.75 2608.25 390.135 2608.25 376.625C2608.25 363.115 2618.86 352.5 2632.38 352.5C2645.88 352.5 2656.5 363.115 2656.5 376.625C2656.5 390.135 2645.88 400.75 2632.38 400.75ZM2777.12 400.75C2763.62 400.75 2753 390.135 2753 376.625C2753 363.115 2763.62 352.5 2777.12 352.5C2790.63 352.5 2801.25 363.115 2801.25 376.625C2801.25 390.135 2790.63 400.75 2777.12 400.75ZM2680.62 400.75C2667.12 400.75 2656.5 390.135 2656.5 376.625C2656.5 363.115 2667.12 352.5 2680.62 352.5C2694.13 352.5 2704.75 363.115 2704.75 376.625C2704.75 390.135 2694.13 400.75 2680.62 400.75ZM2728.88 400.75C2715.37 400.75 2704.75 390.135 2704.75 376.625C2704.75 363.115 2715.37 352.5 2728.88 352.5C2742.38 352.5 2753 363.115 2753 376.625C2753 390.135 2742.38 400.75 2728.88 400.75ZM2632.38 449C2618.86 449 2608.25 438.385 2608.25 424.875C2608.25 411.365 2618.86 400.75 2632.38 400.75C2645.88 400.75 2656.5 411.365 2656.5 424.875C2656.5 438.385 2645.88 449 2632.38 449ZM2777.12 449C2763.62 449 2753 438.385 2753 424.875C2753 411.365 2763.62 400.75 2777.12 400.75C2790.63 400.75 2801.25 411.365 2801.25 424.875C2801.25 438.385 2790.63 449 2777.12 449ZM2680.62 449C2667.12 449 2656.5 438.385 2656.5 424.875C2656.5 411.365 2667.12 400.75 2680.62 400.75C2694.13 400.75 2704.75 411.365 2704.75 424.875C2704.75 438.385 2694.13 449 2680.62 449ZM2728.88 449C2715.37 449 2704.75 438.385 2704.75 424.875C2704.75 411.365 2715.37 400.75 2728.88 400.75C2742.38 400.75 2753 411.365 2753 424.875C2753 438.385 2742.38 449 2728.88 449ZM2728.88 497.25C2715.37 497.25 2704.75 486.635 2704.75 473.125C2704.75 459.615 2715.37 449 2728.88 449C2742.38 449 2753 459.615 2753 473.125C2753 486.635 2742.38 497.25 2728.88 497.25ZM2680.62 497.25C2667.12 497.25 2656.5 486.635 2656.5 473.125C2656.5 459.615 2667.12 449 2680.62 449C2694.13 449 2704.75 459.615 2704.75 473.125C2704.75 486.635 2694.13 497.25 2680.62 497.25ZM2777.12 497.25C2763.62 497.25 2753 486.635 2753 473.125C2753 459.615 2763.62 449 2777.12 449C2790.63 449 2801.25 459.615 2801.25 473.125C2801.25 486.635 2790.63 497.25 2777.12 497.25ZM2632.38 497.25C2618.86 497.25 2608.25 486.635 2608.25 473.125C2608.25 459.615 2618.86 449 2632.38 449C2645.88 449 2656.5 459.615 2656.5 473.125C2656.5 486.635 2645.88 497.25 2632.38 497.25ZM2728.88 545.5C2715.37 545.5 2704.75 534.885 2704.75 521.375C2704.75 507.865 2715.37 497.25 2728.88 497.25C2742.38 497.25 2753 507.865 2753 521.375C2753 534.885 2742.38 545.5 2728.88 545.5ZM2680.62 545.5C2667.12 545.5 2656.5 534.885 2656.5 521.375C2656.5 507.865 2667.12 497.25 2680.62 497.25C2694.13 497.25 2704.75 507.865 2704.75 521.375C2704.75 534.885 2694.13 545.5 2680.62 545.5ZM2777.12 545.5C2763.62 545.5 2753 534.885 2753 521.375C2753 507.865 2763.62 497.25 2777.12 497.25C2790.63 497.25 2801.25 507.865 2801.25 521.375C2801.25 534.885 2790.63 545.5 2777.12 545.5ZM2632.38 545.5C2618.86 545.5 2608.25 534.885 2608.25 521.375C2608.25 507.865 2618.86 497.25 2632.38 497.25C2645.88 497.25 2656.5 507.865 2656.5 521.375C2656.5 534.885 2645.88 545.5 2632.38 545.5ZM2777.12 593.75C2763.62 593.75 2753 583.135 2753 569.625C2753 556.115 2763.62 545.5 2777.12 545.5C2790.63 545.5 2801.25 556.115 2801.25 569.625C2801.25 583.135 2790.63 593.75 2777.12 593.75ZM2632.38 593.75C2618.86 593.75 2608.25 583.135 2608.25 569.625C2608.25 556.115 2618.86 545.5 2632.38 545.5C2645.88 545.5 2656.5 556.115 2656.5 569.625C2656.5 583.135 2645.88 593.75 2632.38 593.75ZM2680.62 593.75C2667.12 593.75 2656.5 583.135 2656.5 569.625C2656.5 556.115 2667.12 545.5 2680.62 545.5C2694.13 545.5 2704.75 556.115 2704.75 569.625C2704.75 583.135 2694.13 593.75 2680.62 593.75ZM2728.88 593.75C2715.37 593.75 2704.75 583.135 2704.75 569.625C2704.75 556.115 2715.37 545.5 2728.88 545.5C2742.38 545.5 2753 556.115 2753 569.625C2753 583.135 2742.38 593.75 2728.88 593.75Z" fill="#F6E4FF"/>
<path d="M3066.62 159.5C3053.11 159.5 3042.5 148.885 3042.5 135.375C3042.5 121.865 3053.11 111.25 3066.62 111.25C3080.13 111.25 3090.75 121.865 3090.75 135.375C3090.75 148.885 3080.13 159.5 3066.62 159.5ZM3018.38 159.5C3004.87 159.5 2994.25 148.885 2994.25 135.375C2994.25 121.865 3004.87 111.25 3018.38 111.25C3031.88 111.25 3042.5 121.865 3042.5 135.375C3042.5 148.885 3031.88 159.5 3018.38 159.5ZM2970.12 159.5C2956.62 159.5 2946 148.885 2946 135.375C2946 121.865 2956.62 111.25 2970.12 111.25C2983.63 111.25 2994.25 121.865 2994.25 135.375C2994.25 148.885 2983.63 159.5 2970.12 159.5ZM3066.62 207.75C3053.11 207.75 3042.5 197.135 3042.5 183.625C3042.5 170.115 3053.11 159.5 3066.62 159.5C3080.13 159.5 3090.75 170.115 3090.75 183.625C3090.75 197.135 3080.13 207.75 3066.62 207.75ZM2921.88 207.75C2908.37 207.75 2897.75 197.135 2897.75 183.625C2897.75 170.115 2908.37 159.5 2921.88 159.5C2935.38 159.5 2946 170.115 2946 183.625C2946 197.135 2935.38 207.75 2921.88 207.75ZM3018.38 207.75C3004.87 207.75 2994.25 197.135 2994.25 183.625C2994.25 170.115 3004.87 159.5 3018.38 159.5C3031.88 159.5 3042.5 170.115 3042.5 183.625C3042.5 197.135 3031.88 207.75 3018.38 207.75ZM2970.12 207.75C2956.62 207.75 2946 197.135 2946 183.625C2946 170.115 2956.62 159.5 2970.12 159.5C2983.63 159.5 2994.25 170.115 2994.25 183.625C2994.25 197.135 2983.63 207.75 2970.12 207.75ZM3211.38 256C3197.86 256 3187.25 245.385 3187.25 231.875C3187.25 218.365 3197.86 207.75 3211.38 207.75C3224.88 207.75 3235.5 218.365 3235.5 231.875C3235.5 245.385 3224.88 256 3211.38 256ZM2921.88 256C2908.37 256 2897.75 245.385 2897.75 231.875C2897.75 218.365 2908.37 207.75 2921.88 207.75C2935.38 207.75 2946 218.365 2946 231.875C2946 245.385 2935.38 256 2921.88 256ZM2970.12 256C2956.62 256 2946 245.385 2946 231.875C2946 218.365 2956.62 207.75 2970.12 207.75C2983.63 207.75 2994.25 218.365 2994.25 231.875C2994.25 245.385 2983.63 256 2970.12 256ZM3018.38 256C3004.87 256 2994.25 245.385 2994.25 231.875C2994.25 218.365 3004.87 207.75 3018.38 207.75C3031.88 207.75 3042.5 218.365 3042.5 231.875C3042.5 245.385 3031.88 256 3018.38 256ZM2873.62 256C2860.11 256 2849.5 245.385 2849.5 231.875C2849.5 218.365 2860.11 207.75 2873.62 207.75C2887.13 207.75 2897.75 218.365 2897.75 231.875C2897.75 245.385 2887.13 256 2873.62 256ZM3163.12 256C3149.61 256 3139 245.385 3139 231.875C3139 218.365 3149.61 207.75 3163.12 207.75C3176.63 207.75 3187.25 218.365 3187.25 231.875C3187.25 245.385 3176.63 256 3163.12 256ZM3114.88 256C3101.36 256 3090.75 245.385 3090.75 231.875C3090.75 218.365 3101.36 207.75 3114.88 207.75C3128.38 207.75 3139 218.365 3139 231.875C3139 245.385 3128.38 256 3114.88 256ZM3066.62 256C3053.11 256 3042.5 245.385 3042.5 231.875C3042.5 218.365 3053.11 207.75 3066.62 207.75C3080.13 207.75 3090.75 218.365 3090.75 231.875C3090.75 245.385 3080.13 256 3066.62 256ZM3163.12 304.25C3149.61 304.25 3139 293.635 3139 280.125C3139 266.615 3149.61 256 3163.12 256C3176.63 256 3187.25 266.615 3187.25 280.125C3187.25 293.635 3176.63 304.25 3163.12 304.25ZM3114.88 304.25C3101.36 304.25 3090.75 293.635 3090.75 280.125C3090.75 266.615 3101.36 256 3114.88 256C3128.38 256 3139 266.615 3139 280.125C3139 293.635 3128.38 304.25 3114.88 304.25ZM2921.88 304.25C2908.37 304.25 2897.75 293.635 2897.75 280.125C2897.75 266.615 2908.37 256 2921.88 256C2935.38 256 2946 266.615 2946 280.125C2946 293.635 2935.38 304.25 2921.88 304.25ZM2873.62 304.25C2860.11 304.25 2849.5 293.635 2849.5 280.125C2849.5 266.615 2860.11 256 2873.62 256C2887.13 256 2897.75 266.615 2897.75 280.125C2897.75 293.635 2887.13 304.25 2873.62 304.25ZM3066.62 304.25C3053.11 304.25 3042.5 293.635 3042.5 280.125C3042.5 266.615 3053.11 256 3066.62 256C3080.13 256 3090.75 266.615 3090.75 280.125C3090.75 293.635 3080.13 304.25 3066.62 304.25ZM2970.12 304.25C2956.62 304.25 2946 293.635 2946 280.125C2946 266.615 2956.62 256 2970.12 256C2983.63 256 2994.25 266.615 2994.25 280.125C2994.25 293.635 2983.63 304.25 2970.12 304.25ZM2825.38 304.25C2811.87 304.25 2801.25 293.635 2801.25 280.125C2801.25 266.615 2811.87 256 2825.38 256C2838.89 256 2849.5 266.615 2849.5 280.125C2849.5 293.635 2838.89 304.25 2825.38 304.25ZM3018.38 304.25C3004.87 304.25 2994.25 293.635 2994.25 280.125C2994.25 266.615 3004.87 256 3018.38 256C3031.88 256 3042.5 266.615 3042.5 280.125C3042.5 293.635 3031.88 304.25 3018.38 304.25ZM3066.62 352.5C3053.11 352.5 3042.5 341.885 3042.5 328.375C3042.5 314.865 3053.11 304.25 3066.62 304.25C3080.13 304.25 3090.75 314.865 3090.75 328.375C3090.75 341.885 3080.13 352.5 3066.62 352.5ZM3018.38 352.5C3004.87 352.5 2994.25 341.885 2994.25 328.375C2994.25 314.865 3004.87 304.25 3018.38 304.25C3031.88 304.25 3042.5 314.865 3042.5 328.375C3042.5 341.885 3031.88 352.5 3018.38 352.5ZM2970.12 352.5C2956.62 352.5 2946 341.885 2946 328.375C2946 314.865 2956.62 304.25 2970.12 304.25C2983.63 304.25 2994.25 314.865 2994.25 328.375C2994.25 341.885 2983.63 352.5 2970.12 352.5ZM2921.88 352.5C2908.37 352.5 2897.75 341.885 2897.75 328.375C2897.75 314.865 2908.37 304.25 2921.88 304.25C2935.38 304.25 2946 314.865 2946 328.375C2946 341.885 2935.38 352.5 2921.88 352.5ZM2921.88 400.75C2908.37 400.75 2897.75 390.135 2897.75 376.625C2897.75 363.115 2908.37 352.5 2921.88 352.5C2935.38 352.5 2946 363.115 2946 376.625C2946 390.135 2935.38 400.75 2921.88 400.75ZM2970.12 400.75C2956.62 400.75 2946 390.135 2946 376.625C2946 363.115 2956.62 352.5 2970.12 352.5C2983.63 352.5 2994.25 363.115 2994.25 376.625C2994.25 390.135 2983.63 400.75 2970.12 400.75ZM3018.38 400.75C3004.87 400.75 2994.25 390.135 2994.25 376.625C2994.25 363.115 3004.87 352.5 3018.38 352.5C3031.88 352.5 3042.5 363.115 3042.5 376.625C3042.5 390.135 3031.88 400.75 3018.38 400.75ZM3066.62 400.75C3053.11 400.75 3042.5 390.135 3042.5 376.625C3042.5 363.115 3053.11 352.5 3066.62 352.5C3080.13 352.5 3090.75 363.115 3090.75 376.625C3090.75 390.135 3080.13 400.75 3066.62 400.75ZM3018.38 449C3004.87 449 2994.25 438.385 2994.25 424.875C2994.25 411.365 3004.87 400.75 3018.38 400.75C3031.88 400.75 3042.5 411.365 3042.5 424.875C3042.5 438.385 3031.88 449 3018.38 449ZM3066.62 449C3053.11 449 3042.5 438.385 3042.5 424.875C3042.5 411.365 3053.11 400.75 3066.62 400.75C3080.13 400.75 3090.75 411.365 3090.75 424.875C3090.75 438.385 3080.13 449 3066.62 449ZM2921.88 449C2908.37 449 2897.75 438.385 2897.75 424.875C2897.75 411.365 2908.37 400.75 2921.88 400.75C2935.38 400.75 2946 411.365 2946 424.875C2946 438.385 2935.38 449 2921.88 449ZM2970.12 449C2956.62 449 2946 438.385 2946 424.875C2946 411.365 2956.62 400.75 2970.12 400.75C2983.63 400.75 2994.25 411.365 2994.25 424.875C2994.25 438.385 2983.63 449 2970.12 449ZM3066.62 497.25C3053.11 497.25 3042.5 486.635 3042.5 473.125C3042.5 459.615 3053.11 449 3066.62 449C3080.13 449 3090.75 459.615 3090.75 473.125C3090.75 486.635 3080.13 497.25 3066.62 497.25ZM3018.38 497.25C3004.87 497.25 2994.25 486.635 2994.25 473.125C2994.25 459.615 3004.87 449 3018.38 449C3031.88 449 3042.5 459.615 3042.5 473.125C3042.5 486.635 3031.88 497.25 3018.38 497.25ZM2921.88 497.25C2908.37 497.25 2897.75 486.635 2897.75 473.125C2897.75 459.615 2908.37 449 2921.88 449C2935.38 449 2946 459.615 2946 473.125C2946 486.635 2935.38 497.25 2921.88 497.25ZM2970.12 497.25C2956.62 497.25 2946 486.635 2946 473.125C2946 459.615 2956.62 449 2970.12 449C2983.63 449 2994.25 459.615 2994.25 473.125C2994.25 486.635 2983.63 497.25 2970.12 497.25ZM3163.12 545.5C3149.61 545.5 3139 534.885 3139 521.375C3139 507.865 3149.61 497.25 3163.12 497.25C3176.63 497.25 3187.25 507.865 3187.25 521.375C3187.25 534.885 3176.63 545.5 3163.12 545.5ZM3114.88 545.5C3101.36 545.5 3090.75 534.885 3090.75 521.375C3090.75 507.865 3101.36 497.25 3114.88 497.25C3128.38 497.25 3139 507.865 3139 521.375C3139 534.885 3128.38 545.5 3114.88 545.5ZM3066.62 545.5C3053.11 545.5 3042.5 534.885 3042.5 521.375C3042.5 507.865 3053.11 497.25 3066.62 497.25C3080.13 497.25 3090.75 507.865 3090.75 521.375C3090.75 534.885 3080.13 545.5 3066.62 545.5ZM3018.38 545.5C3004.87 545.5 2994.25 534.885 2994.25 521.375C2994.25 507.865 3004.87 497.25 3018.38 497.25C3031.88 497.25 3042.5 507.865 3042.5 521.375C3042.5 534.885 3031.88 545.5 3018.38 545.5ZM2921.88 545.5C2908.37 545.5 2897.75 534.885 2897.75 521.375C2897.75 507.865 2908.37 497.25 2921.88 497.25C2935.38 497.25 2946 507.865 2946 521.375C2946 534.885 2935.38 545.5 2921.88 545.5ZM2970.12 545.5C2956.62 545.5 2946 534.885 2946 521.375C2946 507.865 2956.62 497.25 2970.12 497.25C2983.63 497.25 2994.25 507.865 2994.25 521.375C2994.25 534.885 2983.63 545.5 2970.12 545.5ZM3211.38 545.5C3197.86 545.5 3187.25 534.885 3187.25 521.375C3187.25 507.865 3197.86 497.25 3211.38 497.25C3224.88 497.25 3235.5 507.865 3235.5 521.375C3235.5 534.885 3224.88 545.5 3211.38 545.5ZM3114.88 593.75C3101.36 593.75 3090.75 583.135 3090.75 569.625C3090.75 556.115 3101.36 545.5 3114.88 545.5C3128.38 545.5 3139 556.115 3139 569.625C3139 583.135 3128.38 593.75 3114.88 593.75ZM3066.62 593.75C3053.11 593.75 3042.5 583.135 3042.5 569.625C3042.5 556.115 3053.11 545.5 3066.62 545.5C3080.13 545.5 3090.75 556.115 3090.75 569.625C3090.75 583.135 3080.13 593.75 3066.62 593.75ZM3018.38 593.75C3004.87 593.75 2994.25 583.135 2994.25 569.625C2994.25 556.115 3004.87 545.5 3018.38 545.5C3031.88 545.5 3042.5 556.115 3042.5 569.625C3042.5 583.135 3031.88 593.75 3018.38 593.75ZM2970.12 593.75C2956.62 593.75 2946 583.135 2946 569.625C2946 556.115 2956.62 545.5 2970.12 545.5C2983.63 545.5 2994.25 556.115 2994.25 569.625C2994.25 583.135 2983.63 593.75 2970.12 593.75ZM3163.12 593.75C3149.61 593.75 3139 583.135 3139 569.625C3139 556.115 3149.61 545.5 3163.12 545.5C3176.63 545.5 3187.25 556.115 3187.25 569.625C3187.25 583.135 3176.63 593.75 3163.12 593.75Z" fill="#BC2CFF"/>
<path d="M3259.62 256C3246.11 256 3235.5 245.385 3235.5 231.875C3235.5 218.365 3246.11 207.75 3259.62 207.75C3273.13 207.75 3283.75 218.365 3283.75 231.875C3283.75 245.385 3273.13 256 3259.62 256ZM3549.12 256C3535.61 256 3525 245.385 3525 231.875C3525 218.365 3535.61 207.75 3549.12 207.75C3562.63 207.75 3573.25 218.365 3573.25 231.875C3573.25 245.385 3562.63 256 3549.12 256ZM3500.88 256C3487.36 256 3476.75 245.385 3476.75 231.875C3476.75 218.365 3487.36 207.75 3500.88 207.75C3514.38 207.75 3525 218.365 3525 231.875C3525 245.385 3514.38 256 3500.88 256ZM3597.38 256C3583.86 256 3573.25 245.385 3573.25 231.875C3573.25 218.365 3583.86 207.75 3597.38 207.75C3610.88 207.75 3621.5 218.365 3621.5 231.875C3621.5 245.385 3610.88 256 3597.38 256ZM3404.38 256C3390.87 256 3380.25 245.385 3380.25 231.875C3380.25 218.365 3390.87 207.75 3404.38 207.75C3417.88 207.75 3428.5 218.365 3428.5 231.875C3428.5 245.385 3417.88 256 3404.38 256ZM3356.12 256C3342.62 256 3332 245.385 3332 231.875C3332 218.365 3342.62 207.75 3356.12 207.75C3369.63 207.75 3380.25 218.365 3380.25 231.875C3380.25 245.385 3369.63 256 3356.12 256ZM3307.88 256C3294.37 256 3283.75 245.385 3283.75 231.875C3283.75 218.365 3294.37 207.75 3307.88 207.75C3321.38 207.75 3332 218.365 3332 231.875C3332 245.385 3321.38 256 3307.88 256ZM3404.38 304.25C3390.87 304.25 3380.25 293.635 3380.25 280.125C3380.25 266.615 3390.87 256 3404.38 256C3417.88 256 3428.5 266.615 3428.5 280.125C3428.5 293.635 3417.88 304.25 3404.38 304.25ZM3307.88 304.25C3294.37 304.25 3283.75 293.635 3283.75 280.125C3283.75 266.615 3294.37 256 3307.88 256C3321.38 256 3332 266.615 3332 280.125C3332 293.635 3321.38 304.25 3307.88 304.25ZM3597.38 304.25C3583.86 304.25 3573.25 293.635 3573.25 280.125C3573.25 266.615 3583.86 256 3597.38 256C3610.88 256 3621.5 266.615 3621.5 280.125C3621.5 293.635 3610.88 304.25 3597.38 304.25ZM3356.12 304.25C3342.62 304.25 3332 293.635 3332 280.125C3332 266.615 3342.62 256 3356.12 256C3369.63 256 3380.25 266.615 3380.25 280.125C3380.25 293.635 3369.63 304.25 3356.12 304.25ZM3452.62 304.25C3439.11 304.25 3428.5 293.635 3428.5 280.125C3428.5 266.615 3439.11 256 3452.62 256C3466.13 256 3476.75 266.615 3476.75 280.125C3476.75 293.635 3466.13 304.25 3452.62 304.25ZM3259.62 304.25C3246.11 304.25 3235.5 293.635 3235.5 280.125C3235.5 266.615 3246.11 256 3259.62 256C3273.13 256 3283.75 266.615 3283.75 280.125C3283.75 293.635 3273.13 304.25 3259.62 304.25ZM3549.12 304.25C3535.61 304.25 3525 293.635 3525 280.125C3525 266.615 3535.61 256 3549.12 256C3562.63 256 3573.25 266.615 3573.25 280.125C3573.25 293.635 3562.63 304.25 3549.12 304.25ZM3500.88 304.25C3487.36 304.25 3476.75 293.635 3476.75 280.125C3476.75 266.615 3487.36 256 3500.88 256C3514.38 256 3525 266.615 3525 280.125C3525 293.635 3514.38 304.25 3500.88 304.25ZM3307.88 352.5C3294.37 352.5 3283.75 341.885 3283.75 328.375C3283.75 314.865 3294.37 304.25 3307.88 304.25C3321.38 304.25 3332 314.865 3332 328.375C3332 341.885 3321.38 352.5 3307.88 352.5ZM3356.12 352.5C3342.62 352.5 3332 341.885 3332 328.375C3332 314.865 3342.62 304.25 3356.12 304.25C3369.63 304.25 3380.25 314.865 3380.25 328.375C3380.25 341.885 3369.63 352.5 3356.12 352.5ZM3404.38 352.5C3390.87 352.5 3380.25 341.885 3380.25 328.375C3380.25 314.865 3390.87 304.25 3404.38 304.25C3417.88 304.25 3428.5 314.865 3428.5 328.375C3428.5 341.885 3417.88 352.5 3404.38 352.5ZM3597.38 352.5C3583.86 352.5 3573.25 341.885 3573.25 328.375C3573.25 314.865 3583.86 304.25 3597.38 304.25C3610.88 304.25 3621.5 314.865 3621.5 328.375C3621.5 341.885 3610.88 352.5 3597.38 352.5ZM3549.12 352.5C3535.61 352.5 3525 341.885 3525 328.375C3525 314.865 3535.61 304.25 3549.12 304.25C3562.63 304.25 3573.25 314.865 3573.25 328.375C3573.25 341.885 3562.63 352.5 3549.12 352.5ZM3259.62 352.5C3246.11 352.5 3235.5 341.885 3235.5 328.375C3235.5 314.865 3246.11 304.25 3259.62 304.25C3273.13 304.25 3283.75 314.865 3283.75 328.375C3283.75 341.885 3273.13 352.5 3259.62 352.5ZM3452.62 352.5C3439.11 352.5 3428.5 341.885 3428.5 328.375C3428.5 314.865 3439.11 304.25 3452.62 304.25C3466.13 304.25 3476.75 314.865 3476.75 328.375C3476.75 341.885 3466.13 352.5 3452.62 352.5ZM3500.88 352.5C3487.36 352.5 3476.75 341.885 3476.75 328.375C3476.75 314.865 3487.36 304.25 3500.88 304.25C3514.38 304.25 3525 314.865 3525 328.375C3525 341.885 3514.38 352.5 3500.88 352.5ZM3307.88 400.75C3294.37 400.75 3283.75 390.135 3283.75 376.625C3283.75 363.115 3294.37 352.5 3307.88 352.5C3321.38 352.5 3332 363.115 3332 376.625C3332 390.135 3321.38 400.75 3307.88 400.75ZM3356.12 400.75C3342.62 400.75 3332 390.135 3332 376.625C3332 363.115 3342.62 352.5 3356.12 352.5C3369.63 352.5 3380.25 363.115 3380.25 376.625C3380.25 390.135 3369.63 400.75 3356.12 400.75ZM3259.62 400.75C3246.11 400.75 3235.5 390.135 3235.5 376.625C3235.5 363.115 3246.11 352.5 3259.62 352.5C3273.13 352.5 3283.75 363.115 3283.75 376.625C3283.75 390.135 3273.13 400.75 3259.62 400.75ZM3404.38 400.75C3390.87 400.75 3380.25 390.135 3380.25 376.625C3380.25 363.115 3390.87 352.5 3404.38 352.5C3417.88 352.5 3428.5 363.115 3428.5 376.625C3428.5 390.135 3417.88 400.75 3404.38 400.75ZM3452.62 400.75C3439.11 400.75 3428.5 390.135 3428.5 376.625C3428.5 363.115 3439.11 352.5 3452.62 352.5C3466.13 352.5 3476.75 363.115 3476.75 376.625C3476.75 390.135 3466.13 400.75 3452.62 400.75ZM3404.38 449C3390.87 449 3380.25 438.385 3380.25 424.875C3380.25 411.365 3390.87 400.75 3404.38 400.75C3417.88 400.75 3428.5 411.365 3428.5 424.875C3428.5 438.385 3417.88 449 3404.38 449ZM3356.12 449C3342.62 449 3332 438.385 3332 424.875C3332 411.365 3342.62 400.75 3356.12 400.75C3369.63 400.75 3380.25 411.365 3380.25 424.875C3380.25 438.385 3369.63 449 3356.12 449ZM3307.88 449C3294.37 449 3283.75 438.385 3283.75 424.875C3283.75 411.365 3294.37 400.75 3307.88 400.75C3321.38 400.75 3332 411.365 3332 424.875C3332 438.385 3321.38 449 3307.88 449ZM3259.62 449C3246.11 449 3235.5 438.385 3235.5 424.875C3235.5 411.365 3246.11 400.75 3259.62 400.75C3273.13 400.75 3283.75 411.365 3283.75 424.875C3283.75 438.385 3273.13 449 3259.62 449ZM3307.88 497.25C3294.37 497.25 3283.75 486.635 3283.75 473.125C3283.75 459.615 3294.37 449 3307.88 449C3321.38 449 3332 459.615 3332 473.125C3332 486.635 3321.38 497.25 3307.88 497.25ZM3356.12 497.25C3342.62 497.25 3332 486.635 3332 473.125C3332 459.615 3342.62 449 3356.12 449C3369.63 449 3380.25 459.615 3380.25 473.125C3380.25 486.635 3369.63 497.25 3356.12 497.25ZM3259.62 497.25C3246.11 497.25 3235.5 486.635 3235.5 473.125C3235.5 459.615 3246.11 449 3259.62 449C3273.13 449 3283.75 459.615 3283.75 473.125C3283.75 486.635 3273.13 497.25 3259.62 497.25ZM3404.38 497.25C3390.87 497.25 3380.25 486.635 3380.25 473.125C3380.25 459.615 3390.87 449 3404.38 449C3417.88 449 3428.5 459.615 3428.5 473.125C3428.5 486.635 3417.88 497.25 3404.38 497.25ZM3404.38 545.5C3390.87 545.5 3380.25 534.885 3380.25 521.375C3380.25 507.865 3390.87 497.25 3404.38 497.25C3417.88 497.25 3428.5 507.865 3428.5 521.375C3428.5 534.885 3417.88 545.5 3404.38 545.5ZM3356.12 545.5C3342.62 545.5 3332 534.885 3332 521.375C3332 507.865 3342.62 497.25 3356.12 497.25C3369.63 497.25 3380.25 507.865 3380.25 521.375C3380.25 534.885 3369.63 545.5 3356.12 545.5ZM3259.62 545.5C3246.11 545.5 3235.5 534.885 3235.5 521.375C3235.5 507.865 3246.11 497.25 3259.62 497.25C3273.13 497.25 3283.75 507.865 3283.75 521.375C3283.75 534.885 3273.13 545.5 3259.62 545.5ZM3307.88 545.5C3294.37 545.5 3283.75 534.885 3283.75 521.375C3283.75 507.865 3294.37 497.25 3307.88 497.25C3321.38 497.25 3332 507.865 3332 521.375C3332 534.885 3321.38 545.5 3307.88 545.5ZM3404.38 593.75C3390.87 593.75 3380.25 583.135 3380.25 569.625C3380.25 556.115 3390.87 545.5 3404.38 545.5C3417.88 545.5 3428.5 556.115 3428.5 569.625C3428.5 583.135 3417.88 593.75 3404.38 593.75ZM3356.12 593.75C3342.62 593.75 3332 583.135 3332 569.625C3332 556.115 3342.62 545.5 3356.12 545.5C3369.63 545.5 3380.25 556.115 3380.25 569.625C3380.25 583.135 3369.63 593.75 3356.12 593.75ZM3307.88 593.75C3294.37 593.75 3283.75 583.135 3283.75 569.625C3283.75 556.115 3294.37 545.5 3307.88 545.5C3321.38 545.5 3332 556.115 3332 569.625C3332 583.135 3321.38 593.75 3307.88 593.75ZM3259.62 593.75C3246.11 593.75 3235.5 583.135 3235.5 569.625C3235.5 556.115 3246.11 545.5 3259.62 545.5C3273.13 545.5 3283.75 556.115 3283.75 569.625C3283.75 583.135 3273.13 593.75 3259.62 593.75Z" fill="#F6E4FF"/>
<path d="M3597.38 449C3583.86 449 3573.25 438.385 3573.25 424.875C3573.25 411.365 3583.86 400.75 3597.38 400.75C3610.88 400.75 3621.5 411.365 3621.5 424.875C3621.5 438.385 3610.88 449 3597.38 449ZM3693.88 449C3680.37 449 3669.75 438.385 3669.75 424.875C3669.75 411.365 3680.37 400.75 3693.88 400.75C3707.38 400.75 3718 411.365 3718 424.875C3718 438.385 3707.38 449 3693.88 449ZM3645.62 449C3632.12 449 3621.5 438.385 3621.5 424.875C3621.5 411.365 3632.12 400.75 3645.62 400.75C3659.13 400.75 3669.75 411.365 3669.75 424.875C3669.75 438.385 3659.13 449 3645.62 449ZM3742.12 449C3728.62 449 3718 438.385 3718 424.875C3718 411.365 3728.62 400.75 3742.12 400.75C3755.63 400.75 3766.25 411.365 3766.25 424.875C3766.25 438.385 3755.63 449 3742.12 449ZM3597.38 497.25C3583.86 497.25 3573.25 486.635 3573.25 473.125C3573.25 459.615 3583.86 449 3597.38 449C3610.88 449 3621.5 459.615 3621.5 473.125C3621.5 486.635 3610.88 497.25 3597.38 497.25ZM3645.62 497.25C3632.12 497.25 3621.5 486.635 3621.5 473.125C3621.5 459.615 3632.12 449 3645.62 449C3659.13 449 3669.75 459.615 3669.75 473.125C3669.75 486.635 3659.13 497.25 3645.62 497.25ZM3693.88 497.25C3680.37 497.25 3669.75 486.635 3669.75 473.125C3669.75 459.615 3680.37 449 3693.88 449C3707.38 449 3718 459.615 3718 473.125C3718 486.635 3707.38 497.25 3693.88 497.25ZM3742.12 497.25C3728.62 497.25 3718 486.635 3718 473.125C3718 459.615 3728.62 449 3742.12 449C3755.63 449 3766.25 459.615 3766.25 473.125C3766.25 486.635 3755.63 497.25 3742.12 497.25ZM3597.38 545.5C3583.86 545.5 3573.25 534.885 3573.25 521.375C3573.25 507.865 3583.86 497.25 3597.38 497.25C3610.88 497.25 3621.5 507.865 3621.5 521.375C3621.5 534.885 3610.88 545.5 3597.38 545.5ZM3645.62 545.5C3632.12 545.5 3621.5 534.885 3621.5 521.375C3621.5 507.865 3632.12 497.25 3645.62 497.25C3659.13 497.25 3669.75 507.865 3669.75 521.375C3669.75 534.885 3659.13 545.5 3645.62 545.5ZM3693.88 545.5C3680.37 545.5 3669.75 534.885 3669.75 521.375C3669.75 507.865 3680.37 497.25 3693.88 497.25C3707.38 497.25 3718 507.865 3718 521.375C3718 534.885 3707.38 545.5 3693.88 545.5ZM3742.12 545.5C3728.62 545.5 3718 534.885 3718 521.375C3718 507.865 3728.62 497.25 3742.12 497.25C3755.63 497.25 3766.25 507.865 3766.25 521.375C3766.25 534.885 3755.63 545.5 3742.12 545.5ZM3597.38 593.75C3583.86 593.75 3573.25 583.135 3573.25 569.625C3573.25 556.115 3583.86 545.5 3597.38 545.5C3610.88 545.5 3621.5 556.115 3621.5 569.625C3621.5 583.135 3610.88 593.75 3597.38 593.75ZM3645.62 593.75C3632.12 593.75 3621.5 583.135 3621.5 569.625C3621.5 556.115 3632.12 545.5 3645.62 545.5C3659.13 545.5 3669.75 556.115 3669.75 569.625C3669.75 583.135 3659.13 593.75 3645.62 593.75ZM3693.88 593.75C3680.37 593.75 3669.75 583.135 3669.75 569.625C3669.75 556.115 3680.37 545.5 3693.88 545.5C3707.38 545.5 3718 556.115 3718 569.625C3718 583.135 3707.38 593.75 3693.88 593.75ZM3742.12 593.75C3728.62 593.75 3718 583.135 3718 569.625C3718 556.115 3728.62 545.5 3742.12 545.5C3755.63 545.5 3766.25 556.115 3766.25 569.625C3766.25 583.135 3755.63 593.75 3742.12 593.75Z" fill="#BC2CFF"/>
</svg>
