<svg width="175" height="32" viewBox="0 0 175 32" fill="none" xmlns="http://www.w3.org/2000/svg">
<path d="M5.51776 2.75263C5.51776 4.27286 4.28256 5.50525 2.75888 5.50525C1.23519 5.50525 0 4.27286 0 2.75263C0 1.23239 1.23519 0 2.75888 0C4.28256 0 5.51776 1.23239 5.51776 2.75263Z" fill="#BC2CFF"/>
<path d="M5.51776 8.25788C5.51776 9.77811 4.28256 11.0105 2.75888 11.0105C1.23519 11.0105 0 9.77811 0 8.25788C0 6.73764 1.23519 5.50525 2.75888 5.50525C4.28256 5.50525 5.51776 6.73764 5.51776 8.25788Z" fill="#BC2CFF"/>
<path d="M5.51776 13.7631C5.51776 15.2834 4.28256 16.5158 2.75888 16.5158C1.23519 16.5158 0 15.2834 0 13.7631C0 12.2429 1.23519 11.0105 2.75888 11.0105C4.28256 11.0105 5.51776 12.2429 5.51776 13.7631Z" fill="#BC2CFF"/>
<path d="M5.51776 19.2684C5.51776 20.7886 4.28256 22.021 2.75888 22.021C1.23519 22.021 0 20.7886 0 19.2684C0 17.7481 1.23519 16.5158 2.75888 16.5158C4.28256 16.5158 5.51776 17.7481 5.51776 19.2684Z" fill="#BC2CFF"/>
<path d="M11.0355 2.75263C11.0355 4.27286 9.80032 5.50525 8.27664 5.50525C6.75295 5.50525 5.51776 4.27286 5.51776 2.75263C5.51776 1.23239 6.75295 0 8.27664 0C9.80032 0 11.0355 1.23239 11.0355 2.75263Z" fill="#BC2CFF"/>
<path d="M11.0355 8.25788C11.0355 9.77811 9.80032 11.0105 8.27664 11.0105C6.75295 11.0105 5.51776 9.77811 5.51776 8.25788C5.51776 6.73764 6.75295 5.50525 8.27664 5.50525C9.80032 5.50525 11.0355 6.73764 11.0355 8.25788Z" fill="#BC2CFF"/>
<path d="M11.0355 13.7631C11.0355 15.2834 9.80032 16.5158 8.27664 16.5158C6.75295 16.5158 5.51776 15.2834 5.51776 13.7631C5.51776 12.2429 6.75295 11.0105 8.27664 11.0105C9.80032 11.0105 11.0355 12.2429 11.0355 13.7631Z" fill="#BC2CFF"/>
<path d="M11.0355 19.2684C11.0355 20.7886 9.80032 22.021 8.27664 22.021C6.75295 22.021 5.51776 20.7886 5.51776 19.2684C5.51776 17.7481 6.75295 16.5158 8.27664 16.5158C9.80032 16.5158 11.0355 17.7481 11.0355 19.2684Z" fill="#BC2CFF"/>
<path d="M16.5533 2.75263C16.5533 4.27286 15.3181 5.50525 13.7944 5.50525C12.2707 5.50525 11.0355 4.27286 11.0355 2.75263C11.0355 1.23239 12.2707 0 13.7944 0C15.3181 0 16.5533 1.23239 16.5533 2.75263Z" fill="#BC2CFF"/>
<path d="M16.5533 8.25788C16.5533 9.77811 15.3181 11.0105 13.7944 11.0105C12.2707 11.0105 11.0355 9.77811 11.0355 8.25788C11.0355 6.73764 12.2707 5.50525 13.7944 5.50525C15.3181 5.50525 16.5533 6.73764 16.5533 8.25788Z" fill="#BC2CFF"/>
<path d="M16.5533 13.7631C16.5533 15.2834 15.3181 16.5158 13.7944 16.5158C12.2707 16.5158 11.0355 15.2834 11.0355 13.7631C11.0355 12.2429 12.2707 11.0105 13.7944 11.0105C15.3181 11.0105 16.5533 12.2429 16.5533 13.7631Z" fill="#BC2CFF"/>
<path d="M16.5533 19.2684C16.5533 20.7886 15.3181 22.021 13.7944 22.021C12.2707 22.021 11.0355 20.7886 11.0355 19.2684C11.0355 17.7481 12.2707 16.5158 13.7944 16.5158C15.3181 16.5158 16.5533 17.7481 16.5533 19.2684Z" fill="#BC2CFF"/>
<path d="M11.0355 8.25788C11.0355 9.77811 9.80032 11.0105 8.27664 11.0105C6.75295 11.0105 5.51776 9.77811 5.51776 8.25788C5.51776 6.73764 6.75295 5.50525 8.27664 5.50525C9.80032 5.50525 11.0355 6.73764 11.0355 8.25788Z" fill="black"/>
<path d="M11.0355 13.7631C11.0355 15.2834 9.80032 16.5158 8.27664 16.5158C6.75295 16.5158 5.51776 15.2834 5.51776 13.7631C5.51776 12.2429 6.75295 11.0105 8.27664 11.0105C9.80032 11.0105 11.0355 12.2429 11.0355 13.7631Z" fill="black"/>
<path d="M11.0355 19.2684C11.0355 20.7886 9.80032 22.021 8.27664 22.021C6.75295 22.021 5.51776 20.7886 5.51776 19.2684C5.51776 17.7481 6.75295 16.5158 8.27664 16.5158C9.80032 16.5158 11.0355 17.7481 11.0355 19.2684Z" fill="black"/>
<path d="M11.0355 24.7736C11.0355 26.2939 9.80032 27.5263 8.27664 27.5263C6.75295 27.5263 5.51776 26.2939 5.51776 24.7736C5.51776 23.2534 6.75295 22.021 8.27664 22.021C9.80032 22.021 11.0355 23.2534 11.0355 24.7736Z" fill="black"/>
<path d="M16.5533 8.25788C16.5533 9.77811 15.3181 11.0105 13.7944 11.0105C12.2707 11.0105 11.0355 9.77811 11.0355 8.25788C11.0355 6.73764 12.2707 5.50525 13.7944 5.50525C15.3181 5.50525 16.5533 6.73764 16.5533 8.25788Z" fill="black"/>
<path d="M16.5533 13.7631C16.5533 15.2834 15.3181 16.5158 13.7944 16.5158C12.2707 16.5158 11.0355 15.2834 11.0355 13.7631C11.0355 12.2429 12.2707 11.0105 13.7944 11.0105C15.3181 11.0105 16.5533 12.2429 16.5533 13.7631Z" fill="black"/>
<path d="M16.5533 19.2684C16.5533 20.7886 15.3181 22.021 13.7944 22.021C12.2707 22.021 11.0355 20.7886 11.0355 19.2684C11.0355 17.7481 12.2707 16.5158 13.7944 16.5158C15.3181 16.5158 16.5533 17.7481 16.5533 19.2684Z" fill="black"/>
<path d="M16.5533 24.7736C16.5533 26.2939 15.3181 27.5263 13.7944 27.5263C12.2707 27.5263 11.0355 26.2939 11.0355 24.7736C11.0355 23.2534 12.2707 22.021 13.7944 22.021C15.3181 22.021 16.5533 23.2534 16.5533 24.7736Z" fill="black"/>
<path d="M22.071 8.25788C22.071 9.77811 20.8358 11.0105 19.3121 11.0105C17.7885 11.0105 16.5533 9.77811 16.5533 8.25788C16.5533 6.73764 17.7885 5.50525 19.3121 5.50525C20.8358 5.50525 22.071 6.73764 22.071 8.25788Z" fill="black"/>
<path d="M22.071 13.7631C22.071 15.2834 20.8358 16.5158 19.3121 16.5158C17.7885 16.5158 16.5533 15.2834 16.5533 13.7631C16.5533 12.2429 17.7885 11.0105 19.3121 11.0105C20.8358 11.0105 22.071 12.2429 22.071 13.7631Z" fill="black"/>
<path d="M22.071 19.2684C22.071 20.7886 20.8358 22.021 19.3121 22.021C17.7885 22.021 16.5533 20.7886 16.5533 19.2684C16.5533 17.7481 17.7885 16.5158 19.3121 16.5158C20.8358 16.5158 22.071 17.7481 22.071 19.2684Z" fill="black"/>
<path d="M22.071 24.7736C22.071 26.2939 20.8358 27.5263 19.3121 27.5263C17.7885 27.5263 16.5533 26.2939 16.5533 24.7736C16.5533 23.2534 17.7885 22.021 19.3121 22.021C20.8358 22.021 22.071 23.2534 22.071 24.7736Z" fill="black"/>
<path d="M50.5717 7.39442C49.9439 7.39442 49.4507 6.90231 49.4507 6.27599C49.4507 5.64966 49.9439 5.15755 50.5717 5.15755C51.1994 5.15755 51.6927 5.64966 51.6927 6.27599C51.6927 6.90231 51.1994 7.39442 50.5717 7.39442ZM48.3297 7.39442C47.702 7.39442 47.2088 6.90231 47.2088 6.27599C47.2088 5.64966 47.702 5.15755 48.3297 5.15755C48.9575 5.15755 49.4507 5.64966 49.4507 6.27599C49.4507 6.90231 48.9575 7.39442 48.3297 7.39442ZM32.6361 7.39442C32.0083 7.39442 31.5151 6.90231 31.5151 6.27599C31.5151 5.64966 32.0083 5.15755 32.6361 5.15755C33.2638 5.15755 33.7571 5.64966 33.7571 6.27599C33.7571 6.90231 33.2638 7.39442 32.6361 7.39442ZM30.3941 7.39442C29.7664 7.39442 29.2732 6.90231 29.2732 6.27599C29.2732 5.64966 29.7664 5.15755 30.3941 5.15755C31.0219 5.15755 31.5151 5.64966 31.5151 6.27599C31.5151 6.90231 31.0219 7.39442 30.3941 7.39442ZM34.878 7.39442C34.2503 7.39442 33.7571 6.90231 33.7571 6.27599C33.7571 5.64966 34.2503 5.15755 34.878 5.15755C35.5058 5.15755 35.999 5.64966 35.999 6.27599C35.999 6.90231 35.5058 7.39442 34.878 7.39442ZM37.12 7.39442C36.4922 7.39442 35.999 6.90231 35.999 6.27599C35.999 5.64966 36.4922 5.15755 37.12 5.15755C37.7477 5.15755 38.241 5.64966 38.241 6.27599C38.241 6.90231 37.7477 7.39442 37.12 7.39442ZM39.3619 7.39442C38.7342 7.39442 38.241 6.90231 38.241 6.27599C38.241 5.64966 38.7342 5.15755 39.3619 5.15755C39.9897 5.15755 40.4829 5.64966 40.4829 6.27599C40.4829 6.90231 39.9897 7.39442 39.3619 7.39442ZM43.8458 7.39442C43.2181 7.39442 42.7249 6.90231 42.7249 6.27599C42.7249 5.64966 43.2181 5.15755 43.8458 5.15755C44.4736 5.15755 44.9668 5.64966 44.9668 6.27599C44.9668 6.90231 44.4736 7.39442 43.8458 7.39442ZM46.0878 7.39442C45.46 7.39442 44.9668 6.90231 44.9668 6.27599C44.9668 5.64966 45.46 5.15755 46.0878 5.15755C46.7155 5.15755 47.2088 5.64966 47.2088 6.27599C47.2088 6.90231 46.7155 7.39442 46.0878 7.39442ZM41.6039 7.39442C40.9761 7.39442 40.4829 6.90231 40.4829 6.27599C40.4829 5.64966 40.9761 5.15755 41.6039 5.15755C42.2316 5.15755 42.7249 5.64966 42.7249 6.27599C42.7249 6.90231 42.2316 7.39442 41.6039 7.39442ZM30.3941 9.63129C29.7664 9.63129 29.2732 9.13918 29.2732 8.51286C29.2732 7.88653 29.7664 7.39442 30.3941 7.39442C31.0219 7.39442 31.5151 7.88653 31.5151 8.51286C31.5151 9.13918 31.0219 9.63129 30.3941 9.63129ZM50.5717 9.63129C49.9439 9.63129 49.4507 9.13918 49.4507 8.51286C49.4507 7.88653 49.9439 7.39442 50.5717 7.39442C51.1994 7.39442 51.6927 7.88653 51.6927 8.51286C51.6927 9.13918 51.1994 9.63129 50.5717 9.63129ZM48.3297 9.63129C47.702 9.63129 47.2088 9.13918 47.2088 8.51286C47.2088 7.88653 47.702 7.39442 48.3297 7.39442C48.9575 7.39442 49.4507 7.88653 49.4507 8.51286C49.4507 9.13918 48.9575 9.63129 48.3297 9.63129ZM32.6361 9.63129C32.0083 9.63129 31.5151 9.13918 31.5151 8.51286C31.5151 7.88653 32.0083 7.39442 32.6361 7.39442C33.2638 7.39442 33.7571 7.88653 33.7571 8.51286C33.7571 9.13918 33.2638 9.63129 32.6361 9.63129ZM34.878 9.63129C34.2503 9.63129 33.7571 9.13918 33.7571 8.51286C33.7571 7.88653 34.2503 7.39442 34.878 7.39442C35.5058 7.39442 35.999 7.88653 35.999 8.51286C35.999 9.13918 35.5058 9.63129 34.878 9.63129ZM39.3619 9.63129C38.7342 9.63129 38.241 9.13918 38.241 8.51286C38.241 7.88653 38.7342 7.39442 39.3619 7.39442C39.9897 7.39442 40.4829 7.88653 40.4829 8.51286C40.4829 9.13918 39.9897 9.63129 39.3619 9.63129ZM37.12 9.63129C36.4922 9.63129 35.999 9.13918 35.999 8.51286C35.999 7.88653 36.4922 7.39442 37.12 7.39442C37.7477 7.39442 38.241 7.88653 38.241 8.51286C38.241 9.13918 37.7477 9.63129 37.12 9.63129ZM46.0878 9.63129C45.46 9.63129 44.9668 9.13918 44.9668 8.51286C44.9668 7.88653 45.46 7.39442 46.0878 7.39442C46.7155 7.39442 47.2088 7.88653 47.2088 8.51286C47.2088 9.13918 46.7155 9.63129 46.0878 9.63129ZM43.8458 9.63129C43.2181 9.63129 42.7249 9.13918 42.7249 8.51286C42.7249 7.88653 43.2181 7.39442 43.8458 7.39442C44.4736 7.39442 44.9668 7.88653 44.9668 8.51286C44.9668 9.13918 44.4736 9.63129 43.8458 9.63129ZM41.6039 9.63129C40.9761 9.63129 40.4829 9.13918 40.4829 8.51286C40.4829 7.88653 40.9761 7.39442 41.6039 7.39442C42.2316 7.39442 42.7249 7.88653 42.7249 8.51286C42.7249 9.13918 42.2316 9.63129 41.6039 9.63129ZM37.12 11.8682C36.4922 11.8682 35.999 11.3761 35.999 10.7497C35.999 10.1234 36.4922 9.63129 37.12 9.63129C37.7477 9.63129 38.241 10.1234 38.241 10.7497C38.241 11.3761 37.7477 11.8682 37.12 11.8682ZM39.3619 11.8682C38.7342 11.8682 38.241 11.3761 38.241 10.7497C38.241 10.1234 38.7342 9.63129 39.3619 9.63129C39.9897 9.63129 40.4829 10.1234 40.4829 10.7497C40.4829 11.3761 39.9897 11.8682 39.3619 11.8682ZM30.3941 11.8682C29.7664 11.8682 29.2732 11.3761 29.2732 10.7497C29.2732 10.1234 29.7664 9.63129 30.3941 9.63129C31.0219 9.63129 31.5151 10.1234 31.5151 10.7497C31.5151 11.3761 31.0219 11.8682 30.3941 11.8682ZM32.6361 11.8682C32.0083 11.8682 31.5151 11.3761 31.5151 10.7497C31.5151 10.1234 32.0083 9.63129 32.6361 9.63129C33.2638 9.63129 33.7571 10.1234 33.7571 10.7497C33.7571 11.3761 33.2638 11.8682 32.6361 11.8682ZM34.878 11.8682C34.2503 11.8682 33.7571 11.3761 33.7571 10.7497C33.7571 10.1234 34.2503 9.63129 34.878 9.63129C35.5058 9.63129 35.999 10.1234 35.999 10.7497C35.999 11.3761 35.5058 11.8682 34.878 11.8682ZM46.0878 11.8682C45.46 11.8682 44.9668 11.3761 44.9668 10.7497C44.9668 10.1234 45.46 9.63129 46.0878 9.63129C46.7155 9.63129 47.2088 10.1234 47.2088 10.7497C47.2088 11.3761 46.7155 11.8682 46.0878 11.8682ZM48.3297 11.8682C47.702 11.8682 47.2088 11.3761 47.2088 10.7497C47.2088 10.1234 47.702 9.63129 48.3297 9.63129C48.9575 9.63129 49.4507 10.1234 49.4507 10.7497C49.4507 11.3761 48.9575 11.8682 48.3297 11.8682ZM50.5717 11.8682C49.9439 11.8682 49.4507 11.3761 49.4507 10.7497C49.4507 10.1234 49.9439 9.63129 50.5717 9.63129C51.1994 9.63129 51.6927 10.1234 51.6927 10.7497C51.6927 11.3761 51.1994 11.8682 50.5717 11.8682ZM43.8458 11.8682C43.2181 11.8682 42.7249 11.3761 42.7249 10.7497C42.7249 10.1234 43.2181 9.63129 43.8458 9.63129C44.4736 9.63129 44.9668 10.1234 44.9668 10.7497C44.9668 11.3761 44.4736 11.8682 43.8458 11.8682ZM41.6039 11.8682C40.9761 11.8682 40.4829 11.3761 40.4829 10.7497C40.4829 10.1234 40.9761 9.63129 41.6039 9.63129C42.2316 9.63129 42.7249 10.1234 42.7249 10.7497C42.7249 11.3761 42.2316 11.8682 41.6039 11.8682ZM41.6039 14.105C40.9761 14.105 40.4829 13.6129 40.4829 12.9866C40.4829 12.3603 40.9761 11.8682 41.6039 11.8682C42.2316 11.8682 42.7249 12.3603 42.7249 12.9866C42.7249 13.6129 42.2316 14.105 41.6039 14.105ZM43.8458 14.105C43.2181 14.105 42.7249 13.6129 42.7249 12.9866C42.7249 12.3603 43.2181 11.8682 43.8458 11.8682C44.4736 11.8682 44.9668 12.3603 44.9668 12.9866C44.9668 13.6129 44.4736 14.105 43.8458 14.105ZM37.12 14.105C36.4922 14.105 35.999 13.6129 35.999 12.9866C35.999 12.3603 36.4922 11.8682 37.12 11.8682C37.7477 11.8682 38.241 12.3603 38.241 12.9866C38.241 13.6129 37.7477 14.105 37.12 14.105ZM39.3619 14.105C38.7342 14.105 38.241 13.6129 38.241 12.9866C38.241 12.3603 38.7342 11.8682 39.3619 11.8682C39.9897 11.8682 40.4829 12.3603 40.4829 12.9866C40.4829 13.6129 39.9897 14.105 39.3619 14.105ZM41.6039 16.3419C40.9761 16.3419 40.4829 15.8498 40.4829 15.2235C40.4829 14.5971 40.9761 14.105 41.6039 14.105C42.2316 14.105 42.7249 14.5971 42.7249 15.2235C42.7249 15.8498 42.2316 16.3419 41.6039 16.3419ZM43.8458 16.3419C43.2181 16.3419 42.7249 15.8498 42.7249 15.2235C42.7249 14.5971 43.2181 14.105 43.8458 14.105C44.4736 14.105 44.9668 14.5971 44.9668 15.2235C44.9668 15.8498 44.4736 16.3419 43.8458 16.3419ZM37.12 16.3419C36.4922 16.3419 35.999 15.8498 35.999 15.2235C35.999 14.5971 36.4922 14.105 37.12 14.105C37.7477 14.105 38.241 14.5971 38.241 15.2235C38.241 15.8498 37.7477 16.3419 37.12 16.3419ZM39.3619 16.3419C38.7342 16.3419 38.241 15.8498 38.241 15.2235C38.241 14.5971 38.7342 14.105 39.3619 14.105C39.9897 14.105 40.4829 14.5971 40.4829 15.2235C40.4829 15.8498 39.9897 16.3419 39.3619 16.3419ZM41.6039 18.5788C40.9761 18.5788 40.4829 18.0867 40.4829 17.4603C40.4829 16.834 40.9761 16.3419 41.6039 16.3419C42.2316 16.3419 42.7249 16.834 42.7249 17.4603C42.7249 18.0867 42.2316 18.5788 41.6039 18.5788ZM37.12 18.5788C36.4922 18.5788 35.999 18.0867 35.999 17.4603C35.999 16.834 36.4922 16.3419 37.12 16.3419C37.7477 16.3419 38.241 16.834 38.241 17.4603C38.241 18.0867 37.7477 18.5788 37.12 18.5788ZM43.8458 18.5788C43.2181 18.5788 42.7249 18.0867 42.7249 17.4603C42.7249 16.834 43.2181 16.3419 43.8458 16.3419C44.4736 16.3419 44.9668 16.834 44.9668 17.4603C44.9668 18.0867 44.4736 18.5788 43.8458 18.5788ZM39.3619 18.5788C38.7342 18.5788 38.241 18.0867 38.241 17.4603C38.241 16.834 38.7342 16.3419 39.3619 16.3419C39.9897 16.3419 40.4829 16.834 40.4829 17.4603C40.4829 18.0867 39.9897 18.5788 39.3619 18.5788ZM41.6039 20.8156C40.9761 20.8156 40.4829 20.3235 40.4829 19.6972C40.4829 19.0709 40.9761 18.5788 41.6039 18.5788C42.2316 18.5788 42.7249 19.0709 42.7249 19.6972C42.7249 20.3235 42.2316 20.8156 41.6039 20.8156ZM37.12 20.8156C36.4922 20.8156 35.999 20.3235 35.999 19.6972C35.999 19.0709 36.4922 18.5788 37.12 18.5788C37.7477 18.5788 38.241 19.0709 38.241 19.6972C38.241 20.3235 37.7477 20.8156 37.12 20.8156ZM43.8458 20.8156C43.2181 20.8156 42.7249 20.3235 42.7249 19.6972C42.7249 19.0709 43.2181 18.5788 43.8458 18.5788C44.4736 18.5788 44.9668 19.0709 44.9668 19.6972C44.9668 20.3235 44.4736 20.8156 43.8458 20.8156ZM39.3619 20.8156C38.7342 20.8156 38.241 20.3235 38.241 19.6972C38.241 19.0709 38.7342 18.5788 39.3619 18.5788C39.9897 18.5788 40.4829 19.0709 40.4829 19.6972C40.4829 20.3235 39.9897 20.8156 39.3619 20.8156ZM37.12 23.0525C36.4922 23.0525 35.999 22.5604 35.999 21.9341C35.999 21.3078 36.4922 20.8156 37.12 20.8156C37.7477 20.8156 38.241 21.3078 38.241 21.9341C38.241 22.5604 37.7477 23.0525 37.12 23.0525ZM41.6039 23.0525C40.9761 23.0525 40.4829 22.5604 40.4829 21.9341C40.4829 21.3078 40.9761 20.8156 41.6039 20.8156C42.2316 20.8156 42.7249 21.3078 42.7249 21.9341C42.7249 22.5604 42.2316 23.0525 41.6039 23.0525ZM43.8458 23.0525C43.2181 23.0525 42.7249 22.5604 42.7249 21.9341C42.7249 21.3078 43.2181 20.8156 43.8458 20.8156C44.4736 20.8156 44.9668 21.3078 44.9668 21.9341C44.9668 22.5604 44.4736 23.0525 43.8458 23.0525ZM39.3619 23.0525C38.7342 23.0525 38.241 22.5604 38.241 21.9341C38.241 21.3078 38.7342 20.8156 39.3619 20.8156C39.9897 20.8156 40.4829 21.3078 40.4829 21.9341C40.4829 22.5604 39.9897 23.0525 39.3619 23.0525ZM37.12 25.2894C36.4922 25.2894 35.999 24.7973 35.999 24.171C35.999 23.5446 36.4922 23.0525 37.12 23.0525C37.7477 23.0525 38.241 23.5446 38.241 24.171C38.241 24.7973 37.7477 25.2894 37.12 25.2894ZM41.6039 25.2894C40.9761 25.2894 40.4829 24.7973 40.4829 24.171C40.4829 23.5446 40.9761 23.0525 41.6039 23.0525C42.2316 23.0525 42.7249 23.5446 42.7249 24.171C42.7249 24.7973 42.2316 25.2894 41.6039 25.2894ZM43.8458 25.2894C43.2181 25.2894 42.7249 24.7973 42.7249 24.171C42.7249 23.5446 43.2181 23.0525 43.8458 23.0525C44.4736 23.0525 44.9668 23.5446 44.9668 24.171C44.9668 24.7973 44.4736 25.2894 43.8458 25.2894ZM39.3619 25.2894C38.7342 25.2894 38.241 24.7973 38.241 24.171C38.241 23.5446 38.7342 23.0525 39.3619 23.0525C39.9897 23.0525 40.4829 23.5446 40.4829 24.171C40.4829 24.7973 39.9897 25.2894 39.3619 25.2894ZM41.6039 27.5263C40.9761 27.5263 40.4829 27.0341 40.4829 26.4078C40.4829 25.7815 40.9761 25.2894 41.6039 25.2894C42.2316 25.2894 42.7249 25.7815 42.7249 26.4078C42.7249 27.0341 42.2316 27.5263 41.6039 27.5263ZM37.12 27.5263C36.4922 27.5263 35.999 27.0341 35.999 26.4078C35.999 25.7815 36.4922 25.2894 37.12 25.2894C37.7477 25.2894 38.241 25.7815 38.241 26.4078C38.241 27.0341 37.7477 27.5263 37.12 27.5263ZM43.8458 27.5263C43.2181 27.5263 42.7249 27.0341 42.7249 26.4078C42.7249 25.7815 43.2181 25.2894 43.8458 25.2894C44.4736 25.2894 44.9668 25.7815 44.9668 26.4078C44.9668 27.0341 44.4736 27.5263 43.8458 27.5263ZM39.3619 27.5263C38.7342 27.5263 38.241 27.0341 38.241 26.4078C38.241 25.7815 38.7342 25.2894 39.3619 25.2894C39.9897 25.2894 40.4829 25.7815 40.4829 26.4078C40.4829 27.0341 39.9897 27.5263 39.3619 27.5263Z" fill="#BC2CFF"/>
<path d="M55.0556 11.8682C54.4278 11.8682 53.9346 11.3761 53.9346 10.7497C53.9346 10.1234 54.4278 9.63129 55.0556 9.63129C55.6833 9.63129 56.1766 10.1234 56.1766 10.7497C56.1766 11.3761 55.6833 11.8682 55.0556 11.8682ZM57.2975 11.8682C56.6698 11.8682 56.1766 11.3761 56.1766 10.7497C56.1766 10.1234 56.6698 9.63129 57.2975 9.63129C57.9253 9.63129 58.4185 10.1234 58.4185 10.7497C58.4185 11.3761 57.9253 11.8682 57.2975 11.8682ZM59.5395 11.8682C58.9118 11.8682 58.4185 11.3761 58.4185 10.7497C58.4185 10.1234 58.9118 9.63129 59.5395 9.63129C60.1672 9.63129 60.6605 10.1234 60.6605 10.7497C60.6605 11.3761 60.1672 11.8682 59.5395 11.8682ZM61.7814 11.8682C61.1537 11.8682 60.6605 11.3761 60.6605 10.7497C60.6605 10.1234 61.1537 9.63129 61.7814 9.63129C62.4092 9.63129 62.9024 10.1234 62.9024 10.7497C62.9024 11.3761 62.4092 11.8682 61.7814 11.8682ZM86.4429 11.8682C85.8152 11.8682 85.3219 11.3761 85.3219 10.7497C85.3219 10.1234 85.8152 9.63129 86.4429 9.63129C87.0707 9.63129 87.5639 10.1234 87.5639 10.7497C87.5639 11.3761 87.0707 11.8682 86.4429 11.8682ZM84.201 11.8682C83.5732 11.8682 83.08 11.3761 83.08 10.7497C83.08 10.1234 83.5732 9.63129 84.201 9.63129C84.8287 9.63129 85.3219 10.1234 85.3219 10.7497C85.3219 11.3761 84.8287 11.8682 84.201 11.8682ZM81.959 11.8682C81.3313 11.8682 80.838 11.3761 80.838 10.7497C80.838 10.1234 81.3313 9.63129 81.959 9.63129C82.5868 9.63129 83.08 10.1234 83.08 10.7497C83.08 11.3761 82.5868 11.8682 81.959 11.8682ZM79.7171 11.8682C79.0893 11.8682 78.5961 11.3761 78.5961 10.7497C78.5961 10.1234 79.0893 9.63129 79.7171 9.63129C80.3448 9.63129 80.838 10.1234 80.838 10.7497C80.838 11.3761 80.3448 11.8682 79.7171 11.8682ZM75.2332 11.8682C74.6054 11.8682 74.1122 11.3761 74.1122 10.7497C74.1122 10.1234 74.6054 9.63129 75.2332 9.63129C75.8609 9.63129 76.3541 10.1234 76.3541 10.7497C76.3541 11.3761 75.8609 11.8682 75.2332 11.8682ZM72.9912 11.8682C72.3635 11.8682 71.8702 11.3761 71.8702 10.7497C71.8702 10.1234 72.3635 9.63129 72.9912 9.63129C73.619 9.63129 74.1122 10.1234 74.1122 10.7497C74.1122 11.3761 73.619 11.8682 72.9912 11.8682ZM70.7493 11.8682C70.1215 11.8682 69.6283 11.3761 69.6283 10.7497C69.6283 10.1234 70.1215 9.63129 70.7493 9.63129C71.377 9.63129 71.8702 10.1234 71.8702 10.7497C71.8702 11.3761 71.377 11.8682 70.7493 11.8682ZM68.5073 11.8682C67.8796 11.8682 67.3863 11.3761 67.3863 10.7497C67.3863 10.1234 67.8796 9.63129 68.5073 9.63129C69.135 9.63129 69.6283 10.1234 69.6283 10.7497C69.6283 11.3761 69.135 11.8682 68.5073 11.8682ZM66.2654 11.8682C65.6376 11.8682 65.1444 11.3761 65.1444 10.7497C65.1444 10.1234 65.6376 9.63129 66.2654 9.63129C66.8931 9.63129 67.3863 10.1234 67.3863 10.7497C67.3863 11.3761 66.8931 11.8682 66.2654 11.8682ZM55.0556 14.105C54.4278 14.105 53.9346 13.6129 53.9346 12.9866C53.9346 12.3603 54.4278 11.8682 55.0556 11.8682C55.6833 11.8682 56.1766 12.3603 56.1766 12.9866C56.1766 13.6129 55.6833 14.105 55.0556 14.105ZM84.201 14.105C83.5732 14.105 83.08 13.6129 83.08 12.9866C83.08 12.3603 83.5732 11.8682 84.201 11.8682C84.8287 11.8682 85.3219 12.3603 85.3219 12.9866C85.3219 13.6129 84.8287 14.105 84.201 14.105ZM77.4751 14.105C76.8474 14.105 76.3541 13.6129 76.3541 12.9866C76.3541 12.3603 76.8474 11.8682 77.4751 11.8682C78.1029 11.8682 78.5961 12.3603 78.5961 12.9866C78.5961 13.6129 78.1029 14.105 77.4751 14.105ZM79.7171 14.105C79.0893 14.105 78.5961 13.6129 78.5961 12.9866C78.5961 12.3603 79.0893 11.8682 79.7171 11.8682C80.3448 11.8682 80.838 12.3603 80.838 12.9866C80.838 13.6129 80.3448 14.105 79.7171 14.105ZM59.5395 14.105C58.9118 14.105 58.4185 13.6129 58.4185 12.9866C58.4185 12.3603 58.9118 11.8682 59.5395 11.8682C60.1672 11.8682 60.6605 12.3603 60.6605 12.9866C60.6605 13.6129 60.1672 14.105 59.5395 14.105ZM86.4429 14.105C85.8152 14.105 85.3219 13.6129 85.3219 12.9866C85.3219 12.3603 85.8152 11.8682 86.4429 11.8682C87.0707 11.8682 87.5639 12.3603 87.5639 12.9866C87.5639 13.6129 87.0707 14.105 86.4429 14.105ZM81.959 14.105C81.3313 14.105 80.838 13.6129 80.838 12.9866C80.838 12.3603 81.3313 11.8682 81.959 11.8682C82.5868 11.8682 83.08 12.3603 83.08 12.9866C83.08 13.6129 82.5868 14.105 81.959 14.105ZM61.7814 14.105C61.1537 14.105 60.6605 13.6129 60.6605 12.9866C60.6605 12.3603 61.1537 11.8682 61.7814 11.8682C62.4092 11.8682 62.9024 12.3603 62.9024 12.9866C62.9024 13.6129 62.4092 14.105 61.7814 14.105ZM57.2975 14.105C56.6698 14.105 56.1766 13.6129 56.1766 12.9866C56.1766 12.3603 56.6698 11.8682 57.2975 11.8682C57.9253 11.8682 58.4185 12.3603 58.4185 12.9866C58.4185 13.6129 57.9253 14.105 57.2975 14.105ZM64.0234 14.105C63.3957 14.105 62.9024 13.6129 62.9024 12.9866C62.9024 12.3603 63.3957 11.8682 64.0234 11.8682C64.6511 11.8682 65.1444 12.3603 65.1444 12.9866C65.1444 13.6129 64.6511 14.105 64.0234 14.105ZM88.6849 14.105C88.0571 14.105 87.5639 13.6129 87.5639 12.9866C87.5639 12.3603 88.0571 11.8682 88.6849 11.8682C89.3126 11.8682 89.8058 12.3603 89.8058 12.9866C89.8058 13.6129 89.3126 14.105 88.6849 14.105ZM66.2654 14.105C65.6376 14.105 65.1444 13.6129 65.1444 12.9866C65.1444 12.3603 65.6376 11.8682 66.2654 11.8682C66.8931 11.8682 67.3863 12.3603 67.3863 12.9866C67.3863 13.6129 66.8931 14.105 66.2654 14.105ZM75.2332 14.105C74.6054 14.105 74.1122 13.6129 74.1122 12.9866C74.1122 12.3603 74.6054 11.8682 75.2332 11.8682C75.8609 11.8682 76.3541 12.3603 76.3541 12.9866C76.3541 13.6129 75.8609 14.105 75.2332 14.105ZM72.9912 14.105C72.3635 14.105 71.8702 13.6129 71.8702 12.9866C71.8702 12.3603 72.3635 11.8682 72.9912 11.8682C73.619 11.8682 74.1122 12.3603 74.1122 12.9866C74.1122 13.6129 73.619 14.105 72.9912 14.105ZM70.7493 14.105C70.1215 14.105 69.6283 13.6129 69.6283 12.9866C69.6283 12.3603 70.1215 11.8682 70.7493 11.8682C71.377 11.8682 71.8702 12.3603 71.8702 12.9866C71.8702 13.6129 71.377 14.105 70.7493 14.105ZM68.5073 14.105C67.8796 14.105 67.3863 13.6129 67.3863 12.9866C67.3863 12.3603 67.8796 11.8682 68.5073 11.8682C69.135 11.8682 69.6283 12.3603 69.6283 12.9866C69.6283 13.6129 69.135 14.105 68.5073 14.105ZM84.201 16.3419C83.5732 16.3419 83.08 15.8498 83.08 15.2235C83.08 14.5971 83.5732 14.105 84.201 14.105C84.8287 14.105 85.3219 14.5971 85.3219 15.2235C85.3219 15.8498 84.8287 16.3419 84.201 16.3419ZM88.6849 16.3419C88.0571 16.3419 87.5639 15.8498 87.5639 15.2235C87.5639 14.5971 88.0571 14.105 88.6849 14.105C89.3126 14.105 89.8058 14.5971 89.8058 15.2235C89.8058 15.8498 89.3126 16.3419 88.6849 16.3419ZM59.5395 16.3419C58.9118 16.3419 58.4185 15.8498 58.4185 15.2235C58.4185 14.5971 58.9118 14.105 59.5395 14.105C60.1672 14.105 60.6605 14.5971 60.6605 15.2235C60.6605 15.8498 60.1672 16.3419 59.5395 16.3419ZM55.0556 16.3419C54.4278 16.3419 53.9346 15.8498 53.9346 15.2235C53.9346 14.5971 54.4278 14.105 55.0556 14.105C55.6833 14.105 56.1766 14.5971 56.1766 15.2235C56.1766 15.8498 55.6833 16.3419 55.0556 16.3419ZM86.4429 16.3419C85.8152 16.3419 85.3219 15.8498 85.3219 15.2235C85.3219 14.5971 85.8152 14.105 86.4429 14.105C87.0707 14.105 87.5639 14.5971 87.5639 15.2235C87.5639 15.8498 87.0707 16.3419 86.4429 16.3419ZM81.959 16.3419C81.3313 16.3419 80.838 15.8498 80.838 15.2235C80.838 14.5971 81.3313 14.105 81.959 14.105C82.5868 14.105 83.08 14.5971 83.08 15.2235C83.08 15.8498 82.5868 16.3419 81.959 16.3419ZM61.7814 16.3419C61.1537 16.3419 60.6605 15.8498 60.6605 15.2235C60.6605 14.5971 61.1537 14.105 61.7814 14.105C62.4092 14.105 62.9024 14.5971 62.9024 15.2235C62.9024 15.8498 62.4092 16.3419 61.7814 16.3419ZM72.9912 16.3419C72.3635 16.3419 71.8702 15.8498 71.8702 15.2235C71.8702 14.5971 72.3635 14.105 72.9912 14.105C73.619 14.105 74.1122 14.5971 74.1122 15.2235C74.1122 15.8498 73.619 16.3419 72.9912 16.3419ZM57.2975 16.3419C56.6698 16.3419 56.1766 15.8498 56.1766 15.2235C56.1766 14.5971 56.6698 14.105 57.2975 14.105C57.9253 14.105 58.4185 14.5971 58.4185 15.2235C58.4185 15.8498 57.9253 16.3419 57.2975 16.3419ZM68.5073 16.3419C67.8796 16.3419 67.3863 15.8498 67.3863 15.2235C67.3863 14.5971 67.8796 14.105 68.5073 14.105C69.135 14.105 69.6283 14.5971 69.6283 15.2235C69.6283 15.8498 69.135 16.3419 68.5073 16.3419ZM75.2332 16.3419C74.6054 16.3419 74.1122 15.8498 74.1122 15.2235C74.1122 14.5971 74.6054 14.105 75.2332 14.105C75.8609 14.105 76.3541 14.5971 76.3541 15.2235C76.3541 15.8498 75.8609 16.3419 75.2332 16.3419ZM70.7493 16.3419C70.1215 16.3419 69.6283 15.8498 69.6283 15.2235C69.6283 14.5971 70.1215 14.105 70.7493 14.105C71.377 14.105 71.8702 14.5971 71.8702 15.2235C71.8702 15.8498 71.377 16.3419 70.7493 16.3419ZM70.7493 18.5788C70.1215 18.5788 69.6283 18.0867 69.6283 17.4603C69.6283 16.834 70.1215 16.3419 70.7493 16.3419C71.377 16.3419 71.8702 16.834 71.8702 17.4603C71.8702 18.0867 71.377 18.5788 70.7493 18.5788ZM75.2332 18.5788C74.6054 18.5788 74.1122 18.0867 74.1122 17.4603C74.1122 16.834 74.6054 16.3419 75.2332 16.3419C75.8609 16.3419 76.3541 16.834 76.3541 17.4603C76.3541 18.0867 75.8609 18.5788 75.2332 18.5788ZM84.201 18.5788C83.5732 18.5788 83.08 18.0867 83.08 17.4603C83.08 16.834 83.5732 16.3419 84.201 16.3419C84.8287 16.3419 85.3219 16.834 85.3219 17.4603C85.3219 18.0867 84.8287 18.5788 84.201 18.5788ZM59.5395 18.5788C58.9118 18.5788 58.4185 18.0867 58.4185 17.4603C58.4185 16.834 58.9118 16.3419 59.5395 16.3419C60.1672 16.3419 60.6605 16.834 60.6605 17.4603C60.6605 18.0867 60.1672 18.5788 59.5395 18.5788ZM57.2975 18.5788C56.6698 18.5788 56.1766 18.0867 56.1766 17.4603C56.1766 16.834 56.6698 16.3419 57.2975 16.3419C57.9253 16.3419 58.4185 16.834 58.4185 17.4603C58.4185 18.0867 57.9253 18.5788 57.2975 18.5788ZM88.6849 18.5788C88.0571 18.5788 87.5639 18.0867 87.5639 17.4603C87.5639 16.834 88.0571 16.3419 88.6849 16.3419C89.3126 16.3419 89.8058 16.834 89.8058 17.4603C89.8058 18.0867 89.3126 18.5788 88.6849 18.5788ZM86.4429 18.5788C85.8152 18.5788 85.3219 18.0867 85.3219 17.4603C85.3219 16.834 85.8152 16.3419 86.4429 16.3419C87.0707 16.3419 87.5639 16.834 87.5639 17.4603C87.5639 18.0867 87.0707 18.5788 86.4429 18.5788ZM61.7814 18.5788C61.1537 18.5788 60.6605 18.0867 60.6605 17.4603C60.6605 16.834 61.1537 16.3419 61.7814 16.3419C62.4092 16.3419 62.9024 16.834 62.9024 17.4603C62.9024 18.0867 62.4092 18.5788 61.7814 18.5788ZM68.5073 18.5788C67.8796 18.5788 67.3863 18.0867 67.3863 17.4603C67.3863 16.834 67.8796 16.3419 68.5073 16.3419C69.135 16.3419 69.6283 16.834 69.6283 17.4603C69.6283 18.0867 69.135 18.5788 68.5073 18.5788ZM81.959 18.5788C81.3313 18.5788 80.838 18.0867 80.838 17.4603C80.838 16.834 81.3313 16.3419 81.959 16.3419C82.5868 16.3419 83.08 16.834 83.08 17.4603C83.08 18.0867 82.5868 18.5788 81.959 18.5788ZM55.0556 18.5788C54.4278 18.5788 53.9346 18.0867 53.9346 17.4603C53.9346 16.834 54.4278 16.3419 55.0556 16.3419C55.6833 16.3419 56.1766 16.834 56.1766 17.4603C56.1766 18.0867 55.6833 18.5788 55.0556 18.5788ZM72.9912 18.5788C72.3635 18.5788 71.8702 18.0867 71.8702 17.4603C71.8702 16.834 72.3635 16.3419 72.9912 16.3419C73.619 16.3419 74.1122 16.834 74.1122 17.4603C74.1122 18.0867 73.619 18.5788 72.9912 18.5788ZM72.9912 20.8156C72.3635 20.8156 71.8702 20.3235 71.8702 19.6972C71.8702 19.0709 72.3635 18.5788 72.9912 18.5788C73.619 18.5788 74.1122 19.0709 74.1122 19.6972C74.1122 20.3235 73.619 20.8156 72.9912 20.8156ZM88.6849 20.8156C88.0571 20.8156 87.5639 20.3235 87.5639 19.6972C87.5639 19.0709 88.0571 18.5788 88.6849 18.5788C89.3126 18.5788 89.8058 19.0709 89.8058 19.6972C89.8058 20.3235 89.3126 20.8156 88.6849 20.8156ZM68.5073 20.8156C67.8796 20.8156 67.3863 20.3235 67.3863 19.6972C67.3863 19.0709 67.8796 18.5788 68.5073 18.5788C69.135 18.5788 69.6283 19.0709 69.6283 19.6972C69.6283 20.3235 69.135 20.8156 68.5073 20.8156ZM70.7493 20.8156C70.1215 20.8156 69.6283 20.3235 69.6283 19.6972C69.6283 19.0709 70.1215 18.5788 70.7493 18.5788C71.377 18.5788 71.8702 19.0709 71.8702 19.6972C71.8702 20.3235 71.377 20.8156 70.7493 20.8156ZM61.7814 20.8156C61.1537 20.8156 60.6605 20.3235 60.6605 19.6972C60.6605 19.0709 61.1537 18.5788 61.7814 18.5788C62.4092 18.5788 62.9024 19.0709 62.9024 19.6972C62.9024 20.3235 62.4092 20.8156 61.7814 20.8156ZM86.4429 20.8156C85.8152 20.8156 85.3219 20.3235 85.3219 19.6972C85.3219 19.0709 85.8152 18.5788 86.4429 18.5788C87.0707 18.5788 87.5639 19.0709 87.5639 19.6972C87.5639 20.3235 87.0707 20.8156 86.4429 20.8156ZM75.2332 20.8156C74.6054 20.8156 74.1122 20.3235 74.1122 19.6972C74.1122 19.0709 74.6054 18.5788 75.2332 18.5788C75.8609 18.5788 76.3541 19.0709 76.3541 19.6972C76.3541 20.3235 75.8609 20.8156 75.2332 20.8156ZM55.0556 20.8156C54.4278 20.8156 53.9346 20.3235 53.9346 19.6972C53.9346 19.0709 54.4278 18.5788 55.0556 18.5788C55.6833 18.5788 56.1766 19.0709 56.1766 19.6972C56.1766 20.3235 55.6833 20.8156 55.0556 20.8156ZM59.5395 20.8156C58.9118 20.8156 58.4185 20.3235 58.4185 19.6972C58.4185 19.0709 58.9118 18.5788 59.5395 18.5788C60.1672 18.5788 60.6605 19.0709 60.6605 19.6972C60.6605 20.3235 60.1672 20.8156 59.5395 20.8156ZM84.201 20.8156C83.5732 20.8156 83.08 20.3235 83.08 19.6972C83.08 19.0709 83.5732 18.5788 84.201 18.5788C84.8287 18.5788 85.3219 19.0709 85.3219 19.6972C85.3219 20.3235 84.8287 20.8156 84.201 20.8156ZM57.2975 20.8156C56.6698 20.8156 56.1766 20.3235 56.1766 19.6972C56.1766 19.0709 56.6698 18.5788 57.2975 18.5788C57.9253 18.5788 58.4185 19.0709 58.4185 19.6972C58.4185 20.3235 57.9253 20.8156 57.2975 20.8156ZM81.959 20.8156C81.3313 20.8156 80.838 20.3235 80.838 19.6972C80.838 19.0709 81.3313 18.5788 81.959 18.5788C82.5868 18.5788 83.08 19.0709 83.08 19.6972C83.08 20.3235 82.5868 20.8156 81.959 20.8156ZM72.9912 23.0525C72.3635 23.0525 71.8702 22.5604 71.8702 21.9341C71.8702 21.3078 72.3635 20.8156 72.9912 20.8156C73.619 20.8156 74.1122 21.3078 74.1122 21.9341C74.1122 22.5604 73.619 23.0525 72.9912 23.0525ZM68.5073 23.0525C67.8796 23.0525 67.3863 22.5604 67.3863 21.9341C67.3863 21.3078 67.8796 20.8156 68.5073 20.8156C69.135 20.8156 69.6283 21.3078 69.6283 21.9341C69.6283 22.5604 69.135 23.0525 68.5073 23.0525ZM81.959 23.0525C81.3313 23.0525 80.838 22.5604 80.838 21.9341C80.838 21.3078 81.3313 20.8156 81.959 20.8156C82.5868 20.8156 83.08 21.3078 83.08 21.9341C83.08 22.5604 82.5868 23.0525 81.959 23.0525ZM55.0556 23.0525C54.4278 23.0525 53.9346 22.5604 53.9346 21.9341C53.9346 21.3078 54.4278 20.8156 55.0556 20.8156C55.6833 20.8156 56.1766 21.3078 56.1766 21.9341C56.1766 22.5604 55.6833 23.0525 55.0556 23.0525ZM88.6849 23.0525C88.0571 23.0525 87.5639 22.5604 87.5639 21.9341C87.5639 21.3078 88.0571 20.8156 88.6849 20.8156C89.3126 20.8156 89.8058 21.3078 89.8058 21.9341C89.8058 22.5604 89.3126 23.0525 88.6849 23.0525ZM61.7814 23.0525C61.1537 23.0525 60.6605 22.5604 60.6605 21.9341C60.6605 21.3078 61.1537 20.8156 61.7814 20.8156C62.4092 20.8156 62.9024 21.3078 62.9024 21.9341C62.9024 22.5604 62.4092 23.0525 61.7814 23.0525ZM57.2975 23.0525C56.6698 23.0525 56.1766 22.5604 56.1766 21.9341C56.1766 21.3078 56.6698 20.8156 57.2975 20.8156C57.9253 20.8156 58.4185 21.3078 58.4185 21.9341C58.4185 22.5604 57.9253 23.0525 57.2975 23.0525ZM75.2332 23.0525C74.6054 23.0525 74.1122 22.5604 74.1122 21.9341C74.1122 21.3078 74.6054 20.8156 75.2332 20.8156C75.8609 20.8156 76.3541 21.3078 76.3541 21.9341C76.3541 22.5604 75.8609 23.0525 75.2332 23.0525ZM86.4429 23.0525C85.8152 23.0525 85.3219 22.5604 85.3219 21.9341C85.3219 21.3078 85.8152 20.8156 86.4429 20.8156C87.0707 20.8156 87.5639 21.3078 87.5639 21.9341C87.5639 22.5604 87.0707 23.0525 86.4429 23.0525ZM59.5395 23.0525C58.9118 23.0525 58.4185 22.5604 58.4185 21.9341C58.4185 21.3078 58.9118 20.8156 59.5395 20.8156C60.1672 20.8156 60.6605 21.3078 60.6605 21.9341C60.6605 22.5604 60.1672 23.0525 59.5395 23.0525ZM84.201 23.0525C83.5732 23.0525 83.08 22.5604 83.08 21.9341C83.08 21.3078 83.5732 20.8156 84.201 20.8156C84.8287 20.8156 85.3219 21.3078 85.3219 21.9341C85.3219 22.5604 84.8287 23.0525 84.201 23.0525ZM70.7493 23.0525C70.1215 23.0525 69.6283 22.5604 69.6283 21.9341C69.6283 21.3078 70.1215 20.8156 70.7493 20.8156C71.377 20.8156 71.8702 21.3078 71.8702 21.9341C71.8702 22.5604 71.377 23.0525 70.7493 23.0525ZM84.201 25.2894C83.5732 25.2894 83.08 24.7973 83.08 24.171C83.08 23.5446 83.5732 23.0525 84.201 23.0525C84.8287 23.0525 85.3219 23.5446 85.3219 24.171C85.3219 24.7973 84.8287 25.2894 84.201 25.2894ZM86.4429 25.2894C85.8152 25.2894 85.3219 24.7973 85.3219 24.171C85.3219 23.5446 85.8152 23.0525 86.4429 23.0525C87.0707 23.0525 87.5639 23.5446 87.5639 24.171C87.5639 24.7973 87.0707 25.2894 86.4429 25.2894ZM55.0556 25.2894C54.4278 25.2894 53.9346 24.7973 53.9346 24.171C53.9346 23.5446 54.4278 23.0525 55.0556 23.0525C55.6833 23.0525 56.1766 23.5446 56.1766 24.171C56.1766 24.7973 55.6833 25.2894 55.0556 25.2894ZM88.6849 25.2894C88.0571 25.2894 87.5639 24.7973 87.5639 24.171C87.5639 23.5446 88.0571 23.0525 88.6849 23.0525C89.3126 23.0525 89.8058 23.5446 89.8058 24.171C89.8058 24.7973 89.3126 25.2894 88.6849 25.2894ZM81.959 25.2894C81.3313 25.2894 80.838 24.7973 80.838 24.171C80.838 23.5446 81.3313 23.0525 81.959 23.0525C82.5868 23.0525 83.08 23.5446 83.08 24.171C83.08 24.7973 82.5868 25.2894 81.959 25.2894ZM75.2332 25.2894C74.6054 25.2894 74.1122 24.7973 74.1122 24.171C74.1122 23.5446 74.6054 23.0525 75.2332 23.0525C75.8609 23.0525 76.3541 23.5446 76.3541 24.171C76.3541 24.7973 75.8609 25.2894 75.2332 25.2894ZM70.7493 25.2894C70.1215 25.2894 69.6283 24.7973 69.6283 24.171C69.6283 23.5446 70.1215 23.0525 70.7493 23.0525C71.377 23.0525 71.8702 23.5446 71.8702 24.171C71.8702 24.7973 71.377 25.2894 70.7493 25.2894ZM68.5073 25.2894C67.8796 25.2894 67.3863 24.7973 67.3863 24.171C67.3863 23.5446 67.8796 23.0525 68.5073 23.0525C69.135 23.0525 69.6283 23.5446 69.6283 24.171C69.6283 24.7973 69.135 25.2894 68.5073 25.2894ZM57.2975 25.2894C56.6698 25.2894 56.1766 24.7973 56.1766 24.171C56.1766 23.5446 56.6698 23.0525 57.2975 23.0525C57.9253 23.0525 58.4185 23.5446 58.4185 24.171C58.4185 24.7973 57.9253 25.2894 57.2975 25.2894ZM61.7814 25.2894C61.1537 25.2894 60.6605 24.7973 60.6605 24.171C60.6605 23.5446 61.1537 23.0525 61.7814 23.0525C62.4092 23.0525 62.9024 23.5446 62.9024 24.171C62.9024 24.7973 62.4092 25.2894 61.7814 25.2894ZM59.5395 25.2894C58.9118 25.2894 58.4185 24.7973 58.4185 24.171C58.4185 23.5446 58.9118 23.0525 59.5395 23.0525C60.1672 23.0525 60.6605 23.5446 60.6605 24.171C60.6605 24.7973 60.1672 25.2894 59.5395 25.2894ZM72.9912 25.2894C72.3635 25.2894 71.8702 24.7973 71.8702 24.171C71.8702 23.5446 72.3635 23.0525 72.9912 23.0525C73.619 23.0525 74.1122 23.5446 74.1122 24.171C74.1122 24.7973 73.619 25.2894 72.9912 25.2894ZM88.6849 27.5263C88.0571 27.5263 87.5639 27.0341 87.5639 26.4078C87.5639 25.7815 88.0571 25.2894 88.6849 25.2894C89.3126 25.2894 89.8058 25.7815 89.8058 26.4078C89.8058 27.0341 89.3126 27.5263 88.6849 27.5263ZM84.201 27.5263C83.5732 27.5263 83.08 27.0341 83.08 26.4078C83.08 25.7815 83.5732 25.2894 84.201 25.2894C84.8287 25.2894 85.3219 25.7815 85.3219 26.4078C85.3219 27.0341 84.8287 27.5263 84.201 27.5263ZM86.4429 27.5263C85.8152 27.5263 85.3219 27.0341 85.3219 26.4078C85.3219 25.7815 85.8152 25.2894 86.4429 25.2894C87.0707 25.2894 87.5639 25.7815 87.5639 26.4078C87.5639 27.0341 87.0707 27.5263 86.4429 27.5263ZM59.5395 27.5263C58.9118 27.5263 58.4185 27.0341 58.4185 26.4078C58.4185 25.7815 58.9118 25.2894 59.5395 25.2894C60.1672 25.2894 60.6605 25.7815 60.6605 26.4078C60.6605 27.0341 60.1672 27.5263 59.5395 27.5263ZM55.0556 27.5263C54.4278 27.5263 53.9346 27.0341 53.9346 26.4078C53.9346 25.7815 54.4278 25.2894 55.0556 25.2894C55.6833 25.2894 56.1766 25.7815 56.1766 26.4078C56.1766 27.0341 55.6833 27.5263 55.0556 27.5263ZM81.959 27.5263C81.3313 27.5263 80.838 27.0341 80.838 26.4078C80.838 25.7815 81.3313 25.2894 81.959 25.2894C82.5868 25.2894 83.08 25.7815 83.08 26.4078C83.08 27.0341 82.5868 27.5263 81.959 27.5263ZM57.2975 27.5263C56.6698 27.5263 56.1766 27.0341 56.1766 26.4078C56.1766 25.7815 56.6698 25.2894 57.2975 25.2894C57.9253 25.2894 58.4185 25.7815 58.4185 26.4078C58.4185 27.0341 57.9253 27.5263 57.2975 27.5263ZM75.2332 27.5263C74.6054 27.5263 74.1122 27.0341 74.1122 26.4078C74.1122 25.7815 74.6054 25.2894 75.2332 25.2894C75.8609 25.2894 76.3541 25.7815 76.3541 26.4078C76.3541 27.0341 75.8609 27.5263 75.2332 27.5263ZM70.7493 27.5263C70.1215 27.5263 69.6283 27.0341 69.6283 26.4078C69.6283 25.7815 70.1215 25.2894 70.7493 25.2894C71.377 25.2894 71.8702 25.7815 71.8702 26.4078C71.8702 27.0341 71.377 27.5263 70.7493 27.5263ZM68.5073 27.5263C67.8796 27.5263 67.3863 27.0341 67.3863 26.4078C67.3863 25.7815 67.8796 25.2894 68.5073 25.2894C69.135 25.2894 69.6283 25.7815 69.6283 26.4078C69.6283 27.0341 69.135 27.5263 68.5073 27.5263ZM61.7814 27.5263C61.1537 27.5263 60.6605 27.0341 60.6605 26.4078C60.6605 25.7815 61.1537 25.2894 61.7814 25.2894C62.4092 25.2894 62.9024 25.7815 62.9024 26.4078C62.9024 27.0341 62.4092 27.5263 61.7814 27.5263ZM72.9912 27.5263C72.3635 27.5263 71.8702 27.0341 71.8702 26.4078C71.8702 25.7815 72.3635 25.2894 72.9912 25.2894C73.619 25.2894 74.1122 25.7815 74.1122 26.4078C74.1122 27.0341 73.619 27.5263 72.9912 27.5263Z" fill="#0B0A0B"/>
<path d="M93.1688 11.8682C92.541 11.8682 92.0478 11.3761 92.0478 10.7497C92.0478 10.1234 92.541 9.63129 93.1688 9.63129C93.7965 9.63129 94.2897 10.1234 94.2897 10.7497C94.2897 11.3761 93.7965 11.8682 93.1688 11.8682ZM113.346 11.8682C112.719 11.8682 112.225 11.3761 112.225 10.7497C112.225 10.1234 112.719 9.63129 113.346 9.63129C113.974 9.63129 114.467 10.1234 114.467 10.7497C114.467 11.3761 113.974 11.8682 113.346 11.8682ZM111.104 11.8682C110.477 11.8682 109.983 11.3761 109.983 10.7497C109.983 10.1234 110.477 9.63129 111.104 9.63129C111.732 9.63129 112.225 10.1234 112.225 10.7497C112.225 11.3761 111.732 11.8682 111.104 11.8682ZM108.862 11.8682C108.235 11.8682 107.741 11.3761 107.741 10.7497C107.741 10.1234 108.235 9.63129 108.862 9.63129C109.49 9.63129 109.983 10.1234 109.983 10.7497C109.983 11.3761 109.49 11.8682 108.862 11.8682ZM106.62 11.8682C105.993 11.8682 105.5 11.3761 105.5 10.7497C105.5 10.1234 105.993 9.63129 106.62 9.63129C107.248 9.63129 107.741 10.1234 107.741 10.7497C107.741 11.3761 107.248 11.8682 106.62 11.8682ZM104.379 11.8682C103.751 11.8682 103.258 11.3761 103.258 10.7497C103.258 10.1234 103.751 9.63129 104.379 9.63129C105.006 9.63129 105.5 10.1234 105.5 10.7497C105.5 11.3761 105.006 11.8682 104.379 11.8682ZM99.8946 11.8682C99.2669 11.8682 98.7737 11.3761 98.7737 10.7497C98.7737 10.1234 99.2669 9.63129 99.8946 9.63129C100.522 9.63129 101.016 10.1234 101.016 10.7497C101.016 11.3761 100.522 11.8682 99.8946 11.8682ZM97.6527 11.8682C97.0249 11.8682 96.5317 11.3761 96.5317 10.7497C96.5317 10.1234 97.0249 9.63129 97.6527 9.63129C98.2804 9.63129 98.7737 10.1234 98.7737 10.7497C98.7737 11.3761 98.2804 11.8682 97.6527 11.8682ZM95.4107 11.8682C94.783 11.8682 94.2897 11.3761 94.2897 10.7497C94.2897 10.1234 94.783 9.63129 95.4107 9.63129C96.0385 9.63129 96.5317 10.1234 96.5317 10.7497C96.5317 11.3761 96.0385 11.8682 95.4107 11.8682ZM93.1688 14.105C92.541 14.105 92.0478 13.6129 92.0478 12.9866C92.0478 12.3603 92.541 11.8682 93.1688 11.8682C93.7965 11.8682 94.2897 12.3603 94.2897 12.9866C94.2897 13.6129 93.7965 14.105 93.1688 14.105ZM115.588 14.105C114.961 14.105 114.467 13.6129 114.467 12.9866C114.467 12.3603 114.961 11.8682 115.588 11.8682C116.216 11.8682 116.709 12.3603 116.709 12.9866C116.709 13.6129 116.216 14.105 115.588 14.105ZM113.346 14.105C112.719 14.105 112.225 13.6129 112.225 12.9866C112.225 12.3603 112.719 11.8682 113.346 11.8682C113.974 11.8682 114.467 12.3603 114.467 12.9866C114.467 13.6129 113.974 14.105 113.346 14.105ZM111.104 14.105C110.477 14.105 109.983 13.6129 109.983 12.9866C109.983 12.3603 110.477 11.8682 111.104 11.8682C111.732 11.8682 112.225 12.3603 112.225 12.9866C112.225 13.6129 111.732 14.105 111.104 14.105ZM108.862 14.105C108.235 14.105 107.741 13.6129 107.741 12.9866C107.741 12.3603 108.235 11.8682 108.862 11.8682C109.49 11.8682 109.983 12.3603 109.983 12.9866C109.983 13.6129 109.49 14.105 108.862 14.105ZM95.4107 14.105C94.783 14.105 94.2897 13.6129 94.2897 12.9866C94.2897 12.3603 94.783 11.8682 95.4107 11.8682C96.0385 11.8682 96.5317 12.3603 96.5317 12.9866C96.5317 13.6129 96.0385 14.105 95.4107 14.105ZM106.62 14.105C105.993 14.105 105.5 13.6129 105.5 12.9866C105.5 12.3603 105.993 11.8682 106.62 11.8682C107.248 11.8682 107.741 12.3603 107.741 12.9866C107.741 13.6129 107.248 14.105 106.62 14.105ZM104.379 14.105C103.751 14.105 103.258 13.6129 103.258 12.9866C103.258 12.3603 103.751 11.8682 104.379 11.8682C105.006 11.8682 105.5 12.3603 105.5 12.9866C105.5 13.6129 105.006 14.105 104.379 14.105ZM102.137 14.105C101.509 14.105 101.016 13.6129 101.016 12.9866C101.016 12.3603 101.509 11.8682 102.137 11.8682C102.764 11.8682 103.258 12.3603 103.258 12.9866C103.258 13.6129 102.764 14.105 102.137 14.105ZM99.8946 14.105C99.2669 14.105 98.7737 13.6129 98.7737 12.9866C98.7737 12.3603 99.2669 11.8682 99.8946 11.8682C100.522 11.8682 101.016 12.3603 101.016 12.9866C101.016 13.6129 100.522 14.105 99.8946 14.105ZM97.6527 14.105C97.0249 14.105 96.5317 13.6129 96.5317 12.9866C96.5317 12.3603 97.0249 11.8682 97.6527 11.8682C98.2804 11.8682 98.7737 12.3603 98.7737 12.9866C98.7737 13.6129 98.2804 14.105 97.6527 14.105ZM97.6527 16.3419C97.0249 16.3419 96.5317 15.8498 96.5317 15.2235C96.5317 14.5971 97.0249 14.105 97.6527 14.105C98.2804 14.105 98.7737 14.5971 98.7737 15.2235C98.7737 15.8498 98.2804 16.3419 97.6527 16.3419ZM115.588 16.3419C114.961 16.3419 114.467 15.8498 114.467 15.2235C114.467 14.5971 114.961 14.105 115.588 14.105C116.216 14.105 116.709 14.5971 116.709 15.2235C116.709 15.8498 116.216 16.3419 115.588 16.3419ZM117.83 16.3419C117.202 16.3419 116.709 15.8498 116.709 15.2235C116.709 14.5971 117.202 14.105 117.83 14.105C118.458 14.105 118.951 14.5971 118.951 15.2235C118.951 15.8498 118.458 16.3419 117.83 16.3419ZM99.8946 16.3419C99.2669 16.3419 98.7737 15.8498 98.7737 15.2235C98.7737 14.5971 99.2669 14.105 99.8946 14.105C100.522 14.105 101.016 14.5971 101.016 15.2235C101.016 15.8498 100.522 16.3419 99.8946 16.3419ZM113.346 16.3419C112.719 16.3419 112.225 15.8498 112.225 15.2235C112.225 14.5971 112.719 14.105 113.346 14.105C113.974 14.105 114.467 14.5971 114.467 15.2235C114.467 15.8498 113.974 16.3419 113.346 16.3419ZM111.104 16.3419C110.477 16.3419 109.983 15.8498 109.983 15.2235C109.983 14.5971 110.477 14.105 111.104 14.105C111.732 14.105 112.225 14.5971 112.225 15.2235C112.225 15.8498 111.732 16.3419 111.104 16.3419ZM102.137 16.3419C101.509 16.3419 101.016 15.8498 101.016 15.2235C101.016 14.5971 101.509 14.105 102.137 14.105C102.764 14.105 103.258 14.5971 103.258 15.2235C103.258 15.8498 102.764 16.3419 102.137 16.3419ZM95.4107 16.3419C94.783 16.3419 94.2897 15.8498 94.2897 15.2235C94.2897 14.5971 94.783 14.105 95.4107 14.105C96.0385 14.105 96.5317 14.5971 96.5317 15.2235C96.5317 15.8498 96.0385 16.3419 95.4107 16.3419ZM108.862 16.3419C108.235 16.3419 107.741 15.8498 107.741 15.2235C107.741 14.5971 108.235 14.105 108.862 14.105C109.49 14.105 109.983 14.5971 109.983 15.2235C109.983 15.8498 109.49 16.3419 108.862 16.3419ZM93.1688 16.3419C92.541 16.3419 92.0478 15.8498 92.0478 15.2235C92.0478 14.5971 92.541 14.105 93.1688 14.105C93.7965 14.105 94.2897 14.5971 94.2897 15.2235C94.2897 15.8498 93.7965 16.3419 93.1688 16.3419ZM95.4107 18.5788C94.783 18.5788 94.2897 18.0867 94.2897 17.4603C94.2897 16.834 94.783 16.3419 95.4107 16.3419C96.0385 16.3419 96.5317 16.834 96.5317 17.4603C96.5317 18.0867 96.0385 18.5788 95.4107 18.5788ZM93.1688 18.5788C92.541 18.5788 92.0478 18.0867 92.0478 17.4603C92.0478 16.834 92.541 16.3419 93.1688 16.3419C93.7965 16.3419 94.2897 16.834 94.2897 17.4603C94.2897 18.0867 93.7965 18.5788 93.1688 18.5788ZM117.83 18.5788C117.202 18.5788 116.709 18.0867 116.709 17.4603C116.709 16.834 117.202 16.3419 117.83 16.3419C118.458 16.3419 118.951 16.834 118.951 17.4603C118.951 18.0867 118.458 18.5788 117.83 18.5788ZM97.6527 18.5788C97.0249 18.5788 96.5317 18.0867 96.5317 17.4603C96.5317 16.834 97.0249 16.3419 97.6527 16.3419C98.2804 16.3419 98.7737 16.834 98.7737 17.4603C98.7737 18.0867 98.2804 18.5788 97.6527 18.5788ZM99.8946 18.5788C99.2669 18.5788 98.7737 18.0867 98.7737 17.4603C98.7737 16.834 99.2669 16.3419 99.8946 16.3419C100.522 16.3419 101.016 16.834 101.016 17.4603C101.016 18.0867 100.522 18.5788 99.8946 18.5788ZM111.104 18.5788C110.477 18.5788 109.983 18.0867 109.983 17.4603C109.983 16.834 110.477 16.3419 111.104 16.3419C111.732 16.3419 112.225 16.834 112.225 17.4603C112.225 18.0867 111.732 18.5788 111.104 18.5788ZM115.588 18.5788C114.961 18.5788 114.467 18.0867 114.467 17.4603C114.467 16.834 114.961 16.3419 115.588 16.3419C116.216 16.3419 116.709 16.834 116.709 17.4603C116.709 18.0867 116.216 18.5788 115.588 18.5788ZM113.346 18.5788C112.719 18.5788 112.225 18.0867 112.225 17.4603C112.225 16.834 112.719 16.3419 113.346 16.3419C113.974 16.3419 114.467 16.834 114.467 17.4603C114.467 18.0867 113.974 18.5788 113.346 18.5788ZM113.346 20.8156C112.719 20.8156 112.225 20.3235 112.225 19.6972C112.225 19.0709 112.719 18.5788 113.346 18.5788C113.974 18.5788 114.467 19.0709 114.467 19.6972C114.467 20.3235 113.974 20.8156 113.346 20.8156ZM97.6527 20.8156C97.0249 20.8156 96.5317 20.3235 96.5317 19.6972C96.5317 19.0709 97.0249 18.5788 97.6527 18.5788C98.2804 18.5788 98.7737 19.0709 98.7737 19.6972C98.7737 20.3235 98.2804 20.8156 97.6527 20.8156ZM117.83 20.8156C117.202 20.8156 116.709 20.3235 116.709 19.6972C116.709 19.0709 117.202 18.5788 117.83 18.5788C118.458 18.5788 118.951 19.0709 118.951 19.6972C118.951 20.3235 118.458 20.8156 117.83 20.8156ZM99.8946 20.8156C99.2669 20.8156 98.7737 20.3235 98.7737 19.6972C98.7737 19.0709 99.2669 18.5788 99.8946 18.5788C100.522 18.5788 101.016 19.0709 101.016 19.6972C101.016 20.3235 100.522 20.8156 99.8946 20.8156ZM111.104 20.8156C110.477 20.8156 109.983 20.3235 109.983 19.6972C109.983 19.0709 110.477 18.5788 111.104 18.5788C111.732 18.5788 112.225 19.0709 112.225 19.6972C112.225 20.3235 111.732 20.8156 111.104 20.8156ZM95.4107 20.8156C94.783 20.8156 94.2897 20.3235 94.2897 19.6972C94.2897 19.0709 94.783 18.5788 95.4107 18.5788C96.0385 18.5788 96.5317 19.0709 96.5317 19.6972C96.5317 20.3235 96.0385 20.8156 95.4107 20.8156ZM115.588 20.8156C114.961 20.8156 114.467 20.3235 114.467 19.6972C114.467 19.0709 114.961 18.5788 115.588 18.5788C116.216 18.5788 116.709 19.0709 116.709 19.6972C116.709 20.3235 116.216 20.8156 115.588 20.8156ZM93.1688 20.8156C92.541 20.8156 92.0478 20.3235 92.0478 19.6972C92.0478 19.0709 92.541 18.5788 93.1688 18.5788C93.7965 18.5788 94.2897 19.0709 94.2897 19.6972C94.2897 20.3235 93.7965 20.8156 93.1688 20.8156ZM97.6527 23.0525C97.0249 23.0525 96.5317 22.5604 96.5317 21.9341C96.5317 21.3078 97.0249 20.8156 97.6527 20.8156C98.2804 20.8156 98.7737 21.3078 98.7737 21.9341C98.7737 22.5604 98.2804 23.0525 97.6527 23.0525ZM93.1688 23.0525C92.541 23.0525 92.0478 22.5604 92.0478 21.9341C92.0478 21.3078 92.541 20.8156 93.1688 20.8156C93.7965 20.8156 94.2897 21.3078 94.2897 21.9341C94.2897 22.5604 93.7965 23.0525 93.1688 23.0525ZM115.588 23.0525C114.961 23.0525 114.467 22.5604 114.467 21.9341C114.467 21.3078 114.961 20.8156 115.588 20.8156C116.216 20.8156 116.709 21.3078 116.709 21.9341C116.709 22.5604 116.216 23.0525 115.588 23.0525ZM95.4107 23.0525C94.783 23.0525 94.2897 22.5604 94.2897 21.9341C94.2897 21.3078 94.783 20.8156 95.4107 20.8156C96.0385 20.8156 96.5317 21.3078 96.5317 21.9341C96.5317 22.5604 96.0385 23.0525 95.4107 23.0525ZM117.83 23.0525C117.202 23.0525 116.709 22.5604 116.709 21.9341C116.709 21.3078 117.202 20.8156 117.83 20.8156C118.458 20.8156 118.951 21.3078 118.951 21.9341C118.951 22.5604 118.458 23.0525 117.83 23.0525ZM111.104 23.0525C110.477 23.0525 109.983 22.5604 109.983 21.9341C109.983 21.3078 110.477 20.8156 111.104 20.8156C111.732 20.8156 112.225 21.3078 112.225 21.9341C112.225 22.5604 111.732 23.0525 111.104 23.0525ZM99.8946 23.0525C99.2669 23.0525 98.7737 22.5604 98.7737 21.9341C98.7737 21.3078 99.2669 20.8156 99.8946 20.8156C100.522 20.8156 101.016 21.3078 101.016 21.9341C101.016 22.5604 100.522 23.0525 99.8946 23.0525ZM108.862 23.0525C108.235 23.0525 107.741 22.5604 107.741 21.9341C107.741 21.3078 108.235 20.8156 108.862 20.8156C109.49 20.8156 109.983 21.3078 109.983 21.9341C109.983 22.5604 109.49 23.0525 108.862 23.0525ZM113.346 23.0525C112.719 23.0525 112.225 22.5604 112.225 21.9341C112.225 21.3078 112.719 20.8156 113.346 20.8156C113.974 20.8156 114.467 21.3078 114.467 21.9341C114.467 22.5604 113.974 23.0525 113.346 23.0525ZM113.346 25.2894C112.719 25.2894 112.225 24.7973 112.225 24.171C112.225 23.5446 112.719 23.0525 113.346 23.0525C113.974 23.0525 114.467 23.5446 114.467 24.171C114.467 24.7973 113.974 25.2894 113.346 25.2894ZM93.1688 25.2894C92.541 25.2894 92.0478 24.7973 92.0478 24.171C92.0478 23.5446 92.541 23.0525 93.1688 23.0525C93.7965 23.0525 94.2897 23.5446 94.2897 24.171C94.2897 24.7973 93.7965 25.2894 93.1688 25.2894ZM115.588 25.2894C114.961 25.2894 114.467 24.7973 114.467 24.171C114.467 23.5446 114.961 23.0525 115.588 23.0525C116.216 23.0525 116.709 23.5446 116.709 24.171C116.709 24.7973 116.216 25.2894 115.588 25.2894ZM102.137 25.2894C101.509 25.2894 101.016 24.7973 101.016 24.171C101.016 23.5446 101.509 23.0525 102.137 23.0525C102.764 23.0525 103.258 23.5446 103.258 24.171C103.258 24.7973 102.764 25.2894 102.137 25.2894ZM104.379 25.2894C103.751 25.2894 103.258 24.7973 103.258 24.171C103.258 23.5446 103.751 23.0525 104.379 23.0525C105.006 23.0525 105.5 23.5446 105.5 24.171C105.5 24.7973 105.006 25.2894 104.379 25.2894ZM106.62 25.2894C105.993 25.2894 105.5 24.7973 105.5 24.171C105.5 23.5446 105.993 23.0525 106.62 23.0525C107.248 23.0525 107.741 23.5446 107.741 24.171C107.741 24.7973 107.248 25.2894 106.62 25.2894ZM108.862 25.2894C108.235 25.2894 107.741 24.7973 107.741 24.171C107.741 23.5446 108.235 23.0525 108.862 23.0525C109.49 23.0525 109.983 23.5446 109.983 24.171C109.983 24.7973 109.49 25.2894 108.862 25.2894ZM111.104 25.2894C110.477 25.2894 109.983 24.7973 109.983 24.171C109.983 23.5446 110.477 23.0525 111.104 23.0525C111.732 23.0525 112.225 23.5446 112.225 24.171C112.225 24.7973 111.732 25.2894 111.104 25.2894ZM99.8946 25.2894C99.2669 25.2894 98.7737 24.7973 98.7737 24.171C98.7737 23.5446 99.2669 23.0525 99.8946 23.0525C100.522 23.0525 101.016 23.5446 101.016 24.171C101.016 24.7973 100.522 25.2894 99.8946 25.2894ZM97.6527 25.2894C97.0249 25.2894 96.5317 24.7973 96.5317 24.171C96.5317 23.5446 97.0249 23.0525 97.6527 23.0525C98.2804 23.0525 98.7737 23.5446 98.7737 24.171C98.7737 24.7973 98.2804 25.2894 97.6527 25.2894ZM95.4107 25.2894C94.783 25.2894 94.2897 24.7973 94.2897 24.171C94.2897 23.5446 94.783 23.0525 95.4107 23.0525C96.0385 23.0525 96.5317 23.5446 96.5317 24.171C96.5317 24.7973 96.0385 25.2894 95.4107 25.2894ZM104.379 27.5263C103.751 27.5263 103.258 27.0341 103.258 26.4078C103.258 25.7815 103.751 25.2894 104.379 25.2894C105.006 25.2894 105.5 25.7815 105.5 26.4078C105.5 27.0341 105.006 27.5263 104.379 27.5263ZM106.62 27.5263C105.993 27.5263 105.5 27.0341 105.5 26.4078C105.5 25.7815 105.993 25.2894 106.62 25.2894C107.248 25.2894 107.741 25.7815 107.741 26.4078C107.741 27.0341 107.248 27.5263 106.62 27.5263ZM108.862 27.5263C108.235 27.5263 107.741 27.0341 107.741 26.4078C107.741 25.7815 108.235 25.2894 108.862 25.2894C109.49 25.2894 109.983 25.7815 109.983 26.4078C109.983 27.0341 109.49 27.5263 108.862 27.5263ZM95.4107 27.5263C94.783 27.5263 94.2897 27.0341 94.2897 26.4078C94.2897 25.7815 94.783 25.2894 95.4107 25.2894C96.0385 25.2894 96.5317 25.7815 96.5317 26.4078C96.5317 27.0341 96.0385 27.5263 95.4107 27.5263ZM102.137 27.5263C101.509 27.5263 101.016 27.0341 101.016 26.4078C101.016 25.7815 101.509 25.2894 102.137 25.2894C102.764 25.2894 103.258 25.7815 103.258 26.4078C103.258 27.0341 102.764 27.5263 102.137 27.5263ZM111.104 27.5263C110.477 27.5263 109.983 27.0341 109.983 26.4078C109.983 25.7815 110.477 25.2894 111.104 25.2894C111.732 25.2894 112.225 25.7815 112.225 26.4078C112.225 27.0341 111.732 27.5263 111.104 27.5263ZM99.8946 27.5263C99.2669 27.5263 98.7737 27.0341 98.7737 26.4078C98.7737 25.7815 99.2669 25.2894 99.8946 25.2894C100.522 25.2894 101.016 25.7815 101.016 26.4078C101.016 27.0341 100.522 27.5263 99.8946 27.5263ZM93.1688 27.5263C92.541 27.5263 92.0478 27.0341 92.0478 26.4078C92.0478 25.7815 92.541 25.2894 93.1688 25.2894C93.7965 25.2894 94.2897 25.7815 94.2897 26.4078C94.2897 27.0341 93.7965 27.5263 93.1688 27.5263ZM97.6527 27.5263C97.0249 27.5263 96.5317 27.0341 96.5317 26.4078C96.5317 25.7815 97.0249 25.2894 97.6527 25.2894C98.2804 25.2894 98.7737 25.7815 98.7737 26.4078C98.7737 27.0341 98.2804 27.5263 97.6527 27.5263ZM99.8946 29.7631C99.2669 29.7631 98.7737 29.271 98.7737 28.6447C98.7737 28.0184 99.2669 27.5263 99.8946 27.5263C100.522 27.5263 101.016 28.0184 101.016 28.6447C101.016 29.271 100.522 29.7631 99.8946 29.7631ZM93.1688 29.7631C92.541 29.7631 92.0478 29.271 92.0478 28.6447C92.0478 28.0184 92.541 27.5263 93.1688 27.5263C93.7965 27.5263 94.2897 28.0184 94.2897 28.6447C94.2897 29.271 93.7965 29.7631 93.1688 29.7631ZM95.4107 29.7631C94.783 29.7631 94.2897 29.271 94.2897 28.6447C94.2897 28.0184 94.783 27.5263 95.4107 27.5263C96.0385 27.5263 96.5317 28.0184 96.5317 28.6447C96.5317 29.271 96.0385 29.7631 95.4107 29.7631ZM97.6527 29.7631C97.0249 29.7631 96.5317 29.271 96.5317 28.6447C96.5317 28.0184 97.0249 27.5263 97.6527 27.5263C98.2804 27.5263 98.7737 28.0184 98.7737 28.6447C98.7737 29.271 98.2804 29.7631 97.6527 29.7631ZM93.1688 32C92.541 32 92.0478 31.5079 92.0478 30.8816C92.0478 30.2552 92.541 29.7631 93.1688 29.7631C93.7965 29.7631 94.2897 30.2552 94.2897 30.8816C94.2897 31.5079 93.7965 32 93.1688 32ZM99.8946 32C99.2669 32 98.7737 31.5079 98.7737 30.8816C98.7737 30.2552 99.2669 29.7631 99.8946 29.7631C100.522 29.7631 101.016 30.2552 101.016 30.8816C101.016 31.5079 100.522 32 99.8946 32ZM97.6527 32C97.0249 32 96.5317 31.5079 96.5317 30.8816C96.5317 30.2552 97.0249 29.7631 97.6527 29.7631C98.2804 29.7631 98.7737 30.2552 98.7737 30.8816C98.7737 31.5079 98.2804 32 97.6527 32ZM95.4107 32C94.783 32 94.2897 31.5079 94.2897 30.8816C94.2897 30.2552 94.783 29.7631 95.4107 29.7631C96.0385 29.7631 96.5317 30.2552 96.5317 30.8816C96.5317 31.5079 96.0385 32 95.4107 32Z" fill="#0B0A0B"/>
<path d="M129.04 5.15755C128.412 5.15755 127.919 4.66544 127.919 4.03912C127.919 3.41279 128.412 2.92068 129.04 2.92068C129.668 2.92068 130.161 3.41279 130.161 4.03912C130.161 4.66544 129.668 5.15755 129.04 5.15755ZM126.798 5.15755C126.17 5.15755 125.677 4.66544 125.677 4.03912C125.677 3.41279 126.17 2.92068 126.798 2.92068C127.426 2.92068 127.919 3.41279 127.919 4.03912C127.919 4.66544 127.426 5.15755 126.798 5.15755ZM124.556 5.15755C123.928 5.15755 123.435 4.66544 123.435 4.03912C123.435 3.41279 123.928 2.92068 124.556 2.92068C125.184 2.92068 125.677 3.41279 125.677 4.03912C125.677 4.66544 125.184 5.15755 124.556 5.15755ZM122.314 5.15755C121.686 5.15755 121.193 4.66544 121.193 4.03912C121.193 3.41279 121.686 2.92068 122.314 2.92068C122.942 2.92068 123.435 3.41279 123.435 4.03912C123.435 4.66544 122.942 5.15755 122.314 5.15755ZM122.314 7.39442C121.686 7.39442 121.193 6.90231 121.193 6.27599C121.193 5.64966 121.686 5.15755 122.314 5.15755C122.942 5.15755 123.435 5.64966 123.435 6.27599C123.435 6.90231 122.942 7.39442 122.314 7.39442ZM124.556 7.39442C123.928 7.39442 123.435 6.90231 123.435 6.27599C123.435 5.64966 123.928 5.15755 124.556 5.15755C125.184 5.15755 125.677 5.64966 125.677 6.27599C125.677 6.90231 125.184 7.39442 124.556 7.39442ZM126.798 7.39442C126.17 7.39442 125.677 6.90231 125.677 6.27599C125.677 5.64966 126.17 5.15755 126.798 5.15755C127.426 5.15755 127.919 5.64966 127.919 6.27599C127.919 6.90231 127.426 7.39442 126.798 7.39442ZM129.04 7.39442C128.412 7.39442 127.919 6.90231 127.919 6.27599C127.919 5.64966 128.412 5.15755 129.04 5.15755C129.668 5.15755 130.161 5.64966 130.161 6.27599C130.161 6.90231 129.668 7.39442 129.04 7.39442ZM124.556 9.63129C123.928 9.63129 123.435 9.13918 123.435 8.51286C123.435 7.88653 123.928 7.39442 124.556 7.39442C125.184 7.39442 125.677 7.88653 125.677 8.51286C125.677 9.13918 125.184 9.63129 124.556 9.63129ZM126.798 9.63129C126.17 9.63129 125.677 9.13918 125.677 8.51286C125.677 7.88653 126.17 7.39442 126.798 7.39442C127.426 7.39442 127.919 7.88653 127.919 8.51286C127.919 9.13918 127.426 9.63129 126.798 9.63129ZM129.04 9.63129C128.412 9.63129 127.919 9.13918 127.919 8.51286C127.919 7.88653 128.412 7.39442 129.04 7.39442C129.668 7.39442 130.161 7.88653 130.161 8.51286C130.161 9.13918 129.668 9.63129 129.04 9.63129ZM122.314 9.63129C121.686 9.63129 121.193 9.13918 121.193 8.51286C121.193 7.88653 121.686 7.39442 122.314 7.39442C122.942 7.39442 123.435 7.88653 123.435 8.51286C123.435 9.13918 122.942 9.63129 122.314 9.63129ZM129.04 11.8682C128.412 11.8682 127.919 11.3761 127.919 10.7497C127.919 10.1234 128.412 9.63129 129.04 9.63129C129.668 9.63129 130.161 10.1234 130.161 10.7497C130.161 11.3761 129.668 11.8682 129.04 11.8682ZM122.314 11.8682C121.686 11.8682 121.193 11.3761 121.193 10.7497C121.193 10.1234 121.686 9.63129 122.314 9.63129C122.942 9.63129 123.435 10.1234 123.435 10.7497C123.435 11.3761 122.942 11.8682 122.314 11.8682ZM124.556 11.8682C123.928 11.8682 123.435 11.3761 123.435 10.7497C123.435 10.1234 123.928 9.63129 124.556 9.63129C125.184 9.63129 125.677 10.1234 125.677 10.7497C125.677 11.3761 125.184 11.8682 124.556 11.8682ZM126.798 11.8682C126.17 11.8682 125.677 11.3761 125.677 10.7497C125.677 10.1234 126.17 9.63129 126.798 9.63129C127.426 9.63129 127.919 10.1234 127.919 10.7497C127.919 11.3761 127.426 11.8682 126.798 11.8682ZM124.556 14.105C123.928 14.105 123.435 13.6129 123.435 12.9866C123.435 12.3603 123.928 11.8682 124.556 11.8682C125.184 11.8682 125.677 12.3603 125.677 12.9866C125.677 13.6129 125.184 14.105 124.556 14.105ZM129.04 14.105C128.412 14.105 127.919 13.6129 127.919 12.9866C127.919 12.3603 128.412 11.8682 129.04 11.8682C129.668 11.8682 130.161 12.3603 130.161 12.9866C130.161 13.6129 129.668 14.105 129.04 14.105ZM122.314 14.105C121.686 14.105 121.193 13.6129 121.193 12.9866C121.193 12.3603 121.686 11.8682 122.314 11.8682C122.942 11.8682 123.435 12.3603 123.435 12.9866C123.435 13.6129 122.942 14.105 122.314 14.105ZM126.798 14.105C126.17 14.105 125.677 13.6129 125.677 12.9866C125.677 12.3603 126.17 11.8682 126.798 11.8682C127.426 11.8682 127.919 12.3603 127.919 12.9866C127.919 13.6129 127.426 14.105 126.798 14.105ZM129.04 16.3419C128.412 16.3419 127.919 15.8498 127.919 15.2235C127.919 14.5971 128.412 14.105 129.04 14.105C129.668 14.105 130.161 14.5971 130.161 15.2235C130.161 15.8498 129.668 16.3419 129.04 16.3419ZM122.314 16.3419C121.686 16.3419 121.193 15.8498 121.193 15.2235C121.193 14.5971 121.686 14.105 122.314 14.105C122.942 14.105 123.435 14.5971 123.435 15.2235C123.435 15.8498 122.942 16.3419 122.314 16.3419ZM124.556 16.3419C123.928 16.3419 123.435 15.8498 123.435 15.2235C123.435 14.5971 123.928 14.105 124.556 14.105C125.184 14.105 125.677 14.5971 125.677 15.2235C125.677 15.8498 125.184 16.3419 124.556 16.3419ZM126.798 16.3419C126.17 16.3419 125.677 15.8498 125.677 15.2235C125.677 14.5971 126.17 14.105 126.798 14.105C127.426 14.105 127.919 14.5971 127.919 15.2235C127.919 15.8498 127.426 16.3419 126.798 16.3419ZM122.314 18.5788C121.686 18.5788 121.193 18.0867 121.193 17.4603C121.193 16.834 121.686 16.3419 122.314 16.3419C122.942 16.3419 123.435 16.834 123.435 17.4603C123.435 18.0867 122.942 18.5788 122.314 18.5788ZM129.04 18.5788C128.412 18.5788 127.919 18.0867 127.919 17.4603C127.919 16.834 128.412 16.3419 129.04 16.3419C129.668 16.3419 130.161 16.834 130.161 17.4603C130.161 18.0867 129.668 18.5788 129.04 18.5788ZM124.556 18.5788C123.928 18.5788 123.435 18.0867 123.435 17.4603C123.435 16.834 123.928 16.3419 124.556 16.3419C125.184 16.3419 125.677 16.834 125.677 17.4603C125.677 18.0867 125.184 18.5788 124.556 18.5788ZM126.798 18.5788C126.17 18.5788 125.677 18.0867 125.677 17.4603C125.677 16.834 126.17 16.3419 126.798 16.3419C127.426 16.3419 127.919 16.834 127.919 17.4603C127.919 18.0867 127.426 18.5788 126.798 18.5788ZM122.314 20.8156C121.686 20.8156 121.193 20.3235 121.193 19.6972C121.193 19.0709 121.686 18.5788 122.314 18.5788C122.942 18.5788 123.435 19.0709 123.435 19.6972C123.435 20.3235 122.942 20.8156 122.314 20.8156ZM129.04 20.8156C128.412 20.8156 127.919 20.3235 127.919 19.6972C127.919 19.0709 128.412 18.5788 129.04 18.5788C129.668 18.5788 130.161 19.0709 130.161 19.6972C130.161 20.3235 129.668 20.8156 129.04 20.8156ZM124.556 20.8156C123.928 20.8156 123.435 20.3235 123.435 19.6972C123.435 19.0709 123.928 18.5788 124.556 18.5788C125.184 18.5788 125.677 19.0709 125.677 19.6972C125.677 20.3235 125.184 20.8156 124.556 20.8156ZM126.798 20.8156C126.17 20.8156 125.677 20.3235 125.677 19.6972C125.677 19.0709 126.17 18.5788 126.798 18.5788C127.426 18.5788 127.919 19.0709 127.919 19.6972C127.919 20.3235 127.426 20.8156 126.798 20.8156ZM126.798 23.0525C126.17 23.0525 125.677 22.5604 125.677 21.9341C125.677 21.3078 126.17 20.8156 126.798 20.8156C127.426 20.8156 127.919 21.3078 127.919 21.9341C127.919 22.5604 127.426 23.0525 126.798 23.0525ZM124.556 23.0525C123.928 23.0525 123.435 22.5604 123.435 21.9341C123.435 21.3078 123.928 20.8156 124.556 20.8156C125.184 20.8156 125.677 21.3078 125.677 21.9341C125.677 22.5604 125.184 23.0525 124.556 23.0525ZM129.04 23.0525C128.412 23.0525 127.919 22.5604 127.919 21.9341C127.919 21.3078 128.412 20.8156 129.04 20.8156C129.668 20.8156 130.161 21.3078 130.161 21.9341C130.161 22.5604 129.668 23.0525 129.04 23.0525ZM122.314 23.0525C121.686 23.0525 121.193 22.5604 121.193 21.9341C121.193 21.3078 121.686 20.8156 122.314 20.8156C122.942 20.8156 123.435 21.3078 123.435 21.9341C123.435 22.5604 122.942 23.0525 122.314 23.0525ZM126.798 25.2894C126.17 25.2894 125.677 24.7973 125.677 24.171C125.677 23.5446 126.17 23.0525 126.798 23.0525C127.426 23.0525 127.919 23.5446 127.919 24.171C127.919 24.7973 127.426 25.2894 126.798 25.2894ZM124.556 25.2894C123.928 25.2894 123.435 24.7973 123.435 24.171C123.435 23.5446 123.928 23.0525 124.556 23.0525C125.184 23.0525 125.677 23.5446 125.677 24.171C125.677 24.7973 125.184 25.2894 124.556 25.2894ZM129.04 25.2894C128.412 25.2894 127.919 24.7973 127.919 24.171C127.919 23.5446 128.412 23.0525 129.04 23.0525C129.668 23.0525 130.161 23.5446 130.161 24.171C130.161 24.7973 129.668 25.2894 129.04 25.2894ZM122.314 25.2894C121.686 25.2894 121.193 24.7973 121.193 24.171C121.193 23.5446 121.686 23.0525 122.314 23.0525C122.942 23.0525 123.435 23.5446 123.435 24.171C123.435 24.7973 122.942 25.2894 122.314 25.2894ZM129.04 27.5263C128.412 27.5263 127.919 27.0341 127.919 26.4078C127.919 25.7815 128.412 25.2894 129.04 25.2894C129.668 25.2894 130.161 25.7815 130.161 26.4078C130.161 27.0341 129.668 27.5263 129.04 27.5263ZM122.314 27.5263C121.686 27.5263 121.193 27.0341 121.193 26.4078C121.193 25.7815 121.686 25.2894 122.314 25.2894C122.942 25.2894 123.435 25.7815 123.435 26.4078C123.435 27.0341 122.942 27.5263 122.314 27.5263ZM124.556 27.5263C123.928 27.5263 123.435 27.0341 123.435 26.4078C123.435 25.7815 123.928 25.2894 124.556 25.2894C125.184 25.2894 125.677 25.7815 125.677 26.4078C125.677 27.0341 125.184 27.5263 124.556 27.5263ZM126.798 27.5263C126.17 27.5263 125.677 27.0341 125.677 26.4078C125.677 25.7815 126.17 25.2894 126.798 25.2894C127.426 25.2894 127.919 25.7815 127.919 26.4078C127.919 27.0341 127.426 27.5263 126.798 27.5263Z" fill="#0B0A0B"/>
<path d="M142.492 7.39442C141.864 7.39442 141.371 6.90231 141.371 6.27599C141.371 5.64966 141.864 5.15755 142.492 5.15755C143.119 5.15755 143.613 5.64966 143.613 6.27599C143.613 6.90231 143.119 7.39442 142.492 7.39442ZM140.25 7.39442C139.622 7.39442 139.129 6.90231 139.129 6.27599C139.129 5.64966 139.622 5.15755 140.25 5.15755C140.878 5.15755 141.371 5.64966 141.371 6.27599C141.371 6.90231 140.878 7.39442 140.25 7.39442ZM138.008 7.39442C137.38 7.39442 136.887 6.90231 136.887 6.27599C136.887 5.64966 137.38 5.15755 138.008 5.15755C138.636 5.15755 139.129 5.64966 139.129 6.27599C139.129 6.90231 138.636 7.39442 138.008 7.39442ZM142.492 9.63129C141.864 9.63129 141.371 9.13918 141.371 8.51286C141.371 7.88653 141.864 7.39442 142.492 7.39442C143.119 7.39442 143.613 7.88653 143.613 8.51286C143.613 9.13918 143.119 9.63129 142.492 9.63129ZM135.766 9.63129C135.138 9.63129 134.645 9.13918 134.645 8.51286C134.645 7.88653 135.138 7.39442 135.766 7.39442C136.394 7.39442 136.887 7.88653 136.887 8.51286C136.887 9.13918 136.394 9.63129 135.766 9.63129ZM140.25 9.63129C139.622 9.63129 139.129 9.13918 139.129 8.51286C139.129 7.88653 139.622 7.39442 140.25 7.39442C140.878 7.39442 141.371 7.88653 141.371 8.51286C141.371 9.13918 140.878 9.63129 140.25 9.63129ZM138.008 9.63129C137.38 9.63129 136.887 9.13918 136.887 8.51286C136.887 7.88653 137.38 7.39442 138.008 7.39442C138.636 7.39442 139.129 7.88653 139.129 8.51286C139.129 9.13918 138.636 9.63129 138.008 9.63129ZM149.218 11.8682C148.59 11.8682 148.097 11.3761 148.097 10.7497C148.097 10.1234 148.59 9.63129 149.218 9.63129C149.845 9.63129 150.339 10.1234 150.339 10.7497C150.339 11.3761 149.845 11.8682 149.218 11.8682ZM135.766 11.8682C135.138 11.8682 134.645 11.3761 134.645 10.7497C134.645 10.1234 135.138 9.63129 135.766 9.63129C136.394 9.63129 136.887 10.1234 136.887 10.7497C136.887 11.3761 136.394 11.8682 135.766 11.8682ZM138.008 11.8682C137.38 11.8682 136.887 11.3761 136.887 10.7497C136.887 10.1234 137.38 9.63129 138.008 9.63129C138.636 9.63129 139.129 10.1234 139.129 10.7497C139.129 11.3761 138.636 11.8682 138.008 11.8682ZM140.25 11.8682C139.622 11.8682 139.129 11.3761 139.129 10.7497C139.129 10.1234 139.622 9.63129 140.25 9.63129C140.878 9.63129 141.371 10.1234 141.371 10.7497C141.371 11.3761 140.878 11.8682 140.25 11.8682ZM133.524 11.8682C132.896 11.8682 132.403 11.3761 132.403 10.7497C132.403 10.1234 132.896 9.63129 133.524 9.63129C134.152 9.63129 134.645 10.1234 134.645 10.7497C134.645 11.3761 134.152 11.8682 133.524 11.8682ZM146.976 11.8682C146.348 11.8682 145.855 11.3761 145.855 10.7497C145.855 10.1234 146.348 9.63129 146.976 9.63129C147.603 9.63129 148.097 10.1234 148.097 10.7497C148.097 11.3761 147.603 11.8682 146.976 11.8682ZM144.734 11.8682C144.106 11.8682 143.613 11.3761 143.613 10.7497C143.613 10.1234 144.106 9.63129 144.734 9.63129C145.361 9.63129 145.855 10.1234 145.855 10.7497C145.855 11.3761 145.361 11.8682 144.734 11.8682ZM142.492 11.8682C141.864 11.8682 141.371 11.3761 141.371 10.7497C141.371 10.1234 141.864 9.63129 142.492 9.63129C143.119 9.63129 143.613 10.1234 143.613 10.7497C143.613 11.3761 143.119 11.8682 142.492 11.8682ZM146.976 14.105C146.348 14.105 145.855 13.6129 145.855 12.9866C145.855 12.3603 146.348 11.8682 146.976 11.8682C147.603 11.8682 148.097 12.3603 148.097 12.9866C148.097 13.6129 147.603 14.105 146.976 14.105ZM144.734 14.105C144.106 14.105 143.613 13.6129 143.613 12.9866C143.613 12.3603 144.106 11.8682 144.734 11.8682C145.361 11.8682 145.855 12.3603 145.855 12.9866C145.855 13.6129 145.361 14.105 144.734 14.105ZM135.766 14.105C135.138 14.105 134.645 13.6129 134.645 12.9866C134.645 12.3603 135.138 11.8682 135.766 11.8682C136.394 11.8682 136.887 12.3603 136.887 12.9866C136.887 13.6129 136.394 14.105 135.766 14.105ZM133.524 14.105C132.896 14.105 132.403 13.6129 132.403 12.9866C132.403 12.3603 132.896 11.8682 133.524 11.8682C134.152 11.8682 134.645 12.3603 134.645 12.9866C134.645 13.6129 134.152 14.105 133.524 14.105ZM142.492 14.105C141.864 14.105 141.371 13.6129 141.371 12.9866C141.371 12.3603 141.864 11.8682 142.492 11.8682C143.119 11.8682 143.613 12.3603 143.613 12.9866C143.613 13.6129 143.119 14.105 142.492 14.105ZM138.008 14.105C137.38 14.105 136.887 13.6129 136.887 12.9866C136.887 12.3603 137.38 11.8682 138.008 11.8682C138.636 11.8682 139.129 12.3603 139.129 12.9866C139.129 13.6129 138.636 14.105 138.008 14.105ZM131.282 14.105C130.654 14.105 130.161 13.6129 130.161 12.9866C130.161 12.3603 130.654 11.8682 131.282 11.8682C131.91 11.8682 132.403 12.3603 132.403 12.9866C132.403 13.6129 131.91 14.105 131.282 14.105ZM140.25 14.105C139.622 14.105 139.129 13.6129 139.129 12.9866C139.129 12.3603 139.622 11.8682 140.25 11.8682C140.878 11.8682 141.371 12.3603 141.371 12.9866C141.371 13.6129 140.878 14.105 140.25 14.105ZM142.492 16.3419C141.864 16.3419 141.371 15.8498 141.371 15.2235C141.371 14.5971 141.864 14.105 142.492 14.105C143.119 14.105 143.613 14.5971 143.613 15.2235C143.613 15.8498 143.119 16.3419 142.492 16.3419ZM140.25 16.3419C139.622 16.3419 139.129 15.8498 139.129 15.2235C139.129 14.5971 139.622 14.105 140.25 14.105C140.878 14.105 141.371 14.5971 141.371 15.2235C141.371 15.8498 140.878 16.3419 140.25 16.3419ZM138.008 16.3419C137.38 16.3419 136.887 15.8498 136.887 15.2235C136.887 14.5971 137.38 14.105 138.008 14.105C138.636 14.105 139.129 14.5971 139.129 15.2235C139.129 15.8498 138.636 16.3419 138.008 16.3419ZM135.766 16.3419C135.138 16.3419 134.645 15.8498 134.645 15.2235C134.645 14.5971 135.138 14.105 135.766 14.105C136.394 14.105 136.887 14.5971 136.887 15.2235C136.887 15.8498 136.394 16.3419 135.766 16.3419ZM135.766 18.5788C135.138 18.5788 134.645 18.0867 134.645 17.4603C134.645 16.834 135.138 16.3419 135.766 16.3419C136.394 16.3419 136.887 16.834 136.887 17.4603C136.887 18.0867 136.394 18.5788 135.766 18.5788ZM138.008 18.5788C137.38 18.5788 136.887 18.0867 136.887 17.4603C136.887 16.834 137.38 16.3419 138.008 16.3419C138.636 16.3419 139.129 16.834 139.129 17.4603C139.129 18.0867 138.636 18.5788 138.008 18.5788ZM140.25 18.5788C139.622 18.5788 139.129 18.0867 139.129 17.4603C139.129 16.834 139.622 16.3419 140.25 16.3419C140.878 16.3419 141.371 16.834 141.371 17.4603C141.371 18.0867 140.878 18.5788 140.25 18.5788ZM142.492 18.5788C141.864 18.5788 141.371 18.0867 141.371 17.4603C141.371 16.834 141.864 16.3419 142.492 16.3419C143.119 16.3419 143.613 16.834 143.613 17.4603C143.613 18.0867 143.119 18.5788 142.492 18.5788ZM140.25 20.8156C139.622 20.8156 139.129 20.3235 139.129 19.6972C139.129 19.0709 139.622 18.5788 140.25 18.5788C140.878 18.5788 141.371 19.0709 141.371 19.6972C141.371 20.3235 140.878 20.8156 140.25 20.8156ZM142.492 20.8156C141.864 20.8156 141.371 20.3235 141.371 19.6972C141.371 19.0709 141.864 18.5788 142.492 18.5788C143.119 18.5788 143.613 19.0709 143.613 19.6972C143.613 20.3235 143.119 20.8156 142.492 20.8156ZM135.766 20.8156C135.138 20.8156 134.645 20.3235 134.645 19.6972C134.645 19.0709 135.138 18.5788 135.766 18.5788C136.394 18.5788 136.887 19.0709 136.887 19.6972C136.887 20.3235 136.394 20.8156 135.766 20.8156ZM138.008 20.8156C137.38 20.8156 136.887 20.3235 136.887 19.6972C136.887 19.0709 137.38 18.5788 138.008 18.5788C138.636 18.5788 139.129 19.0709 139.129 19.6972C139.129 20.3235 138.636 20.8156 138.008 20.8156ZM142.492 23.0525C141.864 23.0525 141.371 22.5604 141.371 21.9341C141.371 21.3078 141.864 20.8156 142.492 20.8156C143.119 20.8156 143.613 21.3078 143.613 21.9341C143.613 22.5604 143.119 23.0525 142.492 23.0525ZM140.25 23.0525C139.622 23.0525 139.129 22.5604 139.129 21.9341C139.129 21.3078 139.622 20.8156 140.25 20.8156C140.878 20.8156 141.371 21.3078 141.371 21.9341C141.371 22.5604 140.878 23.0525 140.25 23.0525ZM135.766 23.0525C135.138 23.0525 134.645 22.5604 134.645 21.9341C134.645 21.3078 135.138 20.8156 135.766 20.8156C136.394 20.8156 136.887 21.3078 136.887 21.9341C136.887 22.5604 136.394 23.0525 135.766 23.0525ZM138.008 23.0525C137.38 23.0525 136.887 22.5604 136.887 21.9341C136.887 21.3078 137.38 20.8156 138.008 20.8156C138.636 20.8156 139.129 21.3078 139.129 21.9341C139.129 22.5604 138.636 23.0525 138.008 23.0525ZM146.976 25.2894C146.348 25.2894 145.855 24.7973 145.855 24.171C145.855 23.5446 146.348 23.0525 146.976 23.0525C147.603 23.0525 148.097 23.5446 148.097 24.171C148.097 24.7973 147.603 25.2894 146.976 25.2894ZM144.734 25.2894C144.106 25.2894 143.613 24.7973 143.613 24.171C143.613 23.5446 144.106 23.0525 144.734 23.0525C145.361 23.0525 145.855 23.5446 145.855 24.171C145.855 24.7973 145.361 25.2894 144.734 25.2894ZM142.492 25.2894C141.864 25.2894 141.371 24.7973 141.371 24.171C141.371 23.5446 141.864 23.0525 142.492 23.0525C143.119 23.0525 143.613 23.5446 143.613 24.171C143.613 24.7973 143.119 25.2894 142.492 25.2894ZM140.25 25.2894C139.622 25.2894 139.129 24.7973 139.129 24.171C139.129 23.5446 139.622 23.0525 140.25 23.0525C140.878 23.0525 141.371 23.5446 141.371 24.171C141.371 24.7973 140.878 25.2894 140.25 25.2894ZM135.766 25.2894C135.138 25.2894 134.645 24.7973 134.645 24.171C134.645 23.5446 135.138 23.0525 135.766 23.0525C136.394 23.0525 136.887 23.5446 136.887 24.171C136.887 24.7973 136.394 25.2894 135.766 25.2894ZM138.008 25.2894C137.38 25.2894 136.887 24.7973 136.887 24.171C136.887 23.5446 137.38 23.0525 138.008 23.0525C138.636 23.0525 139.129 23.5446 139.129 24.171C139.129 24.7973 138.636 25.2894 138.008 25.2894ZM149.218 25.2894C148.59 25.2894 148.097 24.7973 148.097 24.171C148.097 23.5446 148.59 23.0525 149.218 23.0525C149.845 23.0525 150.339 23.5446 150.339 24.171C150.339 24.7973 149.845 25.2894 149.218 25.2894ZM144.734 27.5263C144.106 27.5263 143.613 27.0341 143.613 26.4078C143.613 25.7815 144.106 25.2894 144.734 25.2894C145.361 25.2894 145.855 25.7815 145.855 26.4078C145.855 27.0341 145.361 27.5263 144.734 27.5263ZM142.492 27.5263C141.864 27.5263 141.371 27.0341 141.371 26.4078C141.371 25.7815 141.864 25.2894 142.492 25.2894C143.119 25.2894 143.613 25.7815 143.613 26.4078C143.613 27.0341 143.119 27.5263 142.492 27.5263ZM140.25 27.5263C139.622 27.5263 139.129 27.0341 139.129 26.4078C139.129 25.7815 139.622 25.2894 140.25 25.2894C140.878 25.2894 141.371 25.7815 141.371 26.4078C141.371 27.0341 140.878 27.5263 140.25 27.5263ZM138.008 27.5263C137.38 27.5263 136.887 27.0341 136.887 26.4078C136.887 25.7815 137.38 25.2894 138.008 25.2894C138.636 25.2894 139.129 25.7815 139.129 26.4078C139.129 27.0341 138.636 27.5263 138.008 27.5263ZM146.976 27.5263C146.348 27.5263 145.855 27.0341 145.855 26.4078C145.855 25.7815 146.348 25.2894 146.976 25.2894C147.603 25.2894 148.097 25.7815 148.097 26.4078C148.097 27.0341 147.603 27.5263 146.976 27.5263Z" fill="#BC2CFF"/>
<path d="M151.46 11.8682C150.832 11.8682 150.339 11.3761 150.339 10.7497C150.339 10.1234 150.832 9.63129 151.46 9.63129C152.087 9.63129 152.58 10.1234 152.58 10.7497C152.58 11.3761 152.087 11.8682 151.46 11.8682ZM164.911 11.8682C164.283 11.8682 163.79 11.3761 163.79 10.7497C163.79 10.1234 164.283 9.63129 164.911 9.63129C165.539 9.63129 166.032 10.1234 166.032 10.7497C166.032 11.3761 165.539 11.8682 164.911 11.8682ZM162.669 11.8682C162.042 11.8682 161.548 11.3761 161.548 10.7497C161.548 10.1234 162.042 9.63129 162.669 9.63129C163.297 9.63129 163.79 10.1234 163.79 10.7497C163.79 11.3761 163.297 11.8682 162.669 11.8682ZM167.153 11.8682C166.525 11.8682 166.032 11.3761 166.032 10.7497C166.032 10.1234 166.525 9.63129 167.153 9.63129C167.781 9.63129 168.274 10.1234 168.274 10.7497C168.274 11.3761 167.781 11.8682 167.153 11.8682ZM158.185 11.8682C157.558 11.8682 157.064 11.3761 157.064 10.7497C157.064 10.1234 157.558 9.63129 158.185 9.63129C158.813 9.63129 159.306 10.1234 159.306 10.7497C159.306 11.3761 158.813 11.8682 158.185 11.8682ZM155.943 11.8682C155.316 11.8682 154.822 11.3761 154.822 10.7497C154.822 10.1234 155.316 9.63129 155.943 9.63129C156.571 9.63129 157.064 10.1234 157.064 10.7497C157.064 11.3761 156.571 11.8682 155.943 11.8682ZM153.701 11.8682C153.074 11.8682 152.58 11.3761 152.58 10.7497C152.58 10.1234 153.074 9.63129 153.701 9.63129C154.329 9.63129 154.822 10.1234 154.822 10.7497C154.822 11.3761 154.329 11.8682 153.701 11.8682ZM158.185 14.105C157.558 14.105 157.064 13.6129 157.064 12.9866C157.064 12.3603 157.558 11.8682 158.185 11.8682C158.813 11.8682 159.306 12.3603 159.306 12.9866C159.306 13.6129 158.813 14.105 158.185 14.105ZM153.701 14.105C153.074 14.105 152.58 13.6129 152.58 12.9866C152.58 12.3603 153.074 11.8682 153.701 11.8682C154.329 11.8682 154.822 12.3603 154.822 12.9866C154.822 13.6129 154.329 14.105 153.701 14.105ZM167.153 14.105C166.525 14.105 166.032 13.6129 166.032 12.9866C166.032 12.3603 166.525 11.8682 167.153 11.8682C167.781 11.8682 168.274 12.3603 168.274 12.9866C168.274 13.6129 167.781 14.105 167.153 14.105ZM155.943 14.105C155.316 14.105 154.822 13.6129 154.822 12.9866C154.822 12.3603 155.316 11.8682 155.943 11.8682C156.571 11.8682 157.064 12.3603 157.064 12.9866C157.064 13.6129 156.571 14.105 155.943 14.105ZM160.427 14.105C159.8 14.105 159.306 13.6129 159.306 12.9866C159.306 12.3603 159.8 11.8682 160.427 11.8682C161.055 11.8682 161.548 12.3603 161.548 12.9866C161.548 13.6129 161.055 14.105 160.427 14.105ZM151.46 14.105C150.832 14.105 150.339 13.6129 150.339 12.9866C150.339 12.3603 150.832 11.8682 151.46 11.8682C152.087 11.8682 152.58 12.3603 152.58 12.9866C152.58 13.6129 152.087 14.105 151.46 14.105ZM164.911 14.105C164.283 14.105 163.79 13.6129 163.79 12.9866C163.79 12.3603 164.283 11.8682 164.911 11.8682C165.539 11.8682 166.032 12.3603 166.032 12.9866C166.032 13.6129 165.539 14.105 164.911 14.105ZM162.669 14.105C162.042 14.105 161.548 13.6129 161.548 12.9866C161.548 12.3603 162.042 11.8682 162.669 11.8682C163.297 11.8682 163.79 12.3603 163.79 12.9866C163.79 13.6129 163.297 14.105 162.669 14.105ZM153.701 16.3419C153.074 16.3419 152.58 15.8498 152.58 15.2235C152.58 14.5971 153.074 14.105 153.701 14.105C154.329 14.105 154.822 14.5971 154.822 15.2235C154.822 15.8498 154.329 16.3419 153.701 16.3419ZM155.943 16.3419C155.316 16.3419 154.822 15.8498 154.822 15.2235C154.822 14.5971 155.316 14.105 155.943 14.105C156.571 14.105 157.064 14.5971 157.064 15.2235C157.064 15.8498 156.571 16.3419 155.943 16.3419ZM158.185 16.3419C157.558 16.3419 157.064 15.8498 157.064 15.2235C157.064 14.5971 157.558 14.105 158.185 14.105C158.813 14.105 159.306 14.5971 159.306 15.2235C159.306 15.8498 158.813 16.3419 158.185 16.3419ZM167.153 16.3419C166.525 16.3419 166.032 15.8498 166.032 15.2235C166.032 14.5971 166.525 14.105 167.153 14.105C167.781 14.105 168.274 14.5971 168.274 15.2235C168.274 15.8498 167.781 16.3419 167.153 16.3419ZM164.911 16.3419C164.283 16.3419 163.79 15.8498 163.79 15.2235C163.79 14.5971 164.283 14.105 164.911 14.105C165.539 14.105 166.032 14.5971 166.032 15.2235C166.032 15.8498 165.539 16.3419 164.911 16.3419ZM151.46 16.3419C150.832 16.3419 150.339 15.8498 150.339 15.2235C150.339 14.5971 150.832 14.105 151.46 14.105C152.087 14.105 152.58 14.5971 152.58 15.2235C152.58 15.8498 152.087 16.3419 151.46 16.3419ZM160.427 16.3419C159.8 16.3419 159.306 15.8498 159.306 15.2235C159.306 14.5971 159.8 14.105 160.427 14.105C161.055 14.105 161.548 14.5971 161.548 15.2235C161.548 15.8498 161.055 16.3419 160.427 16.3419ZM162.669 16.3419C162.042 16.3419 161.548 15.8498 161.548 15.2235C161.548 14.5971 162.042 14.105 162.669 14.105C163.297 14.105 163.79 14.5971 163.79 15.2235C163.79 15.8498 163.297 16.3419 162.669 16.3419ZM153.701 18.5788C153.074 18.5788 152.58 18.0867 152.58 17.4603C152.58 16.834 153.074 16.3419 153.701 16.3419C154.329 16.3419 154.822 16.834 154.822 17.4603C154.822 18.0867 154.329 18.5788 153.701 18.5788ZM155.943 18.5788C155.316 18.5788 154.822 18.0867 154.822 17.4603C154.822 16.834 155.316 16.3419 155.943 16.3419C156.571 16.3419 157.064 16.834 157.064 17.4603C157.064 18.0867 156.571 18.5788 155.943 18.5788ZM151.46 18.5788C150.832 18.5788 150.339 18.0867 150.339 17.4603C150.339 16.834 150.832 16.3419 151.46 16.3419C152.087 16.3419 152.58 16.834 152.58 17.4603C152.58 18.0867 152.087 18.5788 151.46 18.5788ZM158.185 18.5788C157.558 18.5788 157.064 18.0867 157.064 17.4603C157.064 16.834 157.558 16.3419 158.185 16.3419C158.813 16.3419 159.306 16.834 159.306 17.4603C159.306 18.0867 158.813 18.5788 158.185 18.5788ZM160.427 18.5788C159.8 18.5788 159.306 18.0867 159.306 17.4603C159.306 16.834 159.8 16.3419 160.427 16.3419C161.055 16.3419 161.548 16.834 161.548 17.4603C161.548 18.0867 161.055 18.5788 160.427 18.5788ZM158.185 20.8156C157.558 20.8156 157.064 20.3235 157.064 19.6972C157.064 19.0709 157.558 18.5788 158.185 18.5788C158.813 18.5788 159.306 19.0709 159.306 19.6972C159.306 20.3235 158.813 20.8156 158.185 20.8156ZM155.943 20.8156C155.316 20.8156 154.822 20.3235 154.822 19.6972C154.822 19.0709 155.316 18.5788 155.943 18.5788C156.571 18.5788 157.064 19.0709 157.064 19.6972C157.064 20.3235 156.571 20.8156 155.943 20.8156ZM153.701 20.8156C153.074 20.8156 152.58 20.3235 152.58 19.6972C152.58 19.0709 153.074 18.5788 153.701 18.5788C154.329 18.5788 154.822 19.0709 154.822 19.6972C154.822 20.3235 154.329 20.8156 153.701 20.8156ZM151.46 20.8156C150.832 20.8156 150.339 20.3235 150.339 19.6972C150.339 19.0709 150.832 18.5788 151.46 18.5788C152.087 18.5788 152.58 19.0709 152.58 19.6972C152.58 20.3235 152.087 20.8156 151.46 20.8156ZM153.701 23.0525C153.074 23.0525 152.58 22.5604 152.58 21.9341C152.58 21.3078 153.074 20.8156 153.701 20.8156C154.329 20.8156 154.822 21.3078 154.822 21.9341C154.822 22.5604 154.329 23.0525 153.701 23.0525ZM155.943 23.0525C155.316 23.0525 154.822 22.5604 154.822 21.9341C154.822 21.3078 155.316 20.8156 155.943 20.8156C156.571 20.8156 157.064 21.3078 157.064 21.9341C157.064 22.5604 156.571 23.0525 155.943 23.0525ZM151.46 23.0525C150.832 23.0525 150.339 22.5604 150.339 21.9341C150.339 21.3078 150.832 20.8156 151.46 20.8156C152.087 20.8156 152.58 21.3078 152.58 21.9341C152.58 22.5604 152.087 23.0525 151.46 23.0525ZM158.185 23.0525C157.558 23.0525 157.064 22.5604 157.064 21.9341C157.064 21.3078 157.558 20.8156 158.185 20.8156C158.813 20.8156 159.306 21.3078 159.306 21.9341C159.306 22.5604 158.813 23.0525 158.185 23.0525ZM158.185 25.2894C157.558 25.2894 157.064 24.7973 157.064 24.171C157.064 23.5446 157.558 23.0525 158.185 23.0525C158.813 23.0525 159.306 23.5446 159.306 24.171C159.306 24.7973 158.813 25.2894 158.185 25.2894ZM155.943 25.2894C155.316 25.2894 154.822 24.7973 154.822 24.171C154.822 23.5446 155.316 23.0525 155.943 23.0525C156.571 23.0525 157.064 23.5446 157.064 24.171C157.064 24.7973 156.571 25.2894 155.943 25.2894ZM151.46 25.2894C150.832 25.2894 150.339 24.7973 150.339 24.171C150.339 23.5446 150.832 23.0525 151.46 23.0525C152.087 23.0525 152.58 23.5446 152.58 24.171C152.58 24.7973 152.087 25.2894 151.46 25.2894ZM153.701 25.2894C153.074 25.2894 152.58 24.7973 152.58 24.171C152.58 23.5446 153.074 23.0525 153.701 23.0525C154.329 23.0525 154.822 23.5446 154.822 24.171C154.822 24.7973 154.329 25.2894 153.701 25.2894ZM158.185 27.5263C157.558 27.5263 157.064 27.0341 157.064 26.4078C157.064 25.7815 157.558 25.2894 158.185 25.2894C158.813 25.2894 159.306 25.7815 159.306 26.4078C159.306 27.0341 158.813 27.5263 158.185 27.5263ZM155.943 27.5263C155.316 27.5263 154.822 27.0341 154.822 26.4078C154.822 25.7815 155.316 25.2894 155.943 25.2894C156.571 25.2894 157.064 25.7815 157.064 26.4078C157.064 27.0341 156.571 27.5263 155.943 27.5263ZM153.701 27.5263C153.074 27.5263 152.58 27.0341 152.58 26.4078C152.58 25.7815 153.074 25.2894 153.701 25.2894C154.329 25.2894 154.822 25.7815 154.822 26.4078C154.822 27.0341 154.329 27.5263 153.701 27.5263ZM151.46 27.5263C150.832 27.5263 150.339 27.0341 150.339 26.4078C150.339 25.7815 150.832 25.2894 151.46 25.2894C152.087 25.2894 152.58 25.7815 152.58 26.4078C152.58 27.0341 152.087 27.5263 151.46 27.5263Z" fill="#0B0A0B"/>
<path d="M167.153 20.8156C166.525 20.8156 166.032 20.3235 166.032 19.6972C166.032 19.0709 166.525 18.5788 167.153 18.5788C167.781 18.5788 168.274 19.0709 168.274 19.6972C168.274 20.3235 167.781 20.8156 167.153 20.8156ZM171.637 20.8156C171.009 20.8156 170.516 20.3235 170.516 19.6972C170.516 19.0709 171.009 18.5788 171.637 18.5788C172.265 18.5788 172.758 19.0709 172.758 19.6972C172.758 20.3235 172.265 20.8156 171.637 20.8156ZM169.395 20.8156C168.767 20.8156 168.274 20.3235 168.274 19.6972C168.274 19.0709 168.767 18.5788 169.395 18.5788C170.023 18.5788 170.516 19.0709 170.516 19.6972C170.516 20.3235 170.023 20.8156 169.395 20.8156ZM173.879 20.8156C173.251 20.8156 172.758 20.3235 172.758 19.6972C172.758 19.0709 173.251 18.5788 173.879 18.5788C174.507 18.5788 175 19.0709 175 19.6972C175 20.3235 174.507 20.8156 173.879 20.8156ZM167.153 23.0525C166.525 23.0525 166.032 22.5604 166.032 21.9341C166.032 21.3078 166.525 20.8156 167.153 20.8156C167.781 20.8156 168.274 21.3078 168.274 21.9341C168.274 22.5604 167.781 23.0525 167.153 23.0525ZM169.395 23.0525C168.767 23.0525 168.274 22.5604 168.274 21.9341C168.274 21.3078 168.767 20.8156 169.395 20.8156C170.023 20.8156 170.516 21.3078 170.516 21.9341C170.516 22.5604 170.023 23.0525 169.395 23.0525ZM171.637 23.0525C171.009 23.0525 170.516 22.5604 170.516 21.9341C170.516 21.3078 171.009 20.8156 171.637 20.8156C172.265 20.8156 172.758 21.3078 172.758 21.9341C172.758 22.5604 172.265 23.0525 171.637 23.0525ZM173.879 23.0525C173.251 23.0525 172.758 22.5604 172.758 21.9341C172.758 21.3078 173.251 20.8156 173.879 20.8156C174.507 20.8156 175 21.3078 175 21.9341C175 22.5604 174.507 23.0525 173.879 23.0525ZM167.153 25.2894C166.525 25.2894 166.032 24.7973 166.032 24.171C166.032 23.5446 166.525 23.0525 167.153 23.0525C167.781 23.0525 168.274 23.5446 168.274 24.171C168.274 24.7973 167.781 25.2894 167.153 25.2894ZM169.395 25.2894C168.767 25.2894 168.274 24.7973 168.274 24.171C168.274 23.5446 168.767 23.0525 169.395 23.0525C170.023 23.0525 170.516 23.5446 170.516 24.171C170.516 24.7973 170.023 25.2894 169.395 25.2894ZM171.637 25.2894C171.009 25.2894 170.516 24.7973 170.516 24.171C170.516 23.5446 171.009 23.0525 171.637 23.0525C172.265 23.0525 172.758 23.5446 172.758 24.171C172.758 24.7973 172.265 25.2894 171.637 25.2894ZM173.879 25.2894C173.251 25.2894 172.758 24.7973 172.758 24.171C172.758 23.5446 173.251 23.0525 173.879 23.0525C174.507 23.0525 175 23.5446 175 24.171C175 24.7973 174.507 25.2894 173.879 25.2894ZM167.153 27.5263C166.525 27.5263 166.032 27.0341 166.032 26.4078C166.032 25.7815 166.525 25.2894 167.153 25.2894C167.781 25.2894 168.274 25.7815 168.274 26.4078C168.274 27.0341 167.781 27.5263 167.153 27.5263ZM169.395 27.5263C168.767 27.5263 168.274 27.0341 168.274 26.4078C168.274 25.7815 168.767 25.2894 169.395 25.2894C170.023 25.2894 170.516 25.7815 170.516 26.4078C170.516 27.0341 170.023 27.5263 169.395 27.5263ZM171.637 27.5263C171.009 27.5263 170.516 27.0341 170.516 26.4078C170.516 25.7815 171.009 25.2894 171.637 25.2894C172.265 25.2894 172.758 25.7815 172.758 26.4078C172.758 27.0341 172.265 27.5263 171.637 27.5263ZM173.879 27.5263C173.251 27.5263 172.758 27.0341 172.758 26.4078C172.758 25.7815 173.251 25.2894 173.879 25.2894C174.507 25.2894 175 25.7815 175 26.4078C175 27.0341 174.507 27.5263 173.879 27.5263Z" fill="#BC2CFF"/>
</svg>
